<svg width="57" height="28" viewBox="0 0 57 28" fill="none" xmlns="http://www.w3.org/2000/svg">
<rect width="57" height="28" rx="5" fill="#A5121C"/>
<path d="M22.0781 20.0781C21.9479 20.1302 21.8633 20.2018 21.8242 20.293C21.7982 20.3841 21.7852 20.4362 21.7852 20.4492C21.5768 20.5664 21.3815 20.638 21.1992 20.6641C21.0169 20.6901 20.8151 20.6966 20.5938 20.6836C20.5286 20.6836 20.4896 20.6641 20.4766 20.625C20.4635 20.5859 20.4375 20.5664 20.3984 20.5664C20.3594 20.5664 20.3203 20.5664 20.2812 20.5664C20.2552 20.5794 20.2227 20.5859 20.1836 20.5859C20.0924 20.5599 20.0143 20.5273 19.9492 20.4883C19.8971 20.4622 19.819 20.4492 19.7148 20.4492C19.7148 20.3841 19.6823 20.3385 19.6172 20.3125C19.5651 20.2995 19.526 20.2604 19.5 20.1953C19.3438 20.0911 19.2331 20.013 19.168 19.9609C19.1159 19.8958 19.0768 19.8242 19.0508 19.7461C18.9727 19.7201 18.9336 19.6875 18.9336 19.6484C18.9336 19.6094 18.9206 19.5768 18.8945 19.5508C18.8555 19.4857 18.8034 19.4141 18.7383 19.3359C18.6732 19.2578 18.6276 19.1797 18.6016 19.1016C18.5885 19.0755 18.582 19.043 18.582 19.0039C18.582 18.9648 18.5755 18.9258 18.5625 18.8867C18.5365 18.8346 18.5104 18.7891 18.4844 18.75C18.4583 18.7109 18.4323 18.6654 18.4062 18.6133C18.3672 18.5352 18.3477 18.4505 18.3477 18.3594C18.3477 18.2552 18.3477 18.1576 18.3477 18.0664C18.3346 18.0013 18.3021 17.9622 18.25 17.9492C18.2109 17.9362 18.1784 17.9102 18.1523 17.8711C18.1133 17.806 18.1133 17.7604 18.1523 17.7344C18.1914 17.6953 18.2174 17.6432 18.2305 17.5781C18.2305 17.487 18.1914 17.4219 18.1133 17.3828C18.1523 17.2656 18.1523 17.1354 18.1133 16.9922C18.0872 16.8359 18.0482 16.7057 17.9961 16.6016C18.0612 16.4974 18.0807 16.3997 18.0547 16.3086C18.0286 16.2044 18.0091 16.1003 17.9961 15.9961C17.9831 15.8398 17.9635 15.7487 17.9375 15.7227C17.9245 15.6966 17.918 15.6641 17.918 15.625C17.9701 15.5469 17.9961 15.4427 17.9961 15.3125C17.9961 15.1693 17.9505 15.0716 17.8594 15.0195C17.8854 14.9154 17.918 14.8438 17.957 14.8047C17.931 14.5964 17.9115 14.3945 17.8984 14.1992C17.8984 13.9909 17.8919 13.776 17.8789 13.5547C17.8529 13.3724 17.8398 13.2552 17.8398 13.2031C17.8529 13.138 17.8594 13.0729 17.8594 13.0078C17.8464 12.9557 17.8464 12.9102 17.8594 12.8711C17.8854 12.832 17.8919 12.7865 17.8789 12.7344C17.8138 12.5 17.7878 12.3307 17.8008 12.2266C17.8138 12.1094 17.8073 11.9922 17.7812 11.875C17.7682 11.7578 17.7422 11.6732 17.7031 11.6211C17.6771 11.556 17.6641 11.4909 17.6641 11.4258C17.6641 11.3216 17.6771 11.2109 17.7031 11.0938C17.7292 10.9766 17.7422 10.8659 17.7422 10.7617C17.7422 10.6576 17.7292 10.5469 17.7031 10.4297C17.6901 10.3125 17.7161 10.2083 17.7812 10.1172C17.7682 9.97396 17.7682 9.8763 17.7812 9.82422C17.8073 9.77214 17.8333 9.72005 17.8594 9.66797C17.8333 9.57682 17.8203 9.51172 17.8203 9.47266C17.8203 9.42057 17.8203 9.38802 17.8203 9.375C17.8333 9.34896 17.8464 9.32943 17.8594 9.31641C17.8724 9.29036 17.8789 9.24479 17.8789 9.17969C17.9049 9.01042 17.8984 8.84766 17.8594 8.69141C17.8203 8.52214 17.8203 8.34635 17.8594 8.16406C17.7682 8.15104 17.6901 8.20312 17.625 8.32031C17.5599 8.42448 17.5208 8.50911 17.5078 8.57422C17.4427 8.58724 17.3906 8.6263 17.3516 8.69141C17.3255 8.74349 17.2799 8.78255 17.2148 8.80859C17.2148 8.84766 17.2018 8.88021 17.1758 8.90625C17.1628 8.93229 17.1628 8.97135 17.1758 9.02344C17.1107 9.08854 17.0651 9.15365 17.0391 9.21875C17.026 9.28385 16.987 9.34896 16.9219 9.41406C16.8958 9.46615 16.8828 9.53125 16.8828 9.60938C16.8828 9.67448 16.8438 9.72005 16.7656 9.74609C16.7786 9.8763 16.7591 9.99349 16.707 10.0977C16.668 10.2018 16.6159 10.319 16.5508 10.4492C16.4987 10.5664 16.4466 10.6836 16.3945 10.8008C16.3555 10.9049 16.3294 10.9766 16.3164 11.0156C16.2904 11.0807 16.2708 11.1458 16.2578 11.2109C16.2448 11.263 16.2122 11.3216 16.1602 11.3867C16.1341 11.582 16.0885 11.7122 16.0234 11.7773C15.9714 11.8424 15.9583 11.9271 15.9844 12.0312C15.9062 12.0052 15.8607 12.0117 15.8477 12.0508C15.8346 12.0898 15.8021 12.1224 15.75 12.1484C15.6979 12.3307 15.6784 12.4674 15.6914 12.5586C15.7044 12.6497 15.6849 12.7344 15.6328 12.8125C15.5286 12.9948 15.4375 13.1836 15.3594 13.3789C15.2943 13.5612 15.2617 13.724 15.2617 13.8672C15.2357 14.0625 15.1966 14.2188 15.1445 14.3359C15.0924 14.4401 15.0924 14.5573 15.1445 14.6875C15.1055 14.7656 15.0599 14.8568 15.0078 14.9609C14.9557 15.0521 14.9557 15.1497 15.0078 15.2539L14.8516 15.5469C14.8646 15.651 14.8646 15.7227 14.8516 15.7617C14.8516 15.7878 14.8255 15.8398 14.7734 15.918C14.7995 15.9701 14.819 16.0221 14.832 16.0742C14.8451 16.1263 14.8776 16.1654 14.9297 16.1914C14.9167 16.1914 14.8906 16.2435 14.8516 16.3477C14.8125 16.4518 14.7865 16.5104 14.7734 16.5234C14.7995 16.6797 14.7995 16.7773 14.7734 16.8164C14.7604 16.8424 14.7474 16.8685 14.7344 16.8945C14.7344 16.9466 14.7409 16.9922 14.7539 17.0312C14.7799 17.0703 14.7865 17.1159 14.7734 17.168C14.7734 17.2591 14.7539 17.3438 14.7148 17.4219C14.6758 17.5 14.6693 17.5846 14.6953 17.6758C14.6172 17.7018 14.5716 17.7539 14.5586 17.832C14.5586 17.9102 14.5326 17.9753 14.4805 18.0273C14.5065 18.0924 14.5391 18.1576 14.5781 18.2227C14.6302 18.2747 14.6107 18.3333 14.5195 18.3984C14.6107 18.5156 14.6237 18.5872 14.5586 18.6133C14.5065 18.6393 14.4674 18.6784 14.4414 18.7305C14.3372 18.9128 14.2721 19.0169 14.2461 19.043C14.2201 19.069 14.194 19.0885 14.168 19.1016C14.1549 19.1016 14.1354 19.1016 14.1094 19.1016C14.0833 19.1016 14.0312 19.1146 13.9531 19.1406C13.7839 19.2057 13.6667 19.2188 13.6016 19.1797C13.5365 19.1276 13.4518 19.1016 13.3477 19.1016C13.2826 18.9323 13.1589 18.8086 12.9766 18.7305C13.0156 18.5612 13.0156 18.4635 12.9766 18.4375C12.9505 18.4115 12.9245 18.3854 12.8984 18.3594C12.8854 18.3203 12.8854 18.2812 12.8984 18.2422C12.9115 18.1901 12.8919 18.151 12.8398 18.125C12.8919 18.0339 12.8984 17.9036 12.8594 17.7344C12.8203 17.5651 12.7487 17.4609 12.6445 17.4219C12.7096 17.3958 12.7292 17.3633 12.7031 17.3242C12.6771 17.2721 12.6836 17.2331 12.7227 17.207C12.7227 17.1419 12.7096 17.1029 12.6836 17.0898C12.6576 17.0768 12.6315 17.0508 12.6055 17.0117C12.6055 16.8945 12.599 16.8099 12.5859 16.7578C12.5859 16.6927 12.5664 16.6276 12.5273 16.5625C12.5013 16.4974 12.4688 16.4388 12.4297 16.3867C12.3906 16.3346 12.3646 16.2956 12.3516 16.2695C12.3516 16.1523 12.3385 16.0612 12.3125 15.9961C12.2995 15.931 12.2799 15.8789 12.2539 15.8398C12.2279 15.8008 12.2018 15.7682 12.1758 15.7422C12.1628 15.7031 12.1562 15.651 12.1562 15.5859C12.1432 15.5469 12.1172 15.5208 12.0781 15.5078C12.0391 15.4818 12 15.4557 11.9609 15.4297C11.987 15.2995 11.9674 15.1693 11.9023 15.0391C11.8503 14.9089 11.8242 14.7917 11.8242 14.6875C11.8242 14.5573 11.8112 14.4596 11.7852 14.3945C11.7331 14.2643 11.7135 14.1927 11.7266 14.1797C11.7396 14.1667 11.7461 14.1471 11.7461 14.1211C11.668 13.9388 11.6289 13.8216 11.6289 13.7695C11.6289 13.7174 11.6159 13.6589 11.5898 13.5938L11.5117 13.1055C11.4857 13.0404 11.4531 12.9883 11.4141 12.9492C11.375 12.8971 11.3359 12.8385 11.2969 12.7734C11.3229 12.6432 11.3229 12.5065 11.2969 12.3633C11.2839 12.2201 11.2578 12.0833 11.2188 11.9531C11.1146 11.8099 11.0755 11.7253 11.1016 11.6992C11.1276 11.6602 11.1081 11.6211 11.043 11.582C11.0169 11.3867 10.9779 11.2565 10.9258 11.1914C10.8737 11.1263 10.8346 11.0547 10.8086 10.9766C10.7826 10.9115 10.7695 10.8398 10.7695 10.7617C10.7695 10.6836 10.7565 10.6185 10.7305 10.5664C10.6523 10.4883 10.6003 10.4232 10.5742 10.3711C10.5612 10.319 10.5417 10.2734 10.5156 10.2344C10.4766 10.1693 10.431 10.1172 10.3789 10.0781C10.3268 10.0391 10.2812 9.98698 10.2422 9.92188C10.2422 10.013 10.2096 10.0911 10.1445 10.1562C10.1836 10.2604 10.1966 10.3841 10.1836 10.5273C10.1836 10.6706 10.1771 10.7943 10.1641 10.8984C10.138 11.0156 10.125 11.1263 10.125 11.2305C10.125 11.3216 10.1185 11.3997 10.1055 11.4648C10.0794 11.556 10.0664 11.6406 10.0664 11.7188C10.0664 11.7839 10.0664 11.862 10.0664 11.9531C10.1445 12.1615 10.1641 12.2721 10.125 12.2852C10.0859 12.2982 10.0664 12.3372 10.0664 12.4023C10.0534 12.5195 10.0469 12.6367 10.0469 12.7539C10.0469 12.8711 10.0404 12.9883 10.0273 13.1055C10.0404 13.2617 10.0339 13.3659 10.0078 13.418C9.98177 13.457 9.98828 13.5156 10.0273 13.5938C9.96224 13.6068 9.92969 13.6458 9.92969 13.7109C9.92969 13.763 9.91016 13.8021 9.87109 13.8281C9.89714 13.9193 9.91667 14.0104 9.92969 14.1016C9.95573 14.1797 9.98828 14.2643 10.0273 14.3555C9.92318 14.4857 9.88411 14.5964 9.91016 14.6875C9.94922 14.7786 9.96224 14.8633 9.94922 14.9414C9.88411 15.0846 9.85807 15.1823 9.87109 15.2344C9.88411 15.2865 9.85807 15.319 9.79297 15.332C9.85807 15.4622 9.88411 15.6055 9.87109 15.7617C9.85807 15.9049 9.85807 16.0482 9.87109 16.1914C9.91016 16.3607 9.89714 16.5169 9.83203 16.6602C9.77995 16.7904 9.81901 16.9076 9.94922 17.0117C9.79297 17.2201 9.75391 17.4544 9.83203 17.7148C9.85807 17.7799 9.86458 17.832 9.85156 17.8711C9.85156 17.9102 9.88411 17.9622 9.94922 18.0273C9.92318 18.1706 9.91667 18.2552 9.92969 18.2812C9.94271 18.3073 9.9362 18.3333 9.91016 18.3594C9.97526 18.5417 9.98828 18.6458 9.94922 18.6719C9.92318 18.6849 9.89714 18.7174 9.87109 18.7695C9.87109 18.8216 9.86458 18.8932 9.85156 18.9844C9.85156 19.0625 9.87109 19.1146 9.91016 19.1406C9.83203 19.2839 9.79948 19.3815 9.8125 19.4336C9.82552 19.4857 9.80599 19.5378 9.75391 19.5898C9.72786 19.6549 9.7474 19.6875 9.8125 19.6875C9.89062 19.6875 9.92318 19.7201 9.91016 19.7852C9.83203 19.8633 9.74089 19.9219 9.63672 19.9609C9.53255 19.987 9.46094 20.0521 9.42188 20.1562C9.31771 20.1302 9.20703 20.1237 9.08984 20.1367C8.98568 20.1628 8.88151 20.1562 8.77734 20.1172C8.71224 20.0911 8.66016 20.0521 8.62109 20C8.59505 19.9479 8.54948 19.9349 8.48438 19.9609C8.44531 19.8177 8.41276 19.7396 8.38672 19.7266C8.3737 19.7135 8.36719 19.694 8.36719 19.668C8.39323 19.4987 8.39974 19.3945 8.38672 19.3555C8.3737 19.3164 8.36068 19.2839 8.34766 19.2578C8.33464 19.2188 8.32812 19.1732 8.32812 19.1211C8.32812 19.069 8.34766 18.9909 8.38672 18.8867C8.3737 18.8346 8.3737 18.7891 8.38672 18.75C8.41276 18.6979 8.43229 18.6589 8.44531 18.6328C8.45833 18.5938 8.45833 18.5677 8.44531 18.5547C8.44531 18.5286 8.41927 18.5156 8.36719 18.5156C8.40625 18.3854 8.42578 18.2943 8.42578 18.2422C8.4388 18.1901 8.4388 18.151 8.42578 18.125C8.41276 18.0859 8.39974 18.0469 8.38672 18.0078C8.3737 17.9688 8.36719 17.8971 8.36719 17.793C8.36719 17.7409 8.3737 17.6953 8.38672 17.6562C8.39974 17.6042 8.40625 17.5521 8.40625 17.5C8.40625 17.4479 8.41927 17.4089 8.44531 17.3828C8.48438 17.3568 8.4974 17.3177 8.48438 17.2656C8.47135 17.1745 8.46484 17.0833 8.46484 16.9922C8.46484 16.901 8.45833 16.8099 8.44531 16.7188C8.43229 16.5755 8.4388 16.4388 8.46484 16.3086C8.49089 16.1654 8.4974 16.0221 8.48438 15.8789C8.47135 15.7357 8.47135 15.5924 8.48438 15.4492C8.4974 15.306 8.4974 15.1628 8.48438 15.0195C8.48438 14.9935 8.47786 14.9609 8.46484 14.9219C8.45182 14.8698 8.44531 14.8307 8.44531 14.8047C8.51042 14.5964 8.53646 14.4531 8.52344 14.375C8.52344 14.2839 8.51042 14.1992 8.48438 14.1211C8.53646 13.9909 8.5625 13.8802 8.5625 13.7891C8.57552 13.6849 8.58203 13.5807 8.58203 13.4766C8.59505 13.3724 8.60156 13.2682 8.60156 13.1641C8.60156 13.0599 8.57552 12.9688 8.52344 12.8906C8.60156 12.7214 8.64062 12.6042 8.64062 12.5391C8.65365 12.4609 8.64062 12.3893 8.60156 12.3242C8.60156 12.2591 8.64062 12.1745 8.71875 12.0703C8.69271 11.9661 8.69271 11.8685 8.71875 11.7773C8.74479 11.6732 8.75781 11.569 8.75781 11.4648C8.73177 11.3086 8.73828 11.1979 8.77734 11.1328C8.81641 11.0547 8.8099 10.9896 8.75781 10.9375C8.75781 10.8984 8.76432 10.8659 8.77734 10.8398C8.80339 10.8008 8.81641 10.7617 8.81641 10.7227C8.82943 10.6706 8.82292 10.625 8.79688 10.5859C8.78385 10.5469 8.77734 10.5013 8.77734 10.4492C8.79036 10.4102 8.80339 10.3776 8.81641 10.3516C8.84245 10.3125 8.85547 10.2734 8.85547 10.2344C8.86849 10.1562 8.86849 10.0781 8.85547 10C8.84245 9.92188 8.86849 9.85026 8.93359 9.78516C8.90755 9.75911 8.88802 9.72005 8.875 9.66797C8.86198 9.60286 8.84245 9.55078 8.81641 9.51172C8.86849 9.38151 8.88151 9.3099 8.85547 9.29688C8.84245 9.27083 8.82943 9.24479 8.81641 9.21875C8.84245 9.01042 8.84896 8.8737 8.83594 8.80859C8.82292 8.74349 8.82943 8.66536 8.85547 8.57422C8.85547 8.52214 8.83594 8.48958 8.79688 8.47656C8.77083 8.45052 8.74479 8.42448 8.71875 8.39844C8.74479 8.29427 8.73177 8.22917 8.67969 8.20312C8.64062 8.17708 8.61458 8.13151 8.60156 8.06641C8.54948 7.88411 8.53646 7.78646 8.5625 7.77344C8.60156 7.7474 8.61458 7.71484 8.60156 7.67578C8.57552 7.61068 8.53646 7.55208 8.48438 7.5C8.43229 7.44792 8.39323 7.36979 8.36719 7.26562C8.21094 7.13542 8.08724 6.95312 7.99609 6.71875C8.02214 6.65365 8.04818 6.58203 8.07422 6.50391C8.10026 6.42578 8.10026 6.35417 8.07422 6.28906C8.17839 6.25 8.21745 6.17839 8.19141 6.07422C8.39974 6.02214 8.58854 5.91146 8.75781 5.74219C8.82292 5.78125 8.875 5.78776 8.91406 5.76172C8.96615 5.73568 9.02474 5.71615 9.08984 5.70312C9.18099 5.82031 9.23958 5.89193 9.26562 5.91797C9.29167 5.93099 9.30469 5.95703 9.30469 5.99609C9.35677 5.99609 9.40885 6.02214 9.46094 6.07422C9.52604 6.1263 9.57812 6.1263 9.61719 6.07422C9.60417 6.16536 9.61068 6.24349 9.63672 6.30859C9.67578 6.3737 9.68229 6.45833 9.65625 6.5625L9.98828 6.81641C10.0143 6.80339 10.0404 6.82292 10.0664 6.875C10.0924 6.92708 10.1185 6.98568 10.1445 7.05078C10.1706 7.11589 10.1901 7.17448 10.2031 7.22656C10.2292 7.27865 10.2552 7.30469 10.2812 7.30469C10.4115 7.31771 10.4896 7.39583 10.5156 7.53906C10.5547 7.66927 10.6263 7.75391 10.7305 7.79297C10.6784 7.85807 10.6849 7.96224 10.75 8.10547C10.8281 8.2487 10.8867 8.34635 10.9258 8.39844C10.9518 8.42448 10.9714 8.47656 10.9844 8.55469C10.9974 8.63281 11.0169 8.69141 11.043 8.73047C11.1081 8.8737 11.2057 8.97135 11.3359 9.02344C11.3359 9.10156 11.349 9.16016 11.375 9.19922C11.4141 9.23828 11.4531 9.28385 11.4922 9.33594C11.4792 9.375 11.4792 9.42057 11.4922 9.47266C11.5182 9.52474 11.5182 9.5638 11.4922 9.58984C11.5443 9.66797 11.5964 9.73958 11.6484 9.80469C11.7135 9.85677 11.7721 9.92188 11.8242 10C11.8503 10.0521 11.8633 10.1042 11.8633 10.1562C11.8633 10.2083 11.8763 10.2474 11.9023 10.2734C11.9805 10.3906 12.0391 10.4688 12.0781 10.5078C12.1172 10.5469 12.1562 10.5924 12.1953 10.6445C12.2083 10.7878 12.2409 10.9245 12.293 11.0547C12.3451 11.1849 12.4102 11.3086 12.4883 11.4258C12.4753 11.5299 12.4818 11.6341 12.5078 11.7383C12.5469 11.8294 12.5794 11.9271 12.6055 12.0312C12.6445 12.1224 12.6771 12.2201 12.7031 12.3242C12.7292 12.4154 12.7357 12.5065 12.7227 12.5977C12.7747 12.819 12.8138 13.0143 12.8398 13.1836C12.8659 13.3529 12.9245 13.4701 13.0156 13.5352C12.9635 13.5742 12.957 13.6133 12.9961 13.6523C13.0352 13.6784 13.0547 13.7109 13.0547 13.75C13.0417 13.9323 13.0547 14.0495 13.0938 14.1016C13.1328 14.1406 13.1589 14.1862 13.1719 14.2383C13.263 14.3815 13.3021 14.5052 13.2891 14.6094C13.276 14.7135 13.3216 14.7656 13.4258 14.7656C13.3867 14.8307 13.3867 14.8828 13.4258 14.9219C13.4648 14.9609 13.5039 15.0065 13.543 15.0586C13.5951 15.0326 13.6016 14.974 13.5625 14.8828C13.5365 14.7917 13.582 14.7135 13.6992 14.6484C13.6992 14.5833 13.6862 14.4857 13.6602 14.3555C13.7383 14.1992 13.7839 14.1146 13.7969 14.1016C13.8229 14.0755 13.8359 14.056 13.8359 14.043C13.849 14.0169 13.849 13.9909 13.8359 13.9648C13.8359 13.9258 13.8229 13.8672 13.7969 13.7891C13.9141 13.6849 13.9596 13.5677 13.9336 13.4375C13.9206 13.3073 13.9661 13.2096 14.0703 13.1445C14.0573 13.0404 14.0703 12.9557 14.1094 12.8906C14.1615 12.8125 14.2005 12.7279 14.2266 12.6367C14.2917 12.4674 14.3242 12.3503 14.3242 12.2852C14.3242 12.207 14.3372 12.1354 14.3633 12.0703C14.4935 11.875 14.5716 11.7188 14.5977 11.6016C14.6237 11.4714 14.6497 11.3542 14.6758 11.25C14.7409 11.224 14.793 11.1719 14.832 11.0938C14.8711 11.0026 14.8776 10.9245 14.8516 10.8594C14.9036 10.8333 14.9362 10.7943 14.9492 10.7422C14.9753 10.6771 15.0078 10.6185 15.0469 10.5664C15.0208 10.3711 15.0273 10.2734 15.0664 10.2734C15.1185 10.2604 15.1576 10.2344 15.1836 10.1953C15.1576 10.0521 15.1836 9.95443 15.2617 9.90234C15.3398 9.85026 15.3919 9.77214 15.418 9.66797C15.431 9.60286 15.4245 9.55729 15.3984 9.53125C15.3854 9.49219 15.3789 9.4401 15.3789 9.375C15.444 9.34896 15.4831 9.31641 15.4961 9.27734C15.5221 9.22526 15.5612 9.17969 15.6133 9.14062V8.88672C15.6784 8.83464 15.724 8.76953 15.75 8.69141C15.7891 8.61328 15.8411 8.54167 15.9062 8.47656L15.9844 8.24219C16.0625 8.08594 16.1602 7.97526 16.2773 7.91016C16.2773 7.84505 16.2904 7.79948 16.3164 7.77344C16.3555 7.7474 16.3685 7.70182 16.3555 7.63672C16.4336 7.6237 16.4857 7.59115 16.5117 7.53906C16.5508 7.47396 16.5833 7.40885 16.6094 7.34375C16.7135 7.31771 16.7852 7.27214 16.8242 7.20703C16.8763 7.12891 16.9284 7.05078 16.9805 6.97266C16.9935 6.90755 16.987 6.86198 16.9609 6.83594C16.9349 6.79688 16.9349 6.74479 16.9609 6.67969C17.1042 6.61458 17.2409 6.52995 17.3711 6.42578C17.5013 6.32161 17.599 6.19141 17.6641 6.03516C17.7292 5.99609 17.8008 5.96354 17.8789 5.9375C17.957 5.91146 18.0091 5.85938 18.0352 5.78125C18.2044 5.74219 18.2826 5.69661 18.2695 5.64453C18.2565 5.59245 18.2695 5.5599 18.3086 5.54688C18.3477 5.53385 18.3867 5.52734 18.4258 5.52734C18.4779 5.52734 18.5234 5.52734 18.5625 5.52734C18.6667 5.5013 18.7643 5.48177 18.8555 5.46875C18.9596 5.44271 19.0638 5.41667 19.168 5.39062C19.207 5.49479 19.2461 5.59896 19.2852 5.70312C19.3372 5.80729 19.4089 5.89193 19.5 5.95703C19.474 6.03516 19.4609 6.11979 19.4609 6.21094C19.4609 6.28906 19.4479 6.36719 19.4219 6.44531C19.4349 6.51042 19.4219 6.54948 19.3828 6.5625C19.3438 6.5625 19.3177 6.58854 19.3047 6.64062C19.2786 6.90104 19.2656 7.16146 19.2656 7.42188C19.2656 7.68229 19.2591 7.94271 19.2461 8.20312C19.2331 8.26823 19.2331 8.33984 19.2461 8.41797C19.2591 8.49609 19.2461 8.5612 19.207 8.61328C19.2721 8.74349 19.3047 8.8737 19.3047 9.00391C19.3047 9.02995 19.2917 9.0625 19.2656 9.10156C19.2526 9.14062 19.2461 9.17969 19.2461 9.21875C19.2201 9.32292 19.2135 9.42708 19.2266 9.53125C19.2396 9.6224 19.2461 9.72005 19.2461 9.82422C19.2461 9.86328 19.2331 9.90234 19.207 9.94141C19.181 9.98047 19.168 10.026 19.168 10.0781C19.168 10.1172 19.1745 10.1562 19.1875 10.1953C19.2005 10.2344 19.207 10.2734 19.207 10.3125C19.1549 10.4688 19.1289 10.5599 19.1289 10.5859C19.1419 10.599 19.1549 10.6185 19.168 10.6445C19.168 10.6966 19.1549 10.7487 19.1289 10.8008C19.1159 10.8398 19.1549 10.8724 19.2461 10.8984C19.2201 10.9635 19.181 11.0482 19.1289 11.1523C19.0768 11.2565 19.1029 11.3346 19.207 11.3867C19.181 11.569 19.181 11.7643 19.207 11.9727C19.2461 12.168 19.2591 12.3633 19.2461 12.5586C19.2331 12.6497 19.2266 12.7083 19.2266 12.7344C19.2266 12.7604 19.2266 12.7799 19.2266 12.793C19.2266 12.806 19.2266 12.8255 19.2266 12.8516C19.2396 12.8776 19.2526 12.9297 19.2656 13.0078C19.3047 13.1771 19.3112 13.3464 19.2852 13.5156C19.2721 13.6849 19.2786 13.8542 19.3047 14.0234C19.3828 14.2318 19.4284 14.4271 19.4414 14.6094C19.4544 14.7786 19.4609 14.9284 19.4609 15.0586C19.4609 15.1758 19.4609 15.2669 19.4609 15.332C19.474 15.3841 19.5 15.4688 19.5391 15.5859C19.5 15.7943 19.4935 15.944 19.5195 16.0352C19.5456 16.1263 19.526 16.224 19.4609 16.3281C19.487 16.3542 19.5 16.4128 19.5 16.5039C19.513 16.5951 19.5391 16.6797 19.5781 16.7578C19.6172 16.8229 19.6302 16.9206 19.6172 17.0508C19.6172 17.181 19.6628 17.3307 19.7539 17.5C19.7279 17.5911 19.7279 17.7018 19.7539 17.832C19.7799 17.9492 19.832 18.0404 19.9102 18.1055C19.8711 18.2487 19.9036 18.3854 20.0078 18.5156C20.112 18.6328 20.1641 18.7695 20.1641 18.9258C20.2031 18.9648 20.2357 19.0039 20.2617 19.043C20.3008 19.082 20.3464 19.1146 20.3984 19.1406C20.4375 19.2969 20.5091 19.4076 20.6133 19.4727C20.7174 19.5247 20.8281 19.5703 20.9453 19.6094C21.0625 19.6484 21.1732 19.668 21.2773 19.668C21.3945 19.668 21.4857 19.6419 21.5508 19.5898C21.6289 19.6159 21.6875 19.6419 21.7266 19.668C21.7786 19.694 21.8503 19.694 21.9414 19.668C21.9805 19.7331 22.0065 19.8047 22.0195 19.8828C22.0326 19.9479 22.0521 20.013 22.0781 20.0781ZM29.3047 20.2344C29.2396 20.2474 29.207 20.2799 29.207 20.332C29.2201 20.3971 29.2201 20.4492 29.207 20.4883C29.1419 20.5013 29.0768 20.5143 29.0117 20.5273C28.9466 20.5404 28.8945 20.5794 28.8555 20.6445C28.7904 20.6185 28.7188 20.6055 28.6406 20.6055C28.5625 20.6185 28.4974 20.599 28.4453 20.5469L28.1523 20.4883C28.0872 20.4753 28.0482 20.4492 28.0352 20.4102C28.0352 20.3711 28.0091 20.3385 27.957 20.3125C27.8008 20.2734 27.7161 20.2409 27.7031 20.2148C27.7031 20.2018 27.6901 20.1823 27.6641 20.1562C27.5078 20.0651 27.4167 19.987 27.3906 19.9219C27.3646 19.8438 27.3125 19.7917 27.2344 19.7656C27.2474 19.6094 27.2083 19.4857 27.1172 19.3945C27.0391 19.3034 26.987 19.1862 26.9609 19.043C26.9219 19.0039 26.8763 18.9714 26.8242 18.9453C26.7852 18.9062 26.7656 18.8542 26.7656 18.7891C26.7005 18.763 26.6549 18.7826 26.6289 18.8477C26.6029 18.9128 26.5768 18.9583 26.5508 18.9844C26.4727 19.0234 26.401 19.0885 26.3359 19.1797C26.2839 19.2708 26.2643 19.3294 26.2773 19.3555C26.1732 19.3945 26.082 19.4531 26.0039 19.5312C25.9258 19.6094 25.8346 19.6615 25.7305 19.6875C25.5352 19.8047 25.3919 19.8893 25.3008 19.9414C25.2096 19.9805 25.1185 20.026 25.0273 20.0781C24.9362 20.0391 24.8516 20.0326 24.7734 20.0586C24.6953 20.0846 24.6042 20.0911 24.5 20.0781C24.2786 20.013 24.1159 19.9935 24.0117 20.0195C23.9206 20.0456 23.8229 20.0326 23.7188 19.9805C23.5625 19.8763 23.4128 19.8047 23.2695 19.7656C23.1263 19.7135 23.0156 19.681 22.9375 19.668C22.8724 19.6549 22.8398 19.6289 22.8398 19.5898C22.8398 19.5508 22.8203 19.5182 22.7812 19.4922C22.6901 19.5052 22.612 19.4922 22.5469 19.4531C22.4818 19.4141 22.4102 19.349 22.332 19.2578C22.2669 19.1667 22.2018 19.069 22.1367 18.9648C22.0716 18.8607 22.013 18.763 21.9609 18.6719C21.9089 18.5677 21.8633 18.4831 21.8242 18.418C21.8372 18.3138 21.8372 18.2552 21.8242 18.2422C21.8112 18.2292 21.7982 18.2096 21.7852 18.1836C21.7591 18.0794 21.7396 17.9753 21.7266 17.8711C21.7266 17.7669 21.7135 17.6628 21.6875 17.5586C21.7656 17.5065 21.7982 17.4154 21.7852 17.2852C21.7852 17.1549 21.7917 17.0508 21.8047 16.9727C21.8307 16.8555 21.8633 16.7448 21.9023 16.6406C21.9544 16.5234 21.9935 16.4062 22.0195 16.2891C22.0456 16.1849 22.0586 16.0807 22.0586 15.9766C22.0586 15.8594 22.1107 15.7682 22.2148 15.7031C22.2409 15.5599 22.2604 15.4167 22.2734 15.2734C22.2865 15.1172 22.3125 14.9674 22.3516 14.8242C22.3776 14.7201 22.4167 14.6029 22.4688 14.4727C22.5339 14.3294 22.5273 14.2057 22.4492 14.1016C22.4883 14.0755 22.5078 14.043 22.5078 14.0039C22.5208 13.9648 22.5404 13.9323 22.5664 13.9062C22.6315 13.8281 22.6576 13.7826 22.6445 13.7695C22.6315 13.7435 22.638 13.7174 22.6641 13.6914C22.7812 13.6133 22.8659 13.5612 22.918 13.5352C22.9831 13.4961 23.0612 13.4701 23.1523 13.457C23.1914 13.4701 23.2305 13.4961 23.2695 13.5352C23.3216 13.5742 23.3607 13.6003 23.3867 13.6133C23.543 13.6393 23.6797 13.6654 23.7969 13.6914L23.9141 13.9062C23.9531 14.0104 23.9596 14.1276 23.9336 14.2578C23.9206 14.375 23.8815 14.4792 23.8164 14.5703C23.7904 14.6484 23.7773 14.7461 23.7773 14.8633C23.7904 14.9805 23.7578 15.0521 23.6797 15.0781C23.6667 15.2083 23.6602 15.3125 23.6602 15.3906C23.6732 15.4557 23.6667 15.5143 23.6406 15.5664C23.6276 15.6055 23.6016 15.6641 23.5625 15.7422C23.5365 15.8073 23.5365 15.8594 23.5625 15.8984C23.4453 16.0938 23.3607 16.2435 23.3086 16.3477C23.2695 16.4518 23.276 16.556 23.3281 16.6602C23.224 16.7253 23.1654 16.8164 23.1523 16.9336C23.1523 17.0508 23.1198 17.1484 23.0547 17.2266C23.1068 17.2786 23.1328 17.3503 23.1328 17.4414C23.1328 17.5326 23.1328 17.6237 23.1328 17.7148C23.1328 17.806 23.1393 17.8906 23.1523 17.9688C23.1784 18.0469 23.2435 18.0924 23.3477 18.1055C23.3737 18.2096 23.4128 18.3008 23.4648 18.3789C23.582 18.3919 23.6797 18.4245 23.7578 18.4766C23.849 18.5156 23.9401 18.5612 24.0312 18.6133C24.1224 18.6654 24.2135 18.7109 24.3047 18.75C24.3958 18.7891 24.513 18.8021 24.6562 18.7891C24.7214 18.776 24.7865 18.763 24.8516 18.75C24.9297 18.724 24.9948 18.6914 25.0469 18.6523C25.0859 18.5742 25.138 18.5352 25.2031 18.5352C25.2682 18.5352 25.3138 18.5091 25.3398 18.457C25.431 18.3138 25.5221 18.2096 25.6133 18.1445C25.7044 18.0664 25.7565 17.9557 25.7695 17.8125C25.9258 17.6172 26.0365 17.4479 26.1016 17.3047C26.1797 17.1484 26.2318 16.9857 26.2578 16.8164C26.2578 16.6602 26.2643 16.582 26.2773 16.582C26.2904 16.569 26.2969 16.5495 26.2969 16.5234C26.2708 16.3672 26.2643 16.2826 26.2773 16.2695C26.3034 16.2435 26.3164 16.2174 26.3164 16.1914C26.2773 16.0482 26.2643 15.9635 26.2773 15.9375C26.2904 15.8984 26.2969 15.8659 26.2969 15.8398C26.2839 15.7357 26.2643 15.638 26.2383 15.5469C26.2122 15.4557 26.2057 15.3581 26.2188 15.2539C26.2969 15.1628 26.3164 15.0977 26.2773 15.0586C26.2513 15.0065 26.2513 14.9479 26.2773 14.8828C26.1992 14.8047 26.1471 14.7396 26.1211 14.6875C26.0951 14.6354 26.082 14.5833 26.082 14.5312C26.0951 14.4792 26.1211 14.4271 26.1602 14.375C26.1992 14.3099 26.2383 14.2318 26.2773 14.1406C26.3164 13.9844 26.3424 13.8737 26.3555 13.8086C26.3685 13.7435 26.362 13.6784 26.3359 13.6133C26.401 13.6393 26.4401 13.6328 26.4531 13.5938C26.4792 13.5417 26.5117 13.5091 26.5508 13.4961C26.5768 13.4831 26.6094 13.4831 26.6484 13.4961C26.7005 13.5091 26.7396 13.5156 26.7656 13.5156C26.8177 13.5156 26.8568 13.5091 26.8828 13.4961C26.9089 13.4831 26.9479 13.4766 27 13.4766C27.1172 13.5026 27.2279 13.5417 27.332 13.5938C27.4362 13.6458 27.5404 13.7044 27.6445 13.7695C27.6576 13.8607 27.6836 13.9388 27.7227 14.0039C27.7747 14.056 27.8138 14.1211 27.8398 14.1992C27.8398 14.2383 27.8333 14.2904 27.8203 14.3555C27.8203 14.4206 27.8008 14.4661 27.7617 14.4922C27.8008 14.5312 27.8138 14.5898 27.8008 14.668C27.7878 14.7461 27.8138 14.7982 27.8789 14.8242C27.8138 14.9023 27.8008 15 27.8398 15.1172C27.8789 15.2344 27.9049 15.3125 27.918 15.3516C27.8789 15.4818 27.8659 15.5729 27.8789 15.625C27.9049 15.6771 27.918 15.7357 27.918 15.8008C27.931 15.8789 27.9245 15.957 27.8984 16.0352C27.8854 16.1133 27.8854 16.1849 27.8984 16.25C27.8984 16.3021 27.9115 16.3477 27.9375 16.3867C27.9635 16.4128 27.9766 16.4518 27.9766 16.5039C27.9766 16.543 27.9635 16.5885 27.9375 16.6406C27.9245 16.6927 27.9505 16.7318 28.0156 16.7578C27.9635 16.849 27.957 16.9206 27.9961 16.9727C28.0352 17.0247 28.0612 17.0833 28.0742 17.1484C28.0872 17.2266 28.0807 17.3047 28.0547 17.3828C28.0417 17.4609 28.0352 17.5326 28.0352 17.5977C28.0482 17.7539 28.0742 17.9036 28.1133 18.0469C28.1654 18.1771 28.2044 18.3138 28.2305 18.457C28.3216 18.5612 28.3607 18.6719 28.3477 18.7891C28.3346 18.8932 28.3932 19.0039 28.5234 19.1211C28.5755 19.1602 28.6276 19.2188 28.6797 19.2969C28.7448 19.375 28.8099 19.4271 28.875 19.4531C28.9792 19.5182 29.0378 19.5768 29.0508 19.6289C29.0638 19.681 29.1224 19.7331 29.2266 19.7852L29.3047 20.2344ZM37.0195 15.5664C37.0326 15.6706 37.026 15.8073 37 15.9766C36.987 16.1458 36.9544 16.2695 36.9023 16.3477C36.7591 16.569 36.6354 16.7188 36.5312 16.7969C36.401 16.875 36.3099 16.9271 36.2578 16.9531C36.2057 16.9792 36.1536 17.0117 36.1016 17.0508C36.0495 17.0898 35.9974 17.1289 35.9453 17.168C35.8932 17.194 35.8411 17.2005 35.7891 17.1875C35.6458 17.2786 35.5612 17.3112 35.5352 17.2852C35.5221 17.2591 35.4896 17.2461 35.4375 17.2461C35.3724 17.2852 35.3073 17.3112 35.2422 17.3242C35.1901 17.3372 35.1315 17.3503 35.0664 17.3633C34.8711 17.4414 34.7083 17.4805 34.5781 17.4805C34.4609 17.4674 34.3633 17.5065 34.2852 17.5977C34.181 17.5456 34.0703 17.5065 33.9531 17.4805C33.849 17.4414 33.7448 17.3893 33.6406 17.3242C33.6536 17.2331 33.6341 17.1549 33.582 17.0898C33.543 17.0117 33.5169 16.9271 33.5039 16.8359C33.4909 16.7839 33.4909 16.7318 33.5039 16.6797C33.5299 16.6276 33.5299 16.569 33.5039 16.5039C33.569 16.5039 33.6146 16.4844 33.6406 16.4453C33.6667 16.3932 33.6927 16.3411 33.7188 16.2891C33.7839 16.276 33.8555 16.263 33.9336 16.25C34.0117 16.237 34.0638 16.1979 34.0898 16.1328C34.1419 16.1328 34.2005 16.1393 34.2656 16.1523C34.3307 16.1523 34.3763 16.1849 34.4023 16.25C34.5586 16.1589 34.6497 16.1263 34.6758 16.1523C34.7018 16.1784 34.7344 16.1849 34.7734 16.1719C34.8776 16.1458 34.9688 16.1068 35.0469 16.0547C35.125 16.0026 35.2227 15.9766 35.3398 15.9766C35.3789 15.9115 35.4245 15.8529 35.4766 15.8008C35.5417 15.7357 35.5547 15.6576 35.5156 15.5664C35.4896 15.4232 35.4635 15.3516 35.4375 15.3516C35.4245 15.3385 35.4115 15.3255 35.3984 15.3125C35.3724 15.1432 35.3398 15.0326 35.3008 14.9805C35.2617 14.9284 35.2227 14.8763 35.1836 14.8242C35.0794 14.8503 34.9883 14.8438 34.9102 14.8047C34.832 14.7656 34.7474 14.7461 34.6562 14.7461C34.5911 14.7461 34.5391 14.7591 34.5 14.7852C34.4609 14.7982 34.4154 14.7721 34.3633 14.707C34.207 14.7461 34.1159 14.7786 34.0898 14.8047C34.0638 14.8177 34.0378 14.8242 34.0117 14.8242C33.9857 14.8242 33.9466 14.8112 33.8945 14.7852C33.8555 14.7591 33.8229 14.7721 33.7969 14.8242C33.7318 14.8372 33.6797 14.8698 33.6406 14.9219C33.6146 14.9609 33.582 15 33.543 15.0391C33.4648 15.026 33.3932 15.0326 33.3281 15.0586C33.263 15.0846 33.1914 15.0911 33.1133 15.0781C33.0091 15.1432 32.9375 15.2344 32.8984 15.3516C32.8333 15.3255 32.7812 15.3255 32.7422 15.3516C32.7031 15.3776 32.6706 15.4102 32.6445 15.4492C32.6185 15.4883 32.5859 15.5339 32.5469 15.5859C32.5078 15.625 32.4622 15.6445 32.4102 15.6445C32.3971 15.6966 32.3841 15.7422 32.3711 15.7812C32.3581 15.8073 32.3581 15.8464 32.3711 15.8984C32.306 15.9245 32.2474 15.9701 32.1953 16.0352C32.1562 16.0872 32.1042 16.1328 32.0391 16.1719C32.013 16.237 32 16.3086 32 16.3867C32 16.4648 31.987 16.543 31.9609 16.6211C31.9089 16.6992 31.8828 16.7513 31.8828 16.7773C31.8958 16.7904 31.8958 16.8099 31.8828 16.8359C31.8438 16.9531 31.8177 17.0182 31.8047 17.0312C31.7917 17.0443 31.7852 17.0573 31.7852 17.0703C31.7591 17.2526 31.7526 17.4154 31.7656 17.5586C31.7917 17.6888 31.8047 17.8255 31.8047 17.9688C31.8047 18.0469 31.8307 18.099 31.8828 18.125C31.9349 18.151 31.9609 18.1966 31.9609 18.2617C31.8828 18.2747 31.8698 18.3138 31.9219 18.3789C31.974 18.431 31.974 18.4831 31.9219 18.5352C31.9479 18.6003 31.9805 18.6914 32.0195 18.8086C32.0586 18.9128 32.1107 18.9779 32.1758 19.0039C32.2018 19.069 32.1953 19.1276 32.1562 19.1797C32.1172 19.2318 32.1107 19.3099 32.1367 19.4141C32.0195 19.5443 31.9609 19.6159 31.9609 19.6289C31.9609 19.6289 31.974 19.6745 32 19.7656C31.8307 19.7005 31.7135 19.707 31.6484 19.7852C31.5964 19.8633 31.5117 19.9284 31.3945 19.9805C31.3294 19.9414 31.2578 19.9219 31.1797 19.9219C31.1146 19.9089 31.0495 19.8828 30.9844 19.8438C30.9193 19.8047 30.8672 19.7461 30.8281 19.668C30.8021 19.5898 30.7695 19.5247 30.7305 19.4727C30.6133 19.3555 30.5547 19.2904 30.5547 19.2773C30.5547 19.2513 30.5091 19.1992 30.418 19.1211C30.4961 18.9909 30.5156 18.9193 30.4766 18.9062C30.4505 18.8802 30.431 18.8151 30.418 18.7109C30.418 18.6719 30.4245 18.6393 30.4375 18.6133C30.4505 18.5742 30.457 18.5352 30.457 18.4961C30.444 18.3659 30.444 18.2878 30.457 18.2617C30.4831 18.2227 30.4961 18.1901 30.4961 18.1641C30.5091 18.0469 30.4961 17.9297 30.457 17.8125C30.418 17.6953 30.431 17.5846 30.4961 17.4805C30.4701 17.4154 30.431 17.3633 30.3789 17.3242C30.3398 17.2852 30.3073 17.2396 30.2812 17.1875C30.3203 17.0703 30.3138 16.9531 30.2617 16.8359C30.2096 16.7057 30.1771 16.582 30.1641 16.4648C30.151 16.4258 30.151 16.3867 30.1641 16.3477C30.1771 16.2956 30.1771 16.25 30.1641 16.2109C30.099 16.0807 30.0729 16.0091 30.0859 15.9961C30.099 15.9831 30.099 15.9635 30.0859 15.9375C30.0599 15.8203 30.0273 15.7422 29.9883 15.7031C29.9492 15.651 29.9427 15.5794 29.9688 15.4883C29.9297 15.4622 29.9036 15.4362 29.8906 15.4102C29.8776 15.3711 29.8581 15.3385 29.832 15.3125C29.8451 15.1953 29.832 15.0977 29.793 15.0195C29.7669 14.9284 29.7344 14.8438 29.6953 14.7656C29.6562 14.6745 29.6237 14.5768 29.5977 14.4727C29.5716 14.3685 29.5716 14.2448 29.5977 14.1016L29.4219 13.9258C29.4479 13.7305 29.5195 13.5807 29.6367 13.4766C29.7669 13.3594 29.8646 13.2943 29.9297 13.2812C29.9948 13.2812 30.0469 13.2943 30.0859 13.3203C30.138 13.3464 30.1901 13.3724 30.2422 13.3984C30.3203 13.4245 30.4049 13.4375 30.4961 13.4375C30.6003 13.4375 30.6914 13.4635 30.7695 13.5156C30.7956 13.5547 30.8086 13.6003 30.8086 13.6523C30.8216 13.6914 30.8542 13.7174 30.9062 13.7305C30.9323 13.8867 30.9453 13.9779 30.9453 14.0039C30.9583 14.1471 30.9909 14.2969 31.043 14.4531C31.0951 14.5964 31.1341 14.694 31.1602 14.7461C31.1341 14.8763 31.1602 14.9805 31.2383 15.0586C31.2773 15.0456 31.3229 15.013 31.375 14.9609C31.4271 14.8958 31.4727 14.8307 31.5117 14.7656C31.5638 14.6875 31.6159 14.6224 31.668 14.5703C31.7201 14.5052 31.7656 14.4727 31.8047 14.4727C31.8698 14.3685 31.9544 14.2839 32.0586 14.2188C32.1628 14.1536 32.2474 14.0625 32.3125 13.9453C32.3906 13.9193 32.4688 13.8932 32.5469 13.8672C32.638 13.8411 32.6966 13.7826 32.7227 13.6914C32.7617 13.7044 32.8268 13.7044 32.918 13.6914C33.0091 13.6784 33.1068 13.6589 33.2109 13.6328C33.3151 13.5938 33.4062 13.5612 33.4844 13.5352C33.5755 13.4961 33.6341 13.457 33.6602 13.418C33.7773 13.444 33.888 13.4375 33.9922 13.3984C34.1094 13.3594 34.2331 13.3464 34.3633 13.3594C34.4284 13.3724 34.4935 13.3919 34.5586 13.418C34.6367 13.444 34.7083 13.4635 34.7734 13.4766C34.8125 13.4766 34.8516 13.4766 34.8906 13.4766C34.9427 13.4635 34.9883 13.4635 35.0273 13.4766C35.1185 13.4896 35.1836 13.5221 35.2227 13.5742C35.2747 13.6263 35.3464 13.6589 35.4375 13.6719C35.5026 13.6849 35.5742 13.6849 35.6523 13.6719C35.7435 13.6458 35.8216 13.6458 35.8867 13.6719C35.9388 13.6979 35.9779 13.7305 36.0039 13.7695C36.0299 13.8086 36.0755 13.8411 36.1406 13.8672C36.2318 13.9714 36.2969 14.043 36.3359 14.082C36.375 14.1211 36.4076 14.1602 36.4336 14.1992C36.4076 14.3424 36.4336 14.4596 36.5117 14.5508C36.5898 14.6419 36.668 14.7331 36.7461 14.8242C36.7461 14.9154 36.7591 15.013 36.7852 15.1172C36.8242 15.2083 36.8503 15.2995 36.8633 15.3906C36.8763 15.4297 36.9023 15.4622 36.9414 15.4883C36.9805 15.5013 37.0065 15.5273 37.0195 15.5664ZM43.7773 19.5703C43.7122 19.7005 43.6471 19.8307 43.582 19.9609C43.5169 20.0911 43.4062 20.1758 43.25 20.2148C43.1589 20.3581 43.0872 20.4427 43.0352 20.4688C42.9831 20.5078 42.931 20.5208 42.8789 20.5078C42.8268 20.4948 42.7682 20.4622 42.7031 20.4102C42.651 20.3711 42.5729 20.3385 42.4688 20.3125C42.4297 20.1823 42.3646 20.0781 42.2734 20C42.1953 19.9219 42.1237 19.8307 42.0586 19.7266C42.0846 19.6224 42.1042 19.5247 42.1172 19.4336C42.1432 19.3424 42.1758 19.2513 42.2148 19.1602C42.2018 19.0951 42.1628 19.069 42.0977 19.082C42.0456 19.082 42.0065 19.069 41.9805 19.043C41.9414 19.043 41.8958 19.069 41.8438 19.1211C41.7917 19.1732 41.7526 19.2122 41.7266 19.2383C41.6094 19.2643 41.5247 19.3034 41.4727 19.3555C41.4336 19.4076 41.401 19.4531 41.375 19.4922C41.2318 19.5052 41.1211 19.5443 41.043 19.6094C40.9648 19.6615 40.8542 19.6745 40.7109 19.6484C40.6589 19.6745 40.6198 19.7135 40.5938 19.7656C40.5807 19.8047 40.5612 19.8372 40.5352 19.8633C40.4049 19.9154 40.3138 19.9414 40.2617 19.9414C40.2227 19.9284 40.1901 19.9284 40.1641 19.9414C40.0599 19.9805 39.9622 20.0195 39.8711 20.0586C39.793 20.1107 39.7018 20.0977 39.5977 20.0195C39.5456 20.0846 39.4935 20.0977 39.4414 20.0586C39.3893 20.0326 39.3438 20.0456 39.3047 20.0977C39.2266 20.0846 39.168 20.0651 39.1289 20.0391C39.1029 20.013 39.0378 20.0065 38.9336 20.0195C38.8685 20.0326 38.8294 20.013 38.8164 19.9609C38.8164 19.9089 38.7904 19.8763 38.7383 19.8633C38.6862 19.8372 38.6341 19.8242 38.582 19.8242C38.543 19.8242 38.5039 19.8177 38.4648 19.8047C38.4388 19.7266 38.3932 19.6875 38.3281 19.6875C38.263 19.6875 38.2044 19.6745 38.1523 19.6484C38.1263 19.5703 38.1003 19.5378 38.0742 19.5508C38.0482 19.5508 38.0091 19.5312 37.957 19.4922C37.8789 19.4401 37.8203 19.375 37.7812 19.2969C37.7422 19.2057 37.6706 19.1471 37.5664 19.1211C37.4883 18.9909 37.4427 18.8477 37.4297 18.6914C37.4297 18.5352 37.3971 18.3919 37.332 18.2617C37.3841 18.2227 37.4167 18.1641 37.4297 18.0859C37.4427 18.0078 37.4492 17.9297 37.4492 17.8516C37.4622 17.7734 37.4753 17.7018 37.4883 17.6367C37.5143 17.5716 37.5534 17.5195 37.6055 17.4805C37.5794 17.3893 37.5859 17.3242 37.625 17.2852C37.6641 17.2331 37.6771 17.1745 37.6641 17.1094C37.7682 17.0573 37.8333 16.9727 37.8594 16.8555C37.8984 16.7253 37.9766 16.6471 38.0938 16.6211C38.0807 16.5299 38.1133 16.4258 38.1914 16.3086C38.2826 16.1784 38.3737 16.1198 38.4648 16.1328C38.5299 16.0547 38.6081 15.9896 38.6992 15.9375C38.7904 15.8724 38.8555 15.7878 38.8945 15.6836C38.9596 15.6836 39.0052 15.6576 39.0312 15.6055C39.0703 15.5534 39.1094 15.5143 39.1484 15.4883C39.1745 15.4622 39.2135 15.4557 39.2656 15.4688C39.3177 15.4688 39.3633 15.4622 39.4023 15.4492C39.4935 15.3971 39.6172 15.3581 39.7734 15.332C39.9297 15.306 40.0143 15.293 40.0273 15.293C40.1706 15.319 40.2617 15.3255 40.3008 15.3125C40.3398 15.2995 40.3724 15.2865 40.3984 15.2734C40.4896 15.3385 40.5807 15.3581 40.6719 15.332C40.776 15.293 40.8737 15.2734 40.9648 15.2734C41.1602 15.2995 41.2839 15.306 41.3359 15.293C41.401 15.2669 41.4661 15.2604 41.5312 15.2734C41.5703 15.2734 41.6094 15.2865 41.6484 15.3125C41.6875 15.3255 41.7266 15.332 41.7656 15.332C41.8568 15.3581 41.9414 15.3581 42.0195 15.332C42.1107 15.306 42.2018 15.306 42.293 15.332C42.2799 15.2148 42.2734 15.0716 42.2734 14.9023C42.2734 14.7201 42.1953 14.6094 42.0391 14.5703C42.026 14.5182 42.013 14.4792 42 14.4531C41.987 14.4141 41.9805 14.3685 41.9805 14.3164C41.9544 14.3034 41.9154 14.2773 41.8633 14.2383C41.8112 14.1992 41.7526 14.1602 41.6875 14.1211C41.6354 14.082 41.5898 14.043 41.5508 14.0039C41.5117 13.9648 41.4922 13.9323 41.4922 13.9062C41.349 13.8802 41.2122 13.8867 41.082 13.9258C40.9648 13.9518 40.8346 13.9583 40.6914 13.9453C40.6003 14.0365 40.4766 14.0951 40.3203 14.1211C40.1771 14.1471 40.0534 14.1927 39.9492 14.2578C39.8451 14.375 39.7279 14.4792 39.5977 14.5703C39.4805 14.6615 39.3633 14.7201 39.2461 14.7461C39.1289 14.7721 39.0182 14.7526 38.9141 14.6875C38.8099 14.6224 38.7122 14.4987 38.6211 14.3164C38.5951 14.2513 38.5625 14.1862 38.5234 14.1211C38.4974 14.043 38.4844 13.9714 38.4844 13.9062C38.5495 13.8021 38.5755 13.737 38.5625 13.7109C38.5625 13.6849 38.569 13.6589 38.582 13.6328C38.7122 13.5286 38.7904 13.457 38.8164 13.418C38.8424 13.3789 38.875 13.3398 38.9141 13.3008C38.9531 13.2617 38.9922 13.2292 39.0312 13.2031C39.0833 13.1771 39.1224 13.138 39.1484 13.0859C39.2266 13.0859 39.3568 13.0469 39.5391 12.9688C39.7344 12.8906 39.8841 12.8385 39.9883 12.8125C40.0534 12.7995 40.1445 12.7865 40.2617 12.7734C40.3919 12.7604 40.4831 12.7279 40.5352 12.6758C40.6133 12.7018 40.6654 12.7279 40.6914 12.7539C40.7174 12.7799 40.7826 12.7734 40.8867 12.7344C40.9258 12.7083 40.9648 12.6888 41.0039 12.6758C41.043 12.6497 41.0885 12.6302 41.1406 12.6172C41.2188 12.6042 41.2773 12.6107 41.3164 12.6367C41.3685 12.6497 41.4336 12.6172 41.5117 12.5391C41.6029 12.513 41.7005 12.5195 41.8047 12.5586C41.9089 12.5846 42.013 12.5846 42.1172 12.5586C42.1432 12.6237 42.1823 12.6562 42.2344 12.6562C42.2995 12.6562 42.319 12.7018 42.293 12.793C42.3581 12.806 42.4102 12.8385 42.4492 12.8906C42.4883 12.9297 42.5404 12.9622 42.6055 12.9883C42.6055 13.0404 42.6185 13.0794 42.6445 13.1055C42.6706 13.1315 42.7031 13.151 42.7422 13.1641C42.7812 13.1771 42.8073 13.1966 42.8203 13.2227C42.8464 13.2487 42.8464 13.2878 42.8203 13.3398C42.8854 13.418 42.9505 13.4961 43.0156 13.5742C43.0938 13.6523 43.1849 13.724 43.2891 13.7891C43.25 13.8281 43.25 13.8672 43.2891 13.9062C43.3281 13.9453 43.3477 13.9909 43.3477 14.043C43.3737 14.082 43.3867 14.1406 43.3867 14.2188C43.3867 14.2839 43.4062 14.3229 43.4453 14.3359C43.4453 14.375 43.4453 14.4401 43.4453 14.5312C43.4583 14.6094 43.4648 14.694 43.4648 14.7852C43.4779 14.8633 43.4909 14.9414 43.5039 15.0195C43.5169 15.0977 43.5299 15.1562 43.543 15.1953C43.6211 15.4036 43.6602 15.5534 43.6602 15.6445C43.6471 15.6836 43.6276 15.7227 43.6016 15.7617C43.5885 15.7878 43.569 15.8203 43.543 15.8594C43.5299 15.9245 43.5234 16.0156 43.5234 16.1328C43.5234 16.25 43.5234 16.3672 43.5234 16.4844C43.5365 16.6016 43.543 16.7188 43.543 16.8359C43.543 16.9401 43.5299 17.0182 43.5039 17.0703C43.582 17.2917 43.6146 17.526 43.6016 17.7734C43.6016 18.0208 43.6341 18.2552 43.6992 18.4766C43.6602 18.5026 43.6471 18.5482 43.6602 18.6133C43.6732 18.6784 43.6536 18.724 43.6016 18.75C43.6016 18.8021 43.6146 18.8411 43.6406 18.8672C43.6797 18.8802 43.6992 18.9128 43.6992 18.9648C43.6341 18.9648 43.6081 18.9974 43.6211 19.0625C43.6341 19.1276 43.6276 19.1732 43.6016 19.1992C43.6146 19.2643 43.6406 19.3294 43.6797 19.3945C43.7188 19.4466 43.7513 19.5052 43.7773 19.5703ZM42.2734 17.0312C42.1693 16.9271 42.0651 16.8229 41.9609 16.7188C41.8568 16.6146 41.7396 16.5299 41.6094 16.4648C41.5312 16.5039 41.4531 16.5104 41.375 16.4844C41.2969 16.4453 41.2188 16.4258 41.1406 16.4258C41.0755 16.4258 41.0104 16.4453 40.9453 16.4844C40.8802 16.5104 40.8151 16.5299 40.75 16.543C40.5807 16.5169 40.4701 16.5234 40.418 16.5625C40.3789 16.5885 40.3398 16.582 40.3008 16.543C40.2747 16.5951 40.2357 16.6341 40.1836 16.6602C40.1445 16.6862 40.112 16.7188 40.0859 16.7578H39.8125C39.7734 16.7839 39.7539 16.8229 39.7539 16.875C39.7539 16.9271 39.7214 16.9661 39.6562 16.9922C39.5651 17.0182 39.4935 17.0573 39.4414 17.1094C39.3893 17.1615 39.3242 17.194 39.2461 17.207C39.194 17.3372 39.1354 17.4609 39.0703 17.5781C39.0052 17.6953 38.9401 17.8125 38.875 17.9297C38.901 18.0339 38.901 18.112 38.875 18.1641C38.849 18.2161 38.8099 18.2878 38.7578 18.3789C38.875 18.5221 39.0052 18.6263 39.1484 18.6914C39.3047 18.7435 39.4154 18.776 39.4805 18.7891C39.5326 18.7891 39.5781 18.776 39.6172 18.75C39.6562 18.724 39.7018 18.7109 39.7539 18.7109C39.8581 18.737 39.9232 18.7435 39.9492 18.7305C39.9883 18.7044 40.0208 18.6849 40.0469 18.6719C40.151 18.6458 40.2487 18.6328 40.3398 18.6328C40.431 18.6328 40.5286 18.6328 40.6328 18.6328C40.724 18.5807 40.776 18.5352 40.7891 18.4961C40.8151 18.444 40.8477 18.4049 40.8867 18.3789H41.1211C41.0951 18.3138 41.1081 18.2812 41.1602 18.2812C41.2253 18.2682 41.2839 18.2617 41.3359 18.2617C41.401 18.1315 41.4987 18.0404 41.6289 17.9883C41.7721 17.9362 41.9023 17.8776 42.0195 17.8125C42.1107 17.7344 42.1693 17.6888 42.1953 17.6758C42.2214 17.6497 42.2474 17.6302 42.2734 17.6172C42.2734 17.513 42.2734 17.4154 42.2734 17.3242C42.2865 17.2331 42.2865 17.1354 42.2734 17.0312ZM48.6211 19.6484C48.6081 19.7005 48.6081 19.7786 48.6211 19.8828C48.6341 19.974 48.6081 20.0326 48.543 20.0586C48.569 20.1237 48.5755 20.1693 48.5625 20.1953C48.5625 20.2344 48.556 20.2865 48.543 20.3516C48.4388 20.3516 48.3672 20.3841 48.3281 20.4492C48.2891 20.5273 48.224 20.5794 48.1328 20.6055C48.0807 20.5794 48.0221 20.5599 47.957 20.5469C47.8919 20.5469 47.8398 20.5208 47.8008 20.4688C47.7617 20.4948 47.7161 20.5013 47.6641 20.4883C47.625 20.4753 47.5794 20.4688 47.5273 20.4688C47.4883 20.4688 47.4492 20.4688 47.4102 20.4688C47.3841 20.4818 47.3516 20.4818 47.3125 20.4688C47.2474 20.4818 47.1823 20.4688 47.1172 20.4297C47.0651 20.3906 47.0195 20.3646 46.9805 20.3516C46.9284 20.3385 46.8698 20.3385 46.8047 20.3516C46.7526 20.3646 46.707 20.3516 46.668 20.3125C46.6159 20.2474 46.5703 20.2148 46.5312 20.2148C46.5052 20.2279 46.4792 20.2214 46.4531 20.1953C46.388 20.1693 46.3229 20.1237 46.2578 20.0586C46.2057 20.0065 46.1471 19.9674 46.082 19.9414L45.9648 19.707C45.9128 19.7331 45.8737 19.7396 45.8477 19.7266C45.8216 19.7005 45.7826 19.6875 45.7305 19.6875C45.7044 19.5833 45.6914 19.4922 45.6914 19.4141C45.6914 19.3359 45.6589 19.2643 45.5938 19.1992C45.5547 19.1602 45.5286 19.1146 45.5156 19.0625C45.5026 18.9974 45.4766 18.9388 45.4375 18.8867C45.4115 18.8216 45.4049 18.763 45.418 18.7109C45.431 18.6458 45.4245 18.5807 45.3984 18.5156C45.3724 18.4505 45.3398 18.3919 45.3008 18.3398C45.2747 18.2747 45.2617 18.2096 45.2617 18.1445C45.2617 18.0664 45.2682 18.0013 45.2812 17.9492C45.3073 17.8841 45.3268 17.819 45.3398 17.7539C45.3659 17.6888 45.3724 17.6237 45.3594 17.5586C45.3594 17.4935 45.3333 17.4154 45.2812 17.3242C45.3333 17.2201 45.3464 17.1224 45.3203 17.0312C45.2943 16.9271 45.2747 16.8229 45.2617 16.7188C45.2487 16.6927 45.2487 16.6602 45.2617 16.6211C45.2747 16.569 45.2747 16.5299 45.2617 16.5039C45.2487 16.3477 45.2487 16.2305 45.2617 16.1523C45.2747 16.0742 45.2812 16.0026 45.2812 15.9375C45.2812 15.8724 45.2747 15.8138 45.2617 15.7617C45.2487 15.6966 45.2487 15.6315 45.2617 15.5664C45.2617 15.4753 45.2747 15.3971 45.3008 15.332C45.3268 15.2539 45.3203 15.1693 45.2812 15.0781C45.3333 15.0521 45.3594 15.013 45.3594 14.9609C45.3594 14.9089 45.3724 14.8698 45.3984 14.8438C45.3594 14.6354 45.3398 14.4792 45.3398 14.375C45.3529 14.2708 45.3529 14.1667 45.3398 14.0625C45.3398 13.9453 45.3398 13.8281 45.3398 13.7109C45.3529 13.5938 45.3854 13.4831 45.4375 13.3789C45.3594 13.3138 45.3398 13.2161 45.3789 13.0859C45.418 12.9557 45.4375 12.8451 45.4375 12.7539C45.3854 12.5846 45.3659 12.487 45.3789 12.4609C45.4049 12.4349 45.4115 12.4089 45.3984 12.3828C45.3203 12.1224 45.2878 11.9271 45.3008 11.7969C45.3138 11.6667 45.3073 11.5365 45.2812 11.4062C45.2812 11.3542 45.2878 11.3021 45.3008 11.25C45.3138 11.1979 45.2878 11.1589 45.2227 11.1328C45.2227 11.0677 45.2422 11.0286 45.2812 11.0156C45.3333 10.9896 45.3594 10.944 45.3594 10.8789C45.3724 10.8138 45.3529 10.7682 45.3008 10.7422C45.2617 10.7161 45.2487 10.6706 45.2617 10.6055C45.2617 10.5143 45.2943 10.4362 45.3594 10.3711C45.4245 10.293 45.4245 10.2018 45.3594 10.0977C45.4115 10.0326 45.4635 9.99349 45.5156 9.98047C45.5807 9.95443 45.6198 9.90234 45.6328 9.82422C45.724 9.8763 45.7956 9.90234 45.8477 9.90234C45.9128 9.90234 45.9779 9.91536 46.043 9.94141C46.0951 9.99349 46.1471 10.0456 46.1992 10.0977C46.2513 10.1367 46.3099 10.1693 46.375 10.1953C46.401 10.2995 46.4206 10.3646 46.4336 10.3906C46.4466 10.4167 46.4401 10.4818 46.4141 10.5859C46.4922 10.7161 46.5117 10.7878 46.4727 10.8008C46.4466 10.8138 46.4271 10.8398 46.4141 10.8789C46.401 10.944 46.4141 11.0221 46.4531 11.1133C46.4922 11.1914 46.4792 11.263 46.4141 11.3281C46.4922 11.3932 46.5247 11.5039 46.5117 11.6602C46.4987 11.8034 46.5052 11.9271 46.5312 12.0312C46.5443 12.0964 46.5312 12.1354 46.4922 12.1484C46.4531 12.1484 46.4271 12.1745 46.4141 12.2266C46.4401 12.2917 46.4727 12.3893 46.5117 12.5195C46.5638 12.6367 46.5573 12.7279 46.4922 12.793C46.5312 12.8971 46.5508 13.0143 46.5508 13.1445C46.5638 13.2617 46.5638 13.3854 46.5508 13.5156C46.5508 13.6328 46.5508 13.7565 46.5508 13.8867C46.5638 14.0039 46.6029 14.1211 46.668 14.2383C46.6549 14.3034 46.6224 14.3424 46.5703 14.3555C46.5312 14.3685 46.5182 14.4076 46.5312 14.4727C46.5573 14.7721 46.5638 15.0586 46.5508 15.332C46.5378 15.6055 46.5182 15.8919 46.4922 16.1914C46.5573 16.3216 46.5964 16.4844 46.6094 16.6797C46.6224 16.862 46.6224 17.0247 46.6094 17.168C46.5833 17.4414 46.5898 17.6367 46.6289 17.7539C46.681 17.8581 46.694 17.9883 46.668 18.1445C46.7201 18.3789 46.7917 18.5417 46.8828 18.6328C46.974 18.7109 47.0065 18.8086 46.9805 18.9258C47.0195 19.0039 47.0521 19.043 47.0781 19.043C47.1042 19.043 47.1432 19.1146 47.1953 19.2578C47.3385 19.2578 47.4753 19.2839 47.6055 19.3359C47.7357 19.388 47.8724 19.401 48.0156 19.375C48.0807 19.375 48.1133 19.3945 48.1133 19.4336C48.1263 19.4596 48.1589 19.4792 48.2109 19.4922C48.25 19.5052 48.2891 19.5052 48.3281 19.4922C48.3672 19.4661 48.4062 19.4661 48.4453 19.4922C48.4714 19.5052 48.4974 19.5312 48.5234 19.5703C48.5495 19.6094 48.582 19.6354 48.6211 19.6484Z" fill="#E0E9F5"/>
<path d="M44.5847 25.1506C44.5927 25.523 44.9481 25.7257 45.1486 25.4721L47.5333 22.4562C47.694 22.253 47.6312 21.8927 47.4135 21.7686L44.9345 20.3549C44.7168 20.2308 44.4841 20.4227 44.4905 20.7211L44.5847 25.1506Z" fill="#E0E9F5"/>
<path d="M45.2881 22.7589C45.2377 23.196 45.6904 23.4541 45.8838 23.0986L46.1633 22.5846C46.2795 22.371 46.204 22.0619 46.0084 21.9503L45.8017 21.8325C45.6061 21.721 45.3913 21.8645 45.361 22.1271L45.2881 22.7589Z" fill="#A5121C"/>
<rect x="9" y="25" width="33" height="1" rx="0.5" fill="#D9D9D9"/>
</svg>
