<svg width="71" height="29" viewBox="0 0 71 29" fill="none" xmlns="http://www.w3.org/2000/svg">
<rect width="71" height="29" rx="5" fill="#A5121C"/>
<path d="M20.0781 20.0781C19.9479 20.1302 19.8633 20.2018 19.8242 20.293C19.7982 20.3841 19.7852 20.4362 19.7852 20.4492C19.5768 20.5664 19.3815 20.638 19.1992 20.6641C19.0169 20.6901 18.8151 20.6966 18.5938 20.6836C18.5286 20.6836 18.4896 20.6641 18.4766 20.625C18.4635 20.5859 18.4375 20.5664 18.3984 20.5664C18.3594 20.5664 18.3203 20.5664 18.2812 20.5664C18.2552 20.5794 18.2227 20.5859 18.1836 20.5859C18.0924 20.5599 18.0143 20.5273 17.9492 20.4883C17.8971 20.4622 17.819 20.4492 17.7148 20.4492C17.7148 20.3841 17.6823 20.3385 17.6172 20.3125C17.5651 20.2995 17.526 20.2604 17.5 20.1953C17.3438 20.0911 17.2331 20.013 17.168 19.9609C17.1159 19.8958 17.0768 19.8242 17.0508 19.7461C16.9727 19.7201 16.9336 19.6875 16.9336 19.6484C16.9336 19.6094 16.9206 19.5768 16.8945 19.5508C16.8555 19.4857 16.8034 19.4141 16.7383 19.3359C16.6732 19.2578 16.6276 19.1797 16.6016 19.1016C16.5885 19.0755 16.582 19.043 16.582 19.0039C16.582 18.9648 16.5755 18.9258 16.5625 18.8867C16.5365 18.8346 16.5104 18.7891 16.4844 18.75C16.4583 18.7109 16.4323 18.6654 16.4062 18.6133C16.3672 18.5352 16.3477 18.4505 16.3477 18.3594C16.3477 18.2552 16.3477 18.1576 16.3477 18.0664C16.3346 18.0013 16.3021 17.9622 16.25 17.9492C16.2109 17.9362 16.1784 17.9102 16.1523 17.8711C16.1133 17.806 16.1133 17.7604 16.1523 17.7344C16.1914 17.6953 16.2174 17.6432 16.2305 17.5781C16.2305 17.487 16.1914 17.4219 16.1133 17.3828C16.1523 17.2656 16.1523 17.1354 16.1133 16.9922C16.0872 16.8359 16.0482 16.7057 15.9961 16.6016C16.0612 16.4974 16.0807 16.3997 16.0547 16.3086C16.0286 16.2044 16.0091 16.1003 15.9961 15.9961C15.9831 15.8398 15.9635 15.7487 15.9375 15.7227C15.9245 15.6966 15.918 15.6641 15.918 15.625C15.9701 15.5469 15.9961 15.4427 15.9961 15.3125C15.9961 15.1693 15.9505 15.0716 15.8594 15.0195C15.8854 14.9154 15.918 14.8438 15.957 14.8047C15.931 14.5964 15.9115 14.3945 15.8984 14.1992C15.8984 13.9909 15.8919 13.776 15.8789 13.5547C15.8529 13.3724 15.8398 13.2552 15.8398 13.2031C15.8529 13.138 15.8594 13.0729 15.8594 13.0078C15.8464 12.9557 15.8464 12.9102 15.8594 12.8711C15.8854 12.832 15.8919 12.7865 15.8789 12.7344C15.8138 12.5 15.7878 12.3307 15.8008 12.2266C15.8138 12.1094 15.8073 11.9922 15.7812 11.875C15.7682 11.7578 15.7422 11.6732 15.7031 11.6211C15.6771 11.556 15.6641 11.4909 15.6641 11.4258C15.6641 11.3216 15.6771 11.2109 15.7031 11.0938C15.7292 10.9766 15.7422 10.8659 15.7422 10.7617C15.7422 10.6576 15.7292 10.5469 15.7031 10.4297C15.6901 10.3125 15.7161 10.2083 15.7812 10.1172C15.7682 9.97396 15.7682 9.8763 15.7812 9.82422C15.8073 9.77214 15.8333 9.72005 15.8594 9.66797C15.8333 9.57682 15.8203 9.51172 15.8203 9.47266C15.8203 9.42057 15.8203 9.38802 15.8203 9.375C15.8333 9.34896 15.8464 9.32943 15.8594 9.31641C15.8724 9.29036 15.8789 9.24479 15.8789 9.17969C15.9049 9.01042 15.8984 8.84766 15.8594 8.69141C15.8203 8.52214 15.8203 8.34635 15.8594 8.16406C15.7682 8.15104 15.6901 8.20312 15.625 8.32031C15.5599 8.42448 15.5208 8.50911 15.5078 8.57422C15.4427 8.58724 15.3906 8.6263 15.3516 8.69141C15.3255 8.74349 15.2799 8.78255 15.2148 8.80859C15.2148 8.84766 15.2018 8.88021 15.1758 8.90625C15.1628 8.93229 15.1628 8.97135 15.1758 9.02344C15.1107 9.08854 15.0651 9.15365 15.0391 9.21875C15.026 9.28385 14.987 9.34896 14.9219 9.41406C14.8958 9.46615 14.8828 9.53125 14.8828 9.60938C14.8828 9.67448 14.8438 9.72005 14.7656 9.74609C14.7786 9.8763 14.7591 9.99349 14.707 10.0977C14.668 10.2018 14.6159 10.319 14.5508 10.4492C14.4987 10.5664 14.4466 10.6836 14.3945 10.8008C14.3555 10.9049 14.3294 10.9766 14.3164 11.0156C14.2904 11.0807 14.2708 11.1458 14.2578 11.2109C14.2448 11.263 14.2122 11.3216 14.1602 11.3867C14.1341 11.582 14.0885 11.7122 14.0234 11.7773C13.9714 11.8424 13.9583 11.9271 13.9844 12.0312C13.9062 12.0052 13.8607 12.0117 13.8477 12.0508C13.8346 12.0898 13.8021 12.1224 13.75 12.1484C13.6979 12.3307 13.6784 12.4674 13.6914 12.5586C13.7044 12.6497 13.6849 12.7344 13.6328 12.8125C13.5286 12.9948 13.4375 13.1836 13.3594 13.3789C13.2943 13.5612 13.2617 13.724 13.2617 13.8672C13.2357 14.0625 13.1966 14.2188 13.1445 14.3359C13.0924 14.4401 13.0924 14.5573 13.1445 14.6875C13.1055 14.7656 13.0599 14.8568 13.0078 14.9609C12.9557 15.0521 12.9557 15.1497 13.0078 15.2539L12.8516 15.5469C12.8646 15.651 12.8646 15.7227 12.8516 15.7617C12.8516 15.7878 12.8255 15.8398 12.7734 15.918C12.7995 15.9701 12.819 16.0221 12.832 16.0742C12.8451 16.1263 12.8776 16.1654 12.9297 16.1914C12.9167 16.1914 12.8906 16.2435 12.8516 16.3477C12.8125 16.4518 12.7865 16.5104 12.7734 16.5234C12.7995 16.6797 12.7995 16.7773 12.7734 16.8164C12.7604 16.8424 12.7474 16.8685 12.7344 16.8945C12.7344 16.9466 12.7409 16.9922 12.7539 17.0312C12.7799 17.0703 12.7865 17.1159 12.7734 17.168C12.7734 17.2591 12.7539 17.3438 12.7148 17.4219C12.6758 17.5 12.6693 17.5846 12.6953 17.6758C12.6172 17.7018 12.5716 17.7539 12.5586 17.832C12.5586 17.9102 12.5326 17.9753 12.4805 18.0273C12.5065 18.0924 12.5391 18.1576 12.5781 18.2227C12.6302 18.2747 12.6107 18.3333 12.5195 18.3984C12.6107 18.5156 12.6237 18.5872 12.5586 18.6133C12.5065 18.6393 12.4674 18.6784 12.4414 18.7305C12.3372 18.9128 12.2721 19.0169 12.2461 19.043C12.2201 19.069 12.194 19.0885 12.168 19.1016C12.1549 19.1016 12.1354 19.1016 12.1094 19.1016C12.0833 19.1016 12.0312 19.1146 11.9531 19.1406C11.7839 19.2057 11.6667 19.2188 11.6016 19.1797C11.5365 19.1276 11.4518 19.1016 11.3477 19.1016C11.2826 18.9323 11.1589 18.8086 10.9766 18.7305C11.0156 18.5612 11.0156 18.4635 10.9766 18.4375C10.9505 18.4115 10.9245 18.3854 10.8984 18.3594C10.8854 18.3203 10.8854 18.2812 10.8984 18.2422C10.9115 18.1901 10.8919 18.151 10.8398 18.125C10.8919 18.0339 10.8984 17.9036 10.8594 17.7344C10.8203 17.5651 10.7487 17.4609 10.6445 17.4219C10.7096 17.3958 10.7292 17.3633 10.7031 17.3242C10.6771 17.2721 10.6836 17.2331 10.7227 17.207C10.7227 17.1419 10.7096 17.1029 10.6836 17.0898C10.6576 17.0768 10.6315 17.0508 10.6055 17.0117C10.6055 16.8945 10.599 16.8099 10.5859 16.7578C10.5859 16.6927 10.5664 16.6276 10.5273 16.5625C10.5013 16.4974 10.4688 16.4388 10.4297 16.3867C10.3906 16.3346 10.3646 16.2956 10.3516 16.2695C10.3516 16.1523 10.3385 16.0612 10.3125 15.9961C10.2995 15.931 10.2799 15.8789 10.2539 15.8398C10.2279 15.8008 10.2018 15.7682 10.1758 15.7422C10.1628 15.7031 10.1562 15.651 10.1562 15.5859C10.1432 15.5469 10.1172 15.5208 10.0781 15.5078C10.0391 15.4818 10 15.4557 9.96094 15.4297C9.98698 15.2995 9.96745 15.1693 9.90234 15.0391C9.85026 14.9089 9.82422 14.7917 9.82422 14.6875C9.82422 14.5573 9.8112 14.4596 9.78516 14.3945C9.73307 14.2643 9.71354 14.1927 9.72656 14.1797C9.73958 14.1667 9.74609 14.1471 9.74609 14.1211C9.66797 13.9388 9.62891 13.8216 9.62891 13.7695C9.62891 13.7174 9.61589 13.6589 9.58984 13.5938L9.51172 13.1055C9.48568 13.0404 9.45312 12.9883 9.41406 12.9492C9.375 12.8971 9.33594 12.8385 9.29688 12.7734C9.32292 12.6432 9.32292 12.5065 9.29688 12.3633C9.28385 12.2201 9.25781 12.0833 9.21875 11.9531C9.11458 11.8099 9.07552 11.7253 9.10156 11.6992C9.1276 11.6602 9.10807 11.6211 9.04297 11.582C9.01693 11.3867 8.97786 11.2565 8.92578 11.1914C8.8737 11.1263 8.83464 11.0547 8.80859 10.9766C8.78255 10.9115 8.76953 10.8398 8.76953 10.7617C8.76953 10.6836 8.75651 10.6185 8.73047 10.5664C8.65234 10.4883 8.60026 10.4232 8.57422 10.3711C8.5612 10.319 8.54167 10.2734 8.51562 10.2344C8.47656 10.1693 8.43099 10.1172 8.37891 10.0781C8.32682 10.0391 8.28125 9.98698 8.24219 9.92188C8.24219 10.013 8.20964 10.0911 8.14453 10.1562C8.18359 10.2604 8.19661 10.3841 8.18359 10.5273C8.18359 10.6706 8.17708 10.7943 8.16406 10.8984C8.13802 11.0156 8.125 11.1263 8.125 11.2305C8.125 11.3216 8.11849 11.3997 8.10547 11.4648C8.07943 11.556 8.06641 11.6406 8.06641 11.7188C8.06641 11.7839 8.06641 11.862 8.06641 11.9531C8.14453 12.1615 8.16406 12.2721 8.125 12.2852C8.08594 12.2982 8.06641 12.3372 8.06641 12.4023C8.05339 12.5195 8.04688 12.6367 8.04688 12.7539C8.04688 12.8711 8.04036 12.9883 8.02734 13.1055C8.04036 13.2617 8.03385 13.3659 8.00781 13.418C7.98177 13.457 7.98828 13.5156 8.02734 13.5938C7.96224 13.6068 7.92969 13.6458 7.92969 13.7109C7.92969 13.763 7.91016 13.8021 7.87109 13.8281C7.89714 13.9193 7.91667 14.0104 7.92969 14.1016C7.95573 14.1797 7.98828 14.2643 8.02734 14.3555C7.92318 14.4857 7.88411 14.5964 7.91016 14.6875C7.94922 14.7786 7.96224 14.8633 7.94922 14.9414C7.88411 15.0846 7.85807 15.1823 7.87109 15.2344C7.88411 15.2865 7.85807 15.319 7.79297 15.332C7.85807 15.4622 7.88411 15.6055 7.87109 15.7617C7.85807 15.9049 7.85807 16.0482 7.87109 16.1914C7.91016 16.3607 7.89714 16.5169 7.83203 16.6602C7.77995 16.7904 7.81901 16.9076 7.94922 17.0117C7.79297 17.2201 7.75391 17.4544 7.83203 17.7148C7.85807 17.7799 7.86458 17.832 7.85156 17.8711C7.85156 17.9102 7.88411 17.9622 7.94922 18.0273C7.92318 18.1706 7.91667 18.2552 7.92969 18.2812C7.94271 18.3073 7.9362 18.3333 7.91016 18.3594C7.97526 18.5417 7.98828 18.6458 7.94922 18.6719C7.92318 18.6849 7.89714 18.7174 7.87109 18.7695C7.87109 18.8216 7.86458 18.8932 7.85156 18.9844C7.85156 19.0625 7.87109 19.1146 7.91016 19.1406C7.83203 19.2839 7.79948 19.3815 7.8125 19.4336C7.82552 19.4857 7.80599 19.5378 7.75391 19.5898C7.72786 19.6549 7.7474 19.6875 7.8125 19.6875C7.89062 19.6875 7.92318 19.7201 7.91016 19.7852C7.83203 19.8633 7.74089 19.9219 7.63672 19.9609C7.53255 19.987 7.46094 20.0521 7.42188 20.1562C7.31771 20.1302 7.20703 20.1237 7.08984 20.1367C6.98568 20.1628 6.88151 20.1562 6.77734 20.1172C6.71224 20.0911 6.66016 20.0521 6.62109 20C6.59505 19.9479 6.54948 19.9349 6.48438 19.9609C6.44531 19.8177 6.41276 19.7396 6.38672 19.7266C6.3737 19.7135 6.36719 19.694 6.36719 19.668C6.39323 19.4987 6.39974 19.3945 6.38672 19.3555C6.3737 19.3164 6.36068 19.2839 6.34766 19.2578C6.33464 19.2188 6.32812 19.1732 6.32812 19.1211C6.32812 19.069 6.34766 18.9909 6.38672 18.8867C6.3737 18.8346 6.3737 18.7891 6.38672 18.75C6.41276 18.6979 6.43229 18.6589 6.44531 18.6328C6.45833 18.5938 6.45833 18.5677 6.44531 18.5547C6.44531 18.5286 6.41927 18.5156 6.36719 18.5156C6.40625 18.3854 6.42578 18.2943 6.42578 18.2422C6.4388 18.1901 6.4388 18.151 6.42578 18.125C6.41276 18.0859 6.39974 18.0469 6.38672 18.0078C6.3737 17.9688 6.36719 17.8971 6.36719 17.793C6.36719 17.7409 6.3737 17.6953 6.38672 17.6562C6.39974 17.6042 6.40625 17.5521 6.40625 17.5C6.40625 17.4479 6.41927 17.4089 6.44531 17.3828C6.48438 17.3568 6.4974 17.3177 6.48438 17.2656C6.47135 17.1745 6.46484 17.0833 6.46484 16.9922C6.46484 16.901 6.45833 16.8099 6.44531 16.7188C6.43229 16.5755 6.4388 16.4388 6.46484 16.3086C6.49089 16.1654 6.4974 16.0221 6.48438 15.8789C6.47135 15.7357 6.47135 15.5924 6.48438 15.4492C6.4974 15.306 6.4974 15.1628 6.48438 15.0195C6.48438 14.9935 6.47786 14.9609 6.46484 14.9219C6.45182 14.8698 6.44531 14.8307 6.44531 14.8047C6.51042 14.5964 6.53646 14.4531 6.52344 14.375C6.52344 14.2839 6.51042 14.1992 6.48438 14.1211C6.53646 13.9909 6.5625 13.8802 6.5625 13.7891C6.57552 13.6849 6.58203 13.5807 6.58203 13.4766C6.59505 13.3724 6.60156 13.2682 6.60156 13.1641C6.60156 13.0599 6.57552 12.9688 6.52344 12.8906C6.60156 12.7214 6.64062 12.6042 6.64062 12.5391C6.65365 12.4609 6.64062 12.3893 6.60156 12.3242C6.60156 12.2591 6.64062 12.1745 6.71875 12.0703C6.69271 11.9661 6.69271 11.8685 6.71875 11.7773C6.74479 11.6732 6.75781 11.569 6.75781 11.4648C6.73177 11.3086 6.73828 11.1979 6.77734 11.1328C6.81641 11.0547 6.8099 10.9896 6.75781 10.9375C6.75781 10.8984 6.76432 10.8659 6.77734 10.8398C6.80339 10.8008 6.81641 10.7617 6.81641 10.7227C6.82943 10.6706 6.82292 10.625 6.79688 10.5859C6.78385 10.5469 6.77734 10.5013 6.77734 10.4492C6.79036 10.4102 6.80339 10.3776 6.81641 10.3516C6.84245 10.3125 6.85547 10.2734 6.85547 10.2344C6.86849 10.1562 6.86849 10.0781 6.85547 10C6.84245 9.92188 6.86849 9.85026 6.93359 9.78516C6.90755 9.75911 6.88802 9.72005 6.875 9.66797C6.86198 9.60286 6.84245 9.55078 6.81641 9.51172C6.86849 9.38151 6.88151 9.3099 6.85547 9.29688C6.84245 9.27083 6.82943 9.24479 6.81641 9.21875C6.84245 9.01042 6.84896 8.8737 6.83594 8.80859C6.82292 8.74349 6.82943 8.66536 6.85547 8.57422C6.85547 8.52214 6.83594 8.48958 6.79688 8.47656C6.77083 8.45052 6.74479 8.42448 6.71875 8.39844C6.74479 8.29427 6.73177 8.22917 6.67969 8.20312C6.64062 8.17708 6.61458 8.13151 6.60156 8.06641C6.54948 7.88411 6.53646 7.78646 6.5625 7.77344C6.60156 7.7474 6.61458 7.71484 6.60156 7.67578C6.57552 7.61068 6.53646 7.55208 6.48438 7.5C6.43229 7.44792 6.39323 7.36979 6.36719 7.26562C6.21094 7.13542 6.08724 6.95312 5.99609 6.71875C6.02214 6.65365 6.04818 6.58203 6.07422 6.50391C6.10026 6.42578 6.10026 6.35417 6.07422 6.28906C6.17839 6.25 6.21745 6.17839 6.19141 6.07422C6.39974 6.02214 6.58854 5.91146 6.75781 5.74219C6.82292 5.78125 6.875 5.78776 6.91406 5.76172C6.96615 5.73568 7.02474 5.71615 7.08984 5.70312C7.18099 5.82031 7.23958 5.89193 7.26562 5.91797C7.29167 5.93099 7.30469 5.95703 7.30469 5.99609C7.35677 5.99609 7.40885 6.02214 7.46094 6.07422C7.52604 6.1263 7.57812 6.1263 7.61719 6.07422C7.60417 6.16536 7.61068 6.24349 7.63672 6.30859C7.67578 6.3737 7.68229 6.45833 7.65625 6.5625L7.98828 6.81641C8.01432 6.80339 8.04036 6.82292 8.06641 6.875C8.09245 6.92708 8.11849 6.98568 8.14453 7.05078C8.17057 7.11589 8.1901 7.17448 8.20312 7.22656C8.22917 7.27865 8.25521 7.30469 8.28125 7.30469C8.41146 7.31771 8.48958 7.39583 8.51562 7.53906C8.55469 7.66927 8.6263 7.75391 8.73047 7.79297C8.67839 7.85807 8.6849 7.96224 8.75 8.10547C8.82812 8.2487 8.88672 8.34635 8.92578 8.39844C8.95182 8.42448 8.97135 8.47656 8.98438 8.55469C8.9974 8.63281 9.01693 8.69141 9.04297 8.73047C9.10807 8.8737 9.20573 8.97135 9.33594 9.02344C9.33594 9.10156 9.34896 9.16016 9.375 9.19922C9.41406 9.23828 9.45312 9.28385 9.49219 9.33594C9.47917 9.375 9.47917 9.42057 9.49219 9.47266C9.51823 9.52474 9.51823 9.5638 9.49219 9.58984C9.54427 9.66797 9.59635 9.73958 9.64844 9.80469C9.71354 9.85677 9.77214 9.92188 9.82422 10C9.85026 10.0521 9.86328 10.1042 9.86328 10.1562C9.86328 10.2083 9.8763 10.2474 9.90234 10.2734C9.98047 10.3906 10.0391 10.4688 10.0781 10.5078C10.1172 10.5469 10.1562 10.5924 10.1953 10.6445C10.2083 10.7878 10.2409 10.9245 10.293 11.0547C10.3451 11.1849 10.4102 11.3086 10.4883 11.4258C10.4753 11.5299 10.4818 11.6341 10.5078 11.7383C10.5469 11.8294 10.5794 11.9271 10.6055 12.0312C10.6445 12.1224 10.6771 12.2201 10.7031 12.3242C10.7292 12.4154 10.7357 12.5065 10.7227 12.5977C10.7747 12.819 10.8138 13.0143 10.8398 13.1836C10.8659 13.3529 10.9245 13.4701 11.0156 13.5352C10.9635 13.5742 10.957 13.6133 10.9961 13.6523C11.0352 13.6784 11.0547 13.7109 11.0547 13.75C11.0417 13.9323 11.0547 14.0495 11.0938 14.1016C11.1328 14.1406 11.1589 14.1862 11.1719 14.2383C11.263 14.3815 11.3021 14.5052 11.2891 14.6094C11.276 14.7135 11.3216 14.7656 11.4258 14.7656C11.3867 14.8307 11.3867 14.8828 11.4258 14.9219C11.4648 14.9609 11.5039 15.0065 11.543 15.0586C11.5951 15.0326 11.6016 14.974 11.5625 14.8828C11.5365 14.7917 11.582 14.7135 11.6992 14.6484C11.6992 14.5833 11.6862 14.4857 11.6602 14.3555C11.7383 14.1992 11.7839 14.1146 11.7969 14.1016C11.8229 14.0755 11.8359 14.056 11.8359 14.043C11.849 14.0169 11.849 13.9909 11.8359 13.9648C11.8359 13.9258 11.8229 13.8672 11.7969 13.7891C11.9141 13.6849 11.9596 13.5677 11.9336 13.4375C11.9206 13.3073 11.9661 13.2096 12.0703 13.1445C12.0573 13.0404 12.0703 12.9557 12.1094 12.8906C12.1615 12.8125 12.2005 12.7279 12.2266 12.6367C12.2917 12.4674 12.3242 12.3503 12.3242 12.2852C12.3242 12.207 12.3372 12.1354 12.3633 12.0703C12.4935 11.875 12.5716 11.7188 12.5977 11.6016C12.6237 11.4714 12.6497 11.3542 12.6758 11.25C12.7409 11.224 12.793 11.1719 12.832 11.0938C12.8711 11.0026 12.8776 10.9245 12.8516 10.8594C12.9036 10.8333 12.9362 10.7943 12.9492 10.7422C12.9753 10.6771 13.0078 10.6185 13.0469 10.5664C13.0208 10.3711 13.0273 10.2734 13.0664 10.2734C13.1185 10.2604 13.1576 10.2344 13.1836 10.1953C13.1576 10.0521 13.1836 9.95443 13.2617 9.90234C13.3398 9.85026 13.3919 9.77214 13.418 9.66797C13.431 9.60286 13.4245 9.55729 13.3984 9.53125C13.3854 9.49219 13.3789 9.4401 13.3789 9.375C13.444 9.34896 13.4831 9.31641 13.4961 9.27734C13.5221 9.22526 13.5612 9.17969 13.6133 9.14062V8.88672C13.6784 8.83464 13.724 8.76953 13.75 8.69141C13.7891 8.61328 13.8411 8.54167 13.9062 8.47656L13.9844 8.24219C14.0625 8.08594 14.1602 7.97526 14.2773 7.91016C14.2773 7.84505 14.2904 7.79948 14.3164 7.77344C14.3555 7.7474 14.3685 7.70182 14.3555 7.63672C14.4336 7.6237 14.4857 7.59115 14.5117 7.53906C14.5508 7.47396 14.5833 7.40885 14.6094 7.34375C14.7135 7.31771 14.7852 7.27214 14.8242 7.20703C14.8763 7.12891 14.9284 7.05078 14.9805 6.97266C14.9935 6.90755 14.987 6.86198 14.9609 6.83594C14.9349 6.79688 14.9349 6.74479 14.9609 6.67969C15.1042 6.61458 15.2409 6.52995 15.3711 6.42578C15.5013 6.32161 15.599 6.19141 15.6641 6.03516C15.7292 5.99609 15.8008 5.96354 15.8789 5.9375C15.957 5.91146 16.0091 5.85938 16.0352 5.78125C16.2044 5.74219 16.2826 5.69661 16.2695 5.64453C16.2565 5.59245 16.2695 5.5599 16.3086 5.54688C16.3477 5.53385 16.3867 5.52734 16.4258 5.52734C16.4779 5.52734 16.5234 5.52734 16.5625 5.52734C16.6667 5.5013 16.7643 5.48177 16.8555 5.46875C16.9596 5.44271 17.0638 5.41667 17.168 5.39062C17.207 5.49479 17.2461 5.59896 17.2852 5.70312C17.3372 5.80729 17.4089 5.89193 17.5 5.95703C17.474 6.03516 17.4609 6.11979 17.4609 6.21094C17.4609 6.28906 17.4479 6.36719 17.4219 6.44531C17.4349 6.51042 17.4219 6.54948 17.3828 6.5625C17.3438 6.5625 17.3177 6.58854 17.3047 6.64062C17.2786 6.90104 17.2656 7.16146 17.2656 7.42188C17.2656 7.68229 17.2591 7.94271 17.2461 8.20312C17.2331 8.26823 17.2331 8.33984 17.2461 8.41797C17.2591 8.49609 17.2461 8.5612 17.207 8.61328C17.2721 8.74349 17.3047 8.8737 17.3047 9.00391C17.3047 9.02995 17.2917 9.0625 17.2656 9.10156C17.2526 9.14062 17.2461 9.17969 17.2461 9.21875C17.2201 9.32292 17.2135 9.42708 17.2266 9.53125C17.2396 9.6224 17.2461 9.72005 17.2461 9.82422C17.2461 9.86328 17.2331 9.90234 17.207 9.94141C17.181 9.98047 17.168 10.026 17.168 10.0781C17.168 10.1172 17.1745 10.1562 17.1875 10.1953C17.2005 10.2344 17.207 10.2734 17.207 10.3125C17.1549 10.4688 17.1289 10.5599 17.1289 10.5859C17.1419 10.599 17.1549 10.6185 17.168 10.6445C17.168 10.6966 17.1549 10.7487 17.1289 10.8008C17.1159 10.8398 17.1549 10.8724 17.2461 10.8984C17.2201 10.9635 17.181 11.0482 17.1289 11.1523C17.0768 11.2565 17.1029 11.3346 17.207 11.3867C17.181 11.569 17.181 11.7643 17.207 11.9727C17.2461 12.168 17.2591 12.3633 17.2461 12.5586C17.2331 12.6497 17.2266 12.7083 17.2266 12.7344C17.2266 12.7604 17.2266 12.7799 17.2266 12.793C17.2266 12.806 17.2266 12.8255 17.2266 12.8516C17.2396 12.8776 17.2526 12.9297 17.2656 13.0078C17.3047 13.1771 17.3112 13.3464 17.2852 13.5156C17.2721 13.6849 17.2786 13.8542 17.3047 14.0234C17.3828 14.2318 17.4284 14.4271 17.4414 14.6094C17.4544 14.7786 17.4609 14.9284 17.4609 15.0586C17.4609 15.1758 17.4609 15.2669 17.4609 15.332C17.474 15.3841 17.5 15.4688 17.5391 15.5859C17.5 15.7943 17.4935 15.944 17.5195 16.0352C17.5456 16.1263 17.526 16.224 17.4609 16.3281C17.487 16.3542 17.5 16.4128 17.5 16.5039C17.513 16.5951 17.5391 16.6797 17.5781 16.7578C17.6172 16.8229 17.6302 16.9206 17.6172 17.0508C17.6172 17.181 17.6628 17.3307 17.7539 17.5C17.7279 17.5911 17.7279 17.7018 17.7539 17.832C17.7799 17.9492 17.832 18.0404 17.9102 18.1055C17.8711 18.2487 17.9036 18.3854 18.0078 18.5156C18.112 18.6328 18.1641 18.7695 18.1641 18.9258C18.2031 18.9648 18.2357 19.0039 18.2617 19.043C18.3008 19.082 18.3464 19.1146 18.3984 19.1406C18.4375 19.2969 18.5091 19.4076 18.6133 19.4727C18.7174 19.5247 18.8281 19.5703 18.9453 19.6094C19.0625 19.6484 19.1732 19.668 19.2773 19.668C19.3945 19.668 19.4857 19.6419 19.5508 19.5898C19.6289 19.6159 19.6875 19.6419 19.7266 19.668C19.7786 19.694 19.8503 19.694 19.9414 19.668C19.9805 19.7331 20.0065 19.8047 20.0195 19.8828C20.0326 19.9479 20.0521 20.013 20.0781 20.0781ZM27.3047 20.2344C27.2396 20.2474 27.207 20.2799 27.207 20.332C27.2201 20.3971 27.2201 20.4492 27.207 20.4883C27.1419 20.5013 27.0768 20.5143 27.0117 20.5273C26.9466 20.5404 26.8945 20.5794 26.8555 20.6445C26.7904 20.6185 26.7188 20.6055 26.6406 20.6055C26.5625 20.6185 26.4974 20.599 26.4453 20.5469L26.1523 20.4883C26.0872 20.4753 26.0482 20.4492 26.0352 20.4102C26.0352 20.3711 26.0091 20.3385 25.957 20.3125C25.8008 20.2734 25.7161 20.2409 25.7031 20.2148C25.7031 20.2018 25.6901 20.1823 25.6641 20.1562C25.5078 20.0651 25.4167 19.987 25.3906 19.9219C25.3646 19.8438 25.3125 19.7917 25.2344 19.7656C25.2474 19.6094 25.2083 19.4857 25.1172 19.3945C25.0391 19.3034 24.987 19.1862 24.9609 19.043C24.9219 19.0039 24.8763 18.9714 24.8242 18.9453C24.7852 18.9062 24.7656 18.8542 24.7656 18.7891C24.7005 18.763 24.6549 18.7826 24.6289 18.8477C24.6029 18.9128 24.5768 18.9583 24.5508 18.9844C24.4727 19.0234 24.401 19.0885 24.3359 19.1797C24.2839 19.2708 24.2643 19.3294 24.2773 19.3555C24.1732 19.3945 24.082 19.4531 24.0039 19.5312C23.9258 19.6094 23.8346 19.6615 23.7305 19.6875C23.5352 19.8047 23.3919 19.8893 23.3008 19.9414C23.2096 19.9805 23.1185 20.026 23.0273 20.0781C22.9362 20.0391 22.8516 20.0326 22.7734 20.0586C22.6953 20.0846 22.6042 20.0911 22.5 20.0781C22.2786 20.013 22.1159 19.9935 22.0117 20.0195C21.9206 20.0456 21.8229 20.0326 21.7188 19.9805C21.5625 19.8763 21.4128 19.8047 21.2695 19.7656C21.1263 19.7135 21.0156 19.681 20.9375 19.668C20.8724 19.6549 20.8398 19.6289 20.8398 19.5898C20.8398 19.5508 20.8203 19.5182 20.7812 19.4922C20.6901 19.5052 20.612 19.4922 20.5469 19.4531C20.4818 19.4141 20.4102 19.349 20.332 19.2578C20.2669 19.1667 20.2018 19.069 20.1367 18.9648C20.0716 18.8607 20.013 18.763 19.9609 18.6719C19.9089 18.5677 19.8633 18.4831 19.8242 18.418C19.8372 18.3138 19.8372 18.2552 19.8242 18.2422C19.8112 18.2292 19.7982 18.2096 19.7852 18.1836C19.7591 18.0794 19.7396 17.9753 19.7266 17.8711C19.7266 17.7669 19.7135 17.6628 19.6875 17.5586C19.7656 17.5065 19.7982 17.4154 19.7852 17.2852C19.7852 17.1549 19.7917 17.0508 19.8047 16.9727C19.8307 16.8555 19.8633 16.7448 19.9023 16.6406C19.9544 16.5234 19.9935 16.4062 20.0195 16.2891C20.0456 16.1849 20.0586 16.0807 20.0586 15.9766C20.0586 15.8594 20.1107 15.7682 20.2148 15.7031C20.2409 15.5599 20.2604 15.4167 20.2734 15.2734C20.2865 15.1172 20.3125 14.9674 20.3516 14.8242C20.3776 14.7201 20.4167 14.6029 20.4688 14.4727C20.5339 14.3294 20.5273 14.2057 20.4492 14.1016C20.4883 14.0755 20.5078 14.043 20.5078 14.0039C20.5208 13.9648 20.5404 13.9323 20.5664 13.9062C20.6315 13.8281 20.6576 13.7826 20.6445 13.7695C20.6315 13.7435 20.638 13.7174 20.6641 13.6914C20.7812 13.6133 20.8659 13.5612 20.918 13.5352C20.9831 13.4961 21.0612 13.4701 21.1523 13.457C21.1914 13.4701 21.2305 13.4961 21.2695 13.5352C21.3216 13.5742 21.3607 13.6003 21.3867 13.6133C21.543 13.6393 21.6797 13.6654 21.7969 13.6914L21.9141 13.9062C21.9531 14.0104 21.9596 14.1276 21.9336 14.2578C21.9206 14.375 21.8815 14.4792 21.8164 14.5703C21.7904 14.6484 21.7773 14.7461 21.7773 14.8633C21.7904 14.9805 21.7578 15.0521 21.6797 15.0781C21.6667 15.2083 21.6602 15.3125 21.6602 15.3906C21.6732 15.4557 21.6667 15.5143 21.6406 15.5664C21.6276 15.6055 21.6016 15.6641 21.5625 15.7422C21.5365 15.8073 21.5365 15.8594 21.5625 15.8984C21.4453 16.0938 21.3607 16.2435 21.3086 16.3477C21.2695 16.4518 21.276 16.556 21.3281 16.6602C21.224 16.7253 21.1654 16.8164 21.1523 16.9336C21.1523 17.0508 21.1198 17.1484 21.0547 17.2266C21.1068 17.2786 21.1328 17.3503 21.1328 17.4414C21.1328 17.5326 21.1328 17.6237 21.1328 17.7148C21.1328 17.806 21.1393 17.8906 21.1523 17.9688C21.1784 18.0469 21.2435 18.0924 21.3477 18.1055C21.3737 18.2096 21.4128 18.3008 21.4648 18.3789C21.582 18.3919 21.6797 18.4245 21.7578 18.4766C21.849 18.5156 21.9401 18.5612 22.0312 18.6133C22.1224 18.6654 22.2135 18.7109 22.3047 18.75C22.3958 18.7891 22.513 18.8021 22.6562 18.7891C22.7214 18.776 22.7865 18.763 22.8516 18.75C22.9297 18.724 22.9948 18.6914 23.0469 18.6523C23.0859 18.5742 23.138 18.5352 23.2031 18.5352C23.2682 18.5352 23.3138 18.5091 23.3398 18.457C23.431 18.3138 23.5221 18.2096 23.6133 18.1445C23.7044 18.0664 23.7565 17.9557 23.7695 17.8125C23.9258 17.6172 24.0365 17.4479 24.1016 17.3047C24.1797 17.1484 24.2318 16.9857 24.2578 16.8164C24.2578 16.6602 24.2643 16.582 24.2773 16.582C24.2904 16.569 24.2969 16.5495 24.2969 16.5234C24.2708 16.3672 24.2643 16.2826 24.2773 16.2695C24.3034 16.2435 24.3164 16.2174 24.3164 16.1914C24.2773 16.0482 24.2643 15.9635 24.2773 15.9375C24.2904 15.8984 24.2969 15.8659 24.2969 15.8398C24.2839 15.7357 24.2643 15.638 24.2383 15.5469C24.2122 15.4557 24.2057 15.3581 24.2188 15.2539C24.2969 15.1628 24.3164 15.0977 24.2773 15.0586C24.2513 15.0065 24.2513 14.9479 24.2773 14.8828C24.1992 14.8047 24.1471 14.7396 24.1211 14.6875C24.0951 14.6354 24.082 14.5833 24.082 14.5312C24.0951 14.4792 24.1211 14.4271 24.1602 14.375C24.1992 14.3099 24.2383 14.2318 24.2773 14.1406C24.3164 13.9844 24.3424 13.8737 24.3555 13.8086C24.3685 13.7435 24.362 13.6784 24.3359 13.6133C24.401 13.6393 24.4401 13.6328 24.4531 13.5938C24.4792 13.5417 24.5117 13.5091 24.5508 13.4961C24.5768 13.4831 24.6094 13.4831 24.6484 13.4961C24.7005 13.5091 24.7396 13.5156 24.7656 13.5156C24.8177 13.5156 24.8568 13.5091 24.8828 13.4961C24.9089 13.4831 24.9479 13.4766 25 13.4766C25.1172 13.5026 25.2279 13.5417 25.332 13.5938C25.4362 13.6458 25.5404 13.7044 25.6445 13.7695C25.6576 13.8607 25.6836 13.9388 25.7227 14.0039C25.7747 14.056 25.8138 14.1211 25.8398 14.1992C25.8398 14.2383 25.8333 14.2904 25.8203 14.3555C25.8203 14.4206 25.8008 14.4661 25.7617 14.4922C25.8008 14.5312 25.8138 14.5898 25.8008 14.668C25.7878 14.7461 25.8138 14.7982 25.8789 14.8242C25.8138 14.9023 25.8008 15 25.8398 15.1172C25.8789 15.2344 25.9049 15.3125 25.918 15.3516C25.8789 15.4818 25.8659 15.5729 25.8789 15.625C25.9049 15.6771 25.918 15.7357 25.918 15.8008C25.931 15.8789 25.9245 15.957 25.8984 16.0352C25.8854 16.1133 25.8854 16.1849 25.8984 16.25C25.8984 16.3021 25.9115 16.3477 25.9375 16.3867C25.9635 16.4128 25.9766 16.4518 25.9766 16.5039C25.9766 16.543 25.9635 16.5885 25.9375 16.6406C25.9245 16.6927 25.9505 16.7318 26.0156 16.7578C25.9635 16.849 25.957 16.9206 25.9961 16.9727C26.0352 17.0247 26.0612 17.0833 26.0742 17.1484C26.0872 17.2266 26.0807 17.3047 26.0547 17.3828C26.0417 17.4609 26.0352 17.5326 26.0352 17.5977C26.0482 17.7539 26.0742 17.9036 26.1133 18.0469C26.1654 18.1771 26.2044 18.3138 26.2305 18.457C26.3216 18.5612 26.3607 18.6719 26.3477 18.7891C26.3346 18.8932 26.3932 19.0039 26.5234 19.1211C26.5755 19.1602 26.6276 19.2188 26.6797 19.2969C26.7448 19.375 26.8099 19.4271 26.875 19.4531C26.9792 19.5182 27.0378 19.5768 27.0508 19.6289C27.0638 19.681 27.1224 19.7331 27.2266 19.7852L27.3047 20.2344ZM35.0195 15.5664C35.0326 15.6706 35.026 15.8073 35 15.9766C34.987 16.1458 34.9544 16.2695 34.9023 16.3477C34.7591 16.569 34.6354 16.7188 34.5312 16.7969C34.401 16.875 34.3099 16.9271 34.2578 16.9531C34.2057 16.9792 34.1536 17.0117 34.1016 17.0508C34.0495 17.0898 33.9974 17.1289 33.9453 17.168C33.8932 17.194 33.8411 17.2005 33.7891 17.1875C33.6458 17.2786 33.5612 17.3112 33.5352 17.2852C33.5221 17.2591 33.4896 17.2461 33.4375 17.2461C33.3724 17.2852 33.3073 17.3112 33.2422 17.3242C33.1901 17.3372 33.1315 17.3503 33.0664 17.3633C32.8711 17.4414 32.7083 17.4805 32.5781 17.4805C32.4609 17.4674 32.3633 17.5065 32.2852 17.5977C32.181 17.5456 32.0703 17.5065 31.9531 17.4805C31.849 17.4414 31.7448 17.3893 31.6406 17.3242C31.6536 17.2331 31.6341 17.1549 31.582 17.0898C31.543 17.0117 31.5169 16.9271 31.5039 16.8359C31.4909 16.7839 31.4909 16.7318 31.5039 16.6797C31.5299 16.6276 31.5299 16.569 31.5039 16.5039C31.569 16.5039 31.6146 16.4844 31.6406 16.4453C31.6667 16.3932 31.6927 16.3411 31.7188 16.2891C31.7839 16.276 31.8555 16.263 31.9336 16.25C32.0117 16.237 32.0638 16.1979 32.0898 16.1328C32.1419 16.1328 32.2005 16.1393 32.2656 16.1523C32.3307 16.1523 32.3763 16.1849 32.4023 16.25C32.5586 16.1589 32.6497 16.1263 32.6758 16.1523C32.7018 16.1784 32.7344 16.1849 32.7734 16.1719C32.8776 16.1458 32.9688 16.1068 33.0469 16.0547C33.125 16.0026 33.2227 15.9766 33.3398 15.9766C33.3789 15.9115 33.4245 15.8529 33.4766 15.8008C33.5417 15.7357 33.5547 15.6576 33.5156 15.5664C33.4896 15.4232 33.4635 15.3516 33.4375 15.3516C33.4245 15.3385 33.4115 15.3255 33.3984 15.3125C33.3724 15.1432 33.3398 15.0326 33.3008 14.9805C33.2617 14.9284 33.2227 14.8763 33.1836 14.8242C33.0794 14.8503 32.9883 14.8438 32.9102 14.8047C32.832 14.7656 32.7474 14.7461 32.6562 14.7461C32.5911 14.7461 32.5391 14.7591 32.5 14.7852C32.4609 14.7982 32.4154 14.7721 32.3633 14.707C32.207 14.7461 32.1159 14.7786 32.0898 14.8047C32.0638 14.8177 32.0378 14.8242 32.0117 14.8242C31.9857 14.8242 31.9466 14.8112 31.8945 14.7852C31.8555 14.7591 31.8229 14.7721 31.7969 14.8242C31.7318 14.8372 31.6797 14.8698 31.6406 14.9219C31.6146 14.9609 31.582 15 31.543 15.0391C31.4648 15.026 31.3932 15.0326 31.3281 15.0586C31.263 15.0846 31.1914 15.0911 31.1133 15.0781C31.0091 15.1432 30.9375 15.2344 30.8984 15.3516C30.8333 15.3255 30.7812 15.3255 30.7422 15.3516C30.7031 15.3776 30.6706 15.4102 30.6445 15.4492C30.6185 15.4883 30.5859 15.5339 30.5469 15.5859C30.5078 15.625 30.4622 15.6445 30.4102 15.6445C30.3971 15.6966 30.3841 15.7422 30.3711 15.7812C30.3581 15.8073 30.3581 15.8464 30.3711 15.8984C30.306 15.9245 30.2474 15.9701 30.1953 16.0352C30.1562 16.0872 30.1042 16.1328 30.0391 16.1719C30.013 16.237 30 16.3086 30 16.3867C30 16.4648 29.987 16.543 29.9609 16.6211C29.9089 16.6992 29.8828 16.7513 29.8828 16.7773C29.8958 16.7904 29.8958 16.8099 29.8828 16.8359C29.8438 16.9531 29.8177 17.0182 29.8047 17.0312C29.7917 17.0443 29.7852 17.0573 29.7852 17.0703C29.7591 17.2526 29.7526 17.4154 29.7656 17.5586C29.7917 17.6888 29.8047 17.8255 29.8047 17.9688C29.8047 18.0469 29.8307 18.099 29.8828 18.125C29.9349 18.151 29.9609 18.1966 29.9609 18.2617C29.8828 18.2747 29.8698 18.3138 29.9219 18.3789C29.974 18.431 29.974 18.4831 29.9219 18.5352C29.9479 18.6003 29.9805 18.6914 30.0195 18.8086C30.0586 18.9128 30.1107 18.9779 30.1758 19.0039C30.2018 19.069 30.1953 19.1276 30.1562 19.1797C30.1172 19.2318 30.1107 19.3099 30.1367 19.4141C30.0195 19.5443 29.9609 19.6159 29.9609 19.6289C29.9609 19.6289 29.974 19.6745 30 19.7656C29.8307 19.7005 29.7135 19.707 29.6484 19.7852C29.5964 19.8633 29.5117 19.9284 29.3945 19.9805C29.3294 19.9414 29.2578 19.9219 29.1797 19.9219C29.1146 19.9089 29.0495 19.8828 28.9844 19.8438C28.9193 19.8047 28.8672 19.7461 28.8281 19.668C28.8021 19.5898 28.7695 19.5247 28.7305 19.4727C28.6133 19.3555 28.5547 19.2904 28.5547 19.2773C28.5547 19.2513 28.5091 19.1992 28.418 19.1211C28.4961 18.9909 28.5156 18.9193 28.4766 18.9062C28.4505 18.8802 28.431 18.8151 28.418 18.7109C28.418 18.6719 28.4245 18.6393 28.4375 18.6133C28.4505 18.5742 28.457 18.5352 28.457 18.4961C28.444 18.3659 28.444 18.2878 28.457 18.2617C28.4831 18.2227 28.4961 18.1901 28.4961 18.1641C28.5091 18.0469 28.4961 17.9297 28.457 17.8125C28.418 17.6953 28.431 17.5846 28.4961 17.4805C28.4701 17.4154 28.431 17.3633 28.3789 17.3242C28.3398 17.2852 28.3073 17.2396 28.2812 17.1875C28.3203 17.0703 28.3138 16.9531 28.2617 16.8359C28.2096 16.7057 28.1771 16.582 28.1641 16.4648C28.151 16.4258 28.151 16.3867 28.1641 16.3477C28.1771 16.2956 28.1771 16.25 28.1641 16.2109C28.099 16.0807 28.0729 16.0091 28.0859 15.9961C28.099 15.9831 28.099 15.9635 28.0859 15.9375C28.0599 15.8203 28.0273 15.7422 27.9883 15.7031C27.9492 15.651 27.9427 15.5794 27.9688 15.4883C27.9297 15.4622 27.9036 15.4362 27.8906 15.4102C27.8776 15.3711 27.8581 15.3385 27.832 15.3125C27.8451 15.1953 27.832 15.0977 27.793 15.0195C27.7669 14.9284 27.7344 14.8438 27.6953 14.7656C27.6562 14.6745 27.6237 14.5768 27.5977 14.4727C27.5716 14.3685 27.5716 14.2448 27.5977 14.1016L27.4219 13.9258C27.4479 13.7305 27.5195 13.5807 27.6367 13.4766C27.7669 13.3594 27.8646 13.2943 27.9297 13.2812C27.9948 13.2812 28.0469 13.2943 28.0859 13.3203C28.138 13.3464 28.1901 13.3724 28.2422 13.3984C28.3203 13.4245 28.4049 13.4375 28.4961 13.4375C28.6003 13.4375 28.6914 13.4635 28.7695 13.5156C28.7956 13.5547 28.8086 13.6003 28.8086 13.6523C28.8216 13.6914 28.8542 13.7174 28.9062 13.7305C28.9323 13.8867 28.9453 13.9779 28.9453 14.0039C28.9583 14.1471 28.9909 14.2969 29.043 14.4531C29.0951 14.5964 29.1341 14.694 29.1602 14.7461C29.1341 14.8763 29.1602 14.9805 29.2383 15.0586C29.2773 15.0456 29.3229 15.013 29.375 14.9609C29.4271 14.8958 29.4727 14.8307 29.5117 14.7656C29.5638 14.6875 29.6159 14.6224 29.668 14.5703C29.7201 14.5052 29.7656 14.4727 29.8047 14.4727C29.8698 14.3685 29.9544 14.2839 30.0586 14.2188C30.1628 14.1536 30.2474 14.0625 30.3125 13.9453C30.3906 13.9193 30.4688 13.8932 30.5469 13.8672C30.638 13.8411 30.6966 13.7826 30.7227 13.6914C30.7617 13.7044 30.8268 13.7044 30.918 13.6914C31.0091 13.6784 31.1068 13.6589 31.2109 13.6328C31.3151 13.5938 31.4062 13.5612 31.4844 13.5352C31.5755 13.4961 31.6341 13.457 31.6602 13.418C31.7773 13.444 31.888 13.4375 31.9922 13.3984C32.1094 13.3594 32.2331 13.3464 32.3633 13.3594C32.4284 13.3724 32.4935 13.3919 32.5586 13.418C32.6367 13.444 32.7083 13.4635 32.7734 13.4766C32.8125 13.4766 32.8516 13.4766 32.8906 13.4766C32.9427 13.4635 32.9883 13.4635 33.0273 13.4766C33.1185 13.4896 33.1836 13.5221 33.2227 13.5742C33.2747 13.6263 33.3464 13.6589 33.4375 13.6719C33.5026 13.6849 33.5742 13.6849 33.6523 13.6719C33.7435 13.6458 33.8216 13.6458 33.8867 13.6719C33.9388 13.6979 33.9779 13.7305 34.0039 13.7695C34.0299 13.8086 34.0755 13.8411 34.1406 13.8672C34.2318 13.9714 34.2969 14.043 34.3359 14.082C34.375 14.1211 34.4076 14.1602 34.4336 14.1992C34.4076 14.3424 34.4336 14.4596 34.5117 14.5508C34.5898 14.6419 34.668 14.7331 34.7461 14.8242C34.7461 14.9154 34.7591 15.013 34.7852 15.1172C34.8242 15.2083 34.8503 15.2995 34.8633 15.3906C34.8763 15.4297 34.9023 15.4622 34.9414 15.4883C34.9805 15.5013 35.0065 15.5273 35.0195 15.5664ZM41.7773 19.5703C41.7122 19.7005 41.6471 19.8307 41.582 19.9609C41.5169 20.0911 41.4062 20.1758 41.25 20.2148C41.1589 20.3581 41.0872 20.4427 41.0352 20.4688C40.9831 20.5078 40.931 20.5208 40.8789 20.5078C40.8268 20.4948 40.7682 20.4622 40.7031 20.4102C40.651 20.3711 40.5729 20.3385 40.4688 20.3125C40.4297 20.1823 40.3646 20.0781 40.2734 20C40.1953 19.9219 40.1237 19.8307 40.0586 19.7266C40.0846 19.6224 40.1042 19.5247 40.1172 19.4336C40.1432 19.3424 40.1758 19.2513 40.2148 19.1602C40.2018 19.0951 40.1628 19.069 40.0977 19.082C40.0456 19.082 40.0065 19.069 39.9805 19.043C39.9414 19.043 39.8958 19.069 39.8438 19.1211C39.7917 19.1732 39.7526 19.2122 39.7266 19.2383C39.6094 19.2643 39.5247 19.3034 39.4727 19.3555C39.4336 19.4076 39.401 19.4531 39.375 19.4922C39.2318 19.5052 39.1211 19.5443 39.043 19.6094C38.9648 19.6615 38.8542 19.6745 38.7109 19.6484C38.6589 19.6745 38.6198 19.7135 38.5938 19.7656C38.5807 19.8047 38.5612 19.8372 38.5352 19.8633C38.4049 19.9154 38.3138 19.9414 38.2617 19.9414C38.2227 19.9284 38.1901 19.9284 38.1641 19.9414C38.0599 19.9805 37.9622 20.0195 37.8711 20.0586C37.793 20.1107 37.7018 20.0977 37.5977 20.0195C37.5456 20.0846 37.4935 20.0977 37.4414 20.0586C37.3893 20.0326 37.3438 20.0456 37.3047 20.0977C37.2266 20.0846 37.168 20.0651 37.1289 20.0391C37.1029 20.013 37.0378 20.0065 36.9336 20.0195C36.8685 20.0326 36.8294 20.013 36.8164 19.9609C36.8164 19.9089 36.7904 19.8763 36.7383 19.8633C36.6862 19.8372 36.6341 19.8242 36.582 19.8242C36.543 19.8242 36.5039 19.8177 36.4648 19.8047C36.4388 19.7266 36.3932 19.6875 36.3281 19.6875C36.263 19.6875 36.2044 19.6745 36.1523 19.6484C36.1263 19.5703 36.1003 19.5378 36.0742 19.5508C36.0482 19.5508 36.0091 19.5312 35.957 19.4922C35.8789 19.4401 35.8203 19.375 35.7812 19.2969C35.7422 19.2057 35.6706 19.1471 35.5664 19.1211C35.4883 18.9909 35.4427 18.8477 35.4297 18.6914C35.4297 18.5352 35.3971 18.3919 35.332 18.2617C35.3841 18.2227 35.4167 18.1641 35.4297 18.0859C35.4427 18.0078 35.4492 17.9297 35.4492 17.8516C35.4622 17.7734 35.4753 17.7018 35.4883 17.6367C35.5143 17.5716 35.5534 17.5195 35.6055 17.4805C35.5794 17.3893 35.5859 17.3242 35.625 17.2852C35.6641 17.2331 35.6771 17.1745 35.6641 17.1094C35.7682 17.0573 35.8333 16.9727 35.8594 16.8555C35.8984 16.7253 35.9766 16.6471 36.0938 16.6211C36.0807 16.5299 36.1133 16.4258 36.1914 16.3086C36.2826 16.1784 36.3737 16.1198 36.4648 16.1328C36.5299 16.0547 36.6081 15.9896 36.6992 15.9375C36.7904 15.8724 36.8555 15.7878 36.8945 15.6836C36.9596 15.6836 37.0052 15.6576 37.0312 15.6055C37.0703 15.5534 37.1094 15.5143 37.1484 15.4883C37.1745 15.4622 37.2135 15.4557 37.2656 15.4688C37.3177 15.4688 37.3633 15.4622 37.4023 15.4492C37.4935 15.3971 37.6172 15.3581 37.7734 15.332C37.9297 15.306 38.0143 15.293 38.0273 15.293C38.1706 15.319 38.2617 15.3255 38.3008 15.3125C38.3398 15.2995 38.3724 15.2865 38.3984 15.2734C38.4896 15.3385 38.5807 15.3581 38.6719 15.332C38.776 15.293 38.8737 15.2734 38.9648 15.2734C39.1602 15.2995 39.2839 15.306 39.3359 15.293C39.401 15.2669 39.4661 15.2604 39.5312 15.2734C39.5703 15.2734 39.6094 15.2865 39.6484 15.3125C39.6875 15.3255 39.7266 15.332 39.7656 15.332C39.8568 15.3581 39.9414 15.3581 40.0195 15.332C40.1107 15.306 40.2018 15.306 40.293 15.332C40.2799 15.2148 40.2734 15.0716 40.2734 14.9023C40.2734 14.7201 40.1953 14.6094 40.0391 14.5703C40.026 14.5182 40.013 14.4792 40 14.4531C39.987 14.4141 39.9805 14.3685 39.9805 14.3164C39.9544 14.3034 39.9154 14.2773 39.8633 14.2383C39.8112 14.1992 39.7526 14.1602 39.6875 14.1211C39.6354 14.082 39.5898 14.043 39.5508 14.0039C39.5117 13.9648 39.4922 13.9323 39.4922 13.9062C39.349 13.8802 39.2122 13.8867 39.082 13.9258C38.9648 13.9518 38.8346 13.9583 38.6914 13.9453C38.6003 14.0365 38.4766 14.0951 38.3203 14.1211C38.1771 14.1471 38.0534 14.1927 37.9492 14.2578C37.8451 14.375 37.7279 14.4792 37.5977 14.5703C37.4805 14.6615 37.3633 14.7201 37.2461 14.7461C37.1289 14.7721 37.0182 14.7526 36.9141 14.6875C36.8099 14.6224 36.7122 14.4987 36.6211 14.3164C36.5951 14.2513 36.5625 14.1862 36.5234 14.1211C36.4974 14.043 36.4844 13.9714 36.4844 13.9062C36.5495 13.8021 36.5755 13.737 36.5625 13.7109C36.5625 13.6849 36.569 13.6589 36.582 13.6328C36.7122 13.5286 36.7904 13.457 36.8164 13.418C36.8424 13.3789 36.875 13.3398 36.9141 13.3008C36.9531 13.2617 36.9922 13.2292 37.0312 13.2031C37.0833 13.1771 37.1224 13.138 37.1484 13.0859C37.2266 13.0859 37.3568 13.0469 37.5391 12.9688C37.7344 12.8906 37.8841 12.8385 37.9883 12.8125C38.0534 12.7995 38.1445 12.7865 38.2617 12.7734C38.3919 12.7604 38.4831 12.7279 38.5352 12.6758C38.6133 12.7018 38.6654 12.7279 38.6914 12.7539C38.7174 12.7799 38.7826 12.7734 38.8867 12.7344C38.9258 12.7083 38.9648 12.6888 39.0039 12.6758C39.043 12.6497 39.0885 12.6302 39.1406 12.6172C39.2188 12.6042 39.2773 12.6107 39.3164 12.6367C39.3685 12.6497 39.4336 12.6172 39.5117 12.5391C39.6029 12.513 39.7005 12.5195 39.8047 12.5586C39.9089 12.5846 40.013 12.5846 40.1172 12.5586C40.1432 12.6237 40.1823 12.6562 40.2344 12.6562C40.2995 12.6562 40.319 12.7018 40.293 12.793C40.3581 12.806 40.4102 12.8385 40.4492 12.8906C40.4883 12.9297 40.5404 12.9622 40.6055 12.9883C40.6055 13.0404 40.6185 13.0794 40.6445 13.1055C40.6706 13.1315 40.7031 13.151 40.7422 13.1641C40.7812 13.1771 40.8073 13.1966 40.8203 13.2227C40.8464 13.2487 40.8464 13.2878 40.8203 13.3398C40.8854 13.418 40.9505 13.4961 41.0156 13.5742C41.0938 13.6523 41.1849 13.724 41.2891 13.7891C41.25 13.8281 41.25 13.8672 41.2891 13.9062C41.3281 13.9453 41.3477 13.9909 41.3477 14.043C41.3737 14.082 41.3867 14.1406 41.3867 14.2188C41.3867 14.2839 41.4062 14.3229 41.4453 14.3359C41.4453 14.375 41.4453 14.4401 41.4453 14.5312C41.4583 14.6094 41.4648 14.694 41.4648 14.7852C41.4779 14.8633 41.4909 14.9414 41.5039 15.0195C41.5169 15.0977 41.5299 15.1562 41.543 15.1953C41.6211 15.4036 41.6602 15.5534 41.6602 15.6445C41.6471 15.6836 41.6276 15.7227 41.6016 15.7617C41.5885 15.7878 41.569 15.8203 41.543 15.8594C41.5299 15.9245 41.5234 16.0156 41.5234 16.1328C41.5234 16.25 41.5234 16.3672 41.5234 16.4844C41.5365 16.6016 41.543 16.7188 41.543 16.8359C41.543 16.9401 41.5299 17.0182 41.5039 17.0703C41.582 17.2917 41.6146 17.526 41.6016 17.7734C41.6016 18.0208 41.6341 18.2552 41.6992 18.4766C41.6602 18.5026 41.6471 18.5482 41.6602 18.6133C41.6732 18.6784 41.6536 18.724 41.6016 18.75C41.6016 18.8021 41.6146 18.8411 41.6406 18.8672C41.6797 18.8802 41.6992 18.9128 41.6992 18.9648C41.6341 18.9648 41.6081 18.9974 41.6211 19.0625C41.6341 19.1276 41.6276 19.1732 41.6016 19.1992C41.6146 19.2643 41.6406 19.3294 41.6797 19.3945C41.7188 19.4466 41.7513 19.5052 41.7773 19.5703ZM40.2734 17.0312C40.1693 16.9271 40.0651 16.8229 39.9609 16.7188C39.8568 16.6146 39.7396 16.5299 39.6094 16.4648C39.5312 16.5039 39.4531 16.5104 39.375 16.4844C39.2969 16.4453 39.2188 16.4258 39.1406 16.4258C39.0755 16.4258 39.0104 16.4453 38.9453 16.4844C38.8802 16.5104 38.8151 16.5299 38.75 16.543C38.5807 16.5169 38.4701 16.5234 38.418 16.5625C38.3789 16.5885 38.3398 16.582 38.3008 16.543C38.2747 16.5951 38.2357 16.6341 38.1836 16.6602C38.1445 16.6862 38.112 16.7188 38.0859 16.7578H37.8125C37.7734 16.7839 37.7539 16.8229 37.7539 16.875C37.7539 16.9271 37.7214 16.9661 37.6562 16.9922C37.5651 17.0182 37.4935 17.0573 37.4414 17.1094C37.3893 17.1615 37.3242 17.194 37.2461 17.207C37.194 17.3372 37.1354 17.4609 37.0703 17.5781C37.0052 17.6953 36.9401 17.8125 36.875 17.9297C36.901 18.0339 36.901 18.112 36.875 18.1641C36.849 18.2161 36.8099 18.2878 36.7578 18.3789C36.875 18.5221 37.0052 18.6263 37.1484 18.6914C37.3047 18.7435 37.4154 18.776 37.4805 18.7891C37.5326 18.7891 37.5781 18.776 37.6172 18.75C37.6562 18.724 37.7018 18.7109 37.7539 18.7109C37.8581 18.737 37.9232 18.7435 37.9492 18.7305C37.9883 18.7044 38.0208 18.6849 38.0469 18.6719C38.151 18.6458 38.2487 18.6328 38.3398 18.6328C38.431 18.6328 38.5286 18.6328 38.6328 18.6328C38.724 18.5807 38.776 18.5352 38.7891 18.4961C38.8151 18.444 38.8477 18.4049 38.8867 18.3789H39.1211C39.0951 18.3138 39.1081 18.2812 39.1602 18.2812C39.2253 18.2682 39.2839 18.2617 39.3359 18.2617C39.401 18.1315 39.4987 18.0404 39.6289 17.9883C39.7721 17.9362 39.9023 17.8776 40.0195 17.8125C40.1107 17.7344 40.1693 17.6888 40.1953 17.6758C40.2214 17.6497 40.2474 17.6302 40.2734 17.6172C40.2734 17.513 40.2734 17.4154 40.2734 17.3242C40.2865 17.2331 40.2865 17.1354 40.2734 17.0312ZM46.6211 19.6484C46.6081 19.7005 46.6081 19.7786 46.6211 19.8828C46.6341 19.974 46.6081 20.0326 46.543 20.0586C46.569 20.1237 46.5755 20.1693 46.5625 20.1953C46.5625 20.2344 46.556 20.2865 46.543 20.3516C46.4388 20.3516 46.3672 20.3841 46.3281 20.4492C46.2891 20.5273 46.224 20.5794 46.1328 20.6055C46.0807 20.5794 46.0221 20.5599 45.957 20.5469C45.8919 20.5469 45.8398 20.5208 45.8008 20.4688C45.7617 20.4948 45.7161 20.5013 45.6641 20.4883C45.625 20.4753 45.5794 20.4688 45.5273 20.4688C45.4883 20.4688 45.4492 20.4688 45.4102 20.4688C45.3841 20.4818 45.3516 20.4818 45.3125 20.4688C45.2474 20.4818 45.1823 20.4688 45.1172 20.4297C45.0651 20.3906 45.0195 20.3646 44.9805 20.3516C44.9284 20.3385 44.8698 20.3385 44.8047 20.3516C44.7526 20.3646 44.707 20.3516 44.668 20.3125C44.6159 20.2474 44.5703 20.2148 44.5312 20.2148C44.5052 20.2279 44.4792 20.2214 44.4531 20.1953C44.388 20.1693 44.3229 20.1237 44.2578 20.0586C44.2057 20.0065 44.1471 19.9674 44.082 19.9414L43.9648 19.707C43.9128 19.7331 43.8737 19.7396 43.8477 19.7266C43.8216 19.7005 43.7826 19.6875 43.7305 19.6875C43.7044 19.5833 43.6914 19.4922 43.6914 19.4141C43.6914 19.3359 43.6589 19.2643 43.5938 19.1992C43.5547 19.1602 43.5286 19.1146 43.5156 19.0625C43.5026 18.9974 43.4766 18.9388 43.4375 18.8867C43.4115 18.8216 43.4049 18.763 43.418 18.7109C43.431 18.6458 43.4245 18.5807 43.3984 18.5156C43.3724 18.4505 43.3398 18.3919 43.3008 18.3398C43.2747 18.2747 43.2617 18.2096 43.2617 18.1445C43.2617 18.0664 43.2682 18.0013 43.2812 17.9492C43.3073 17.8841 43.3268 17.819 43.3398 17.7539C43.3659 17.6888 43.3724 17.6237 43.3594 17.5586C43.3594 17.4935 43.3333 17.4154 43.2812 17.3242C43.3333 17.2201 43.3464 17.1224 43.3203 17.0312C43.2943 16.9271 43.2747 16.8229 43.2617 16.7188C43.2487 16.6927 43.2487 16.6602 43.2617 16.6211C43.2747 16.569 43.2747 16.5299 43.2617 16.5039C43.2487 16.3477 43.2487 16.2305 43.2617 16.1523C43.2747 16.0742 43.2812 16.0026 43.2812 15.9375C43.2812 15.8724 43.2747 15.8138 43.2617 15.7617C43.2487 15.6966 43.2487 15.6315 43.2617 15.5664C43.2617 15.4753 43.2747 15.3971 43.3008 15.332C43.3268 15.2539 43.3203 15.1693 43.2812 15.0781C43.3333 15.0521 43.3594 15.013 43.3594 14.9609C43.3594 14.9089 43.3724 14.8698 43.3984 14.8438C43.3594 14.6354 43.3398 14.4792 43.3398 14.375C43.3529 14.2708 43.3529 14.1667 43.3398 14.0625C43.3398 13.9453 43.3398 13.8281 43.3398 13.7109C43.3529 13.5938 43.3854 13.4831 43.4375 13.3789C43.3594 13.3138 43.3398 13.2161 43.3789 13.0859C43.418 12.9557 43.4375 12.8451 43.4375 12.7539C43.3854 12.5846 43.3659 12.487 43.3789 12.4609C43.4049 12.4349 43.4115 12.4089 43.3984 12.3828C43.3203 12.1224 43.2878 11.9271 43.3008 11.7969C43.3138 11.6667 43.3073 11.5365 43.2812 11.4062C43.2812 11.3542 43.2878 11.3021 43.3008 11.25C43.3138 11.1979 43.2878 11.1589 43.2227 11.1328C43.2227 11.0677 43.2422 11.0286 43.2812 11.0156C43.3333 10.9896 43.3594 10.944 43.3594 10.8789C43.3724 10.8138 43.3529 10.7682 43.3008 10.7422C43.2617 10.7161 43.2487 10.6706 43.2617 10.6055C43.2617 10.5143 43.2943 10.4362 43.3594 10.3711C43.4245 10.293 43.4245 10.2018 43.3594 10.0977C43.4115 10.0326 43.4635 9.99349 43.5156 9.98047C43.5807 9.95443 43.6198 9.90234 43.6328 9.82422C43.724 9.8763 43.7956 9.90234 43.8477 9.90234C43.9128 9.90234 43.9779 9.91536 44.043 9.94141C44.0951 9.99349 44.1471 10.0456 44.1992 10.0977C44.2513 10.1367 44.3099 10.1693 44.375 10.1953C44.401 10.2995 44.4206 10.3646 44.4336 10.3906C44.4466 10.4167 44.4401 10.4818 44.4141 10.5859C44.4922 10.7161 44.5117 10.7878 44.4727 10.8008C44.4466 10.8138 44.4271 10.8398 44.4141 10.8789C44.401 10.944 44.4141 11.0221 44.4531 11.1133C44.4922 11.1914 44.4792 11.263 44.4141 11.3281C44.4922 11.3932 44.5247 11.5039 44.5117 11.6602C44.4987 11.8034 44.5052 11.9271 44.5312 12.0312C44.5443 12.0964 44.5312 12.1354 44.4922 12.1484C44.4531 12.1484 44.4271 12.1745 44.4141 12.2266C44.4401 12.2917 44.4727 12.3893 44.5117 12.5195C44.5638 12.6367 44.5573 12.7279 44.4922 12.793C44.5312 12.8971 44.5508 13.0143 44.5508 13.1445C44.5638 13.2617 44.5638 13.3854 44.5508 13.5156C44.5508 13.6328 44.5508 13.7565 44.5508 13.8867C44.5638 14.0039 44.6029 14.1211 44.668 14.2383C44.6549 14.3034 44.6224 14.3424 44.5703 14.3555C44.5312 14.3685 44.5182 14.4076 44.5312 14.4727C44.5573 14.7721 44.5638 15.0586 44.5508 15.332C44.5378 15.6055 44.5182 15.8919 44.4922 16.1914C44.5573 16.3216 44.5964 16.4844 44.6094 16.6797C44.6224 16.862 44.6224 17.0247 44.6094 17.168C44.5833 17.4414 44.5898 17.6367 44.6289 17.7539C44.681 17.8581 44.694 17.9883 44.668 18.1445C44.7201 18.3789 44.7917 18.5417 44.8828 18.6328C44.974 18.7109 45.0065 18.8086 44.9805 18.9258C45.0195 19.0039 45.0521 19.043 45.0781 19.043C45.1042 19.043 45.1432 19.1146 45.1953 19.2578C45.3385 19.2578 45.4753 19.2839 45.6055 19.3359C45.7357 19.388 45.8724 19.401 46.0156 19.375C46.0807 19.375 46.1133 19.3945 46.1133 19.4336C46.1263 19.4596 46.1589 19.4792 46.2109 19.4922C46.25 19.5052 46.2891 19.5052 46.3281 19.4922C46.3672 19.4661 46.4062 19.4661 46.4453 19.4922C46.4714 19.5052 46.4974 19.5312 46.5234 19.5703C46.5495 19.6094 46.582 19.6354 46.6211 19.6484ZM48.5742 11.2891C48.4961 11.4323 48.457 11.543 48.457 11.6211C48.4701 11.6862 48.5026 11.7448 48.5547 11.7969C48.5417 11.849 48.5286 11.901 48.5156 11.9531C48.5026 11.9922 48.4896 12.0378 48.4766 12.0898C48.4115 12.0638 48.3203 12.0833 48.2031 12.1484C48.0859 12.2005 48.0208 12.2591 48.0078 12.3242C47.9427 12.3112 47.8711 12.3047 47.793 12.3047C47.7148 12.3047 47.6432 12.3177 47.5781 12.3438C47.513 12.3177 47.4609 12.2852 47.4219 12.2461C47.3958 12.194 47.3372 12.1745 47.2461 12.1875C47.194 12.1224 47.1484 12.0573 47.1094 11.9922C47.0703 11.9271 47.0247 11.862 46.9727 11.7969C46.9987 11.6276 46.9987 11.5299 46.9727 11.5039C46.9466 11.4779 46.9206 11.4518 46.8945 11.4258C46.8685 11.3997 46.8424 11.3672 46.8164 11.3281C46.8034 11.2891 46.8099 11.237 46.8359 11.1719C46.9661 11.1198 47.0508 11.0872 47.0898 11.0742C47.1289 11.0482 47.1615 11.0286 47.1875 11.0156C47.2135 10.9896 47.2396 10.9635 47.2656 10.9375C47.2917 10.9115 47.3307 10.8919 47.3828 10.8789C47.513 10.8138 47.5977 10.7943 47.6367 10.8203C47.6758 10.8333 47.7083 10.8398 47.7344 10.8398C47.7995 10.8398 47.8451 10.8333 47.8711 10.8203C47.8971 10.8073 47.9427 10.8138 48.0078 10.8398C48.0469 10.8659 48.0729 10.8724 48.0859 10.8594C48.099 10.8464 48.112 10.8333 48.125 10.8203C48.151 10.7943 48.1706 10.7812 48.1836 10.7812C48.2096 10.7682 48.2422 10.7812 48.2812 10.8203C48.3073 10.8464 48.3203 10.8919 48.3203 10.957C48.3333 11.0221 48.3398 11.0807 48.3398 11.1328C48.3529 11.1979 48.3919 11.224 48.457 11.2109C48.5221 11.1979 48.5612 11.224 48.5742 11.2891ZM49.9609 19.8633C49.9219 19.9544 49.8568 20.0456 49.7656 20.1367C49.6094 20.1888 49.5117 20.2344 49.4727 20.2734C49.4336 20.3125 49.401 20.3385 49.375 20.3516C49.1536 20.3646 48.9323 20.3646 48.7109 20.3516C48.5026 20.3516 48.3333 20.319 48.2031 20.2539C48.0729 20.1237 47.9688 20.0391 47.8906 20C47.8255 19.974 47.7669 19.9284 47.7148 19.8633C47.5977 19.681 47.513 19.5508 47.4609 19.4727C47.4219 19.3945 47.3958 19.3034 47.3828 19.1992C47.2396 18.8216 47.1029 18.5156 46.9727 18.2812C47.0247 18.1641 47.0508 18.0469 47.0508 17.9297C47.0508 17.7995 47.0182 17.6758 46.9531 17.5586C46.9922 17.5326 47.0182 17.5 47.0312 17.4609C47.0573 17.4219 47.0833 17.3893 47.1094 17.3633C47.0703 17.2982 47.0247 17.2005 46.9727 17.0703C46.9206 16.9271 46.9466 16.8294 47.0508 16.7773C47.0247 16.7122 47.0117 16.6211 47.0117 16.5039C47.0247 16.3737 47.0443 16.276 47.0703 16.2109C47.0703 16.1458 47.0573 16.1003 47.0312 16.0742C47.0052 16.0352 46.9792 15.9896 46.9531 15.9375C47.0052 15.8073 47.0508 15.7161 47.0898 15.6641C47.0508 15.599 47.0312 15.5143 47.0312 15.4102C47.0312 15.306 46.9987 15.2344 46.9336 15.1953C47.0247 15.0521 47.0573 14.8828 47.0312 14.6875C47.0052 14.4922 47.0312 14.3294 47.1094 14.1992C47.1354 14.1471 47.181 14.1146 47.2461 14.1016C47.3242 14.0885 47.3568 14.0299 47.3438 13.9258C47.474 13.9128 47.5911 13.9388 47.6953 14.0039C47.8125 14.069 47.9427 14.1016 48.0859 14.1016C48.0469 14.1797 48.0599 14.2188 48.125 14.2188C48.1901 14.2188 48.2422 14.2318 48.2812 14.2578C48.3203 14.2969 48.3464 14.3555 48.3594 14.4336C48.3854 14.4987 48.418 14.5573 48.457 14.6094C48.431 14.6745 48.4049 14.7331 48.3789 14.7852C48.3529 14.8372 48.3398 14.8958 48.3398 14.9609C48.3659 15.1172 48.3724 15.2148 48.3594 15.2539C48.3464 15.2799 48.3333 15.3125 48.3203 15.3516C48.3073 15.5208 48.3138 15.6901 48.3398 15.8594C48.3659 16.0286 48.3789 16.2044 48.3789 16.3867C48.3789 16.4258 48.3724 16.4648 48.3594 16.5039C48.3464 16.543 48.3398 16.582 48.3398 16.6211C48.3398 16.6732 48.3464 16.7188 48.3594 16.7578C48.3724 16.7969 48.3724 16.8424 48.3594 16.8945C48.3594 16.9857 48.3398 17.0768 48.3008 17.168C48.2747 17.2591 48.3203 17.3372 48.4375 17.4023C48.3854 17.4284 48.3659 17.474 48.3789 17.5391C48.4049 17.6042 48.418 17.6562 48.418 17.6953C48.431 17.7995 48.431 17.9232 48.418 18.0664C48.418 18.1966 48.4701 18.2943 48.5742 18.3594C48.5352 18.4505 48.5286 18.5221 48.5547 18.5742C48.5807 18.6133 48.5938 18.6719 48.5938 18.75C48.6719 18.776 48.75 18.7956 48.8281 18.8086C48.9062 18.8086 48.9844 18.8216 49.0625 18.8477C49.1536 18.8737 49.2188 18.9128 49.2578 18.9648C49.2969 19.0039 49.3685 19.0169 49.4727 19.0039C49.5247 19.082 49.5768 19.1471 49.6289 19.1992C49.681 19.2383 49.7591 19.2513 49.8633 19.2383C49.8372 19.3034 49.8372 19.3555 49.8633 19.3945C49.9023 19.4206 49.9284 19.4596 49.9414 19.5117C49.9414 19.5768 49.9219 19.6484 49.8828 19.7266C49.8438 19.7917 49.8698 19.8372 49.9609 19.8633ZM56.3477 10.4688C56.3737 10.5339 56.3411 10.612 56.25 10.7031C56.1719 10.7812 56.1198 10.8529 56.0938 10.918C55.9505 10.918 55.8138 10.9049 55.6836 10.8789C55.5664 10.8529 55.4362 10.8398 55.293 10.8398C55.2669 10.6706 55.2539 10.5664 55.2539 10.5273C55.2539 10.4883 55.2409 10.4557 55.2148 10.4297C55.2018 10.4036 55.1888 10.3841 55.1758 10.3711C55.1758 10.3581 55.1953 10.3385 55.2344 10.3125C55.1953 10.2734 55.1562 10.2409 55.1172 10.2148C55.0911 10.1758 55.0521 10.1497 55 10.1367C54.9479 10.0065 54.9089 9.92188 54.8828 9.88281C54.8568 9.83073 54.8242 9.79167 54.7852 9.76562C54.7852 9.72656 54.7852 9.6875 54.7852 9.64844C54.7852 9.59635 54.7721 9.55729 54.7461 9.53125C54.668 9.45312 54.5833 9.375 54.4922 9.29688C54.4141 9.20573 54.3229 9.13411 54.2188 9.08203C54.1406 9.10807 54.0755 9.13411 54.0234 9.16016C53.9714 9.17318 53.8997 9.17318 53.8086 9.16016C53.7565 9.17318 53.724 9.20573 53.7109 9.25781C53.6979 9.29688 53.6784 9.32943 53.6523 9.35547C53.5612 9.32943 53.4961 9.34896 53.457 9.41406C53.418 9.47917 53.3724 9.53125 53.3203 9.57031C53.1901 9.64844 53.1185 9.70052 53.1055 9.72656C53.1055 9.73958 53.0859 9.7526 53.0469 9.76562C53.0469 9.80469 53.0339 9.83724 53.0078 9.86328C52.9948 9.88932 52.9948 9.92839 53.0078 9.98047C52.9167 10.1107 52.8581 10.1823 52.832 10.1953C52.819 10.2083 52.806 10.2279 52.793 10.2539C52.7279 10.3971 52.6823 10.4753 52.6562 10.4883C52.6432 10.5013 52.6237 10.5208 52.5977 10.5469C52.5716 10.599 52.5651 10.6576 52.5781 10.7227C52.5911 10.7878 52.5651 10.8398 52.5 10.8789C52.4089 11.0612 52.3763 11.1849 52.4023 11.25C52.4284 11.3021 52.4349 11.3542 52.4219 11.4062C52.3568 11.6406 52.3372 11.8164 52.3633 11.9336C52.3893 12.0508 52.3828 12.1615 52.3438 12.2656C52.3828 12.3828 52.4349 12.4805 52.5 12.5586C52.5651 12.6367 52.5521 12.7409 52.4609 12.8711C52.487 12.9232 52.513 12.9818 52.5391 13.0469C52.5651 13.099 52.6107 13.138 52.6758 13.1641C52.7669 13.138 52.8516 13.138 52.9297 13.1641C53.0208 13.1771 53.112 13.1771 53.2031 13.1641C53.2682 13.1641 53.3203 13.1576 53.3594 13.1445C53.4115 13.1185 53.4701 13.099 53.5352 13.0859C53.5872 13.0859 53.6328 13.0924 53.6719 13.1055C53.7109 13.1055 53.7565 13.099 53.8086 13.0859C53.9648 13.0599 54.1276 13.0013 54.2969 12.9102C54.4661 13.0013 54.5768 13.0404 54.6289 13.0273C54.694 13.0143 54.7201 13.0469 54.707 13.125C54.8112 13.1901 54.8893 13.2552 54.9414 13.3203C54.9935 13.3724 55.0521 13.431 55.1172 13.4961C55.0521 13.5482 55.0391 13.6068 55.0781 13.6719C55.1172 13.724 55.1302 13.7826 55.1172 13.8477C55.1042 13.9128 55.0716 13.9648 55.0195 14.0039C54.9805 14.0299 54.974 14.0755 55 14.1406C54.9089 14.1536 54.8372 14.1862 54.7852 14.2383C54.7331 14.2773 54.681 14.3294 54.6289 14.3945C54.4596 14.4206 54.2773 14.4531 54.082 14.4922C53.8997 14.5312 53.7305 14.4987 53.5742 14.3945C53.4049 14.4727 53.2292 14.4727 53.0469 14.3945C52.9818 14.4206 52.9557 14.4727 52.9688 14.5508C52.9948 14.6159 53.0078 14.681 53.0078 14.7461C53.0208 14.7852 53.0208 14.8242 53.0078 14.8633C53.0078 14.8893 53.0078 14.9219 53.0078 14.9609C53.0339 15.0651 53.0664 15.1562 53.1055 15.2344C53.1576 15.2995 53.1901 15.3841 53.2031 15.4883C53.2031 15.5404 53.2227 15.5794 53.2617 15.6055C53.3138 15.6315 53.3464 15.6706 53.3594 15.7227C53.3984 15.7878 53.4049 15.8529 53.3789 15.918C53.3529 15.9701 53.3464 16.0026 53.3594 16.0156C53.3984 16.1719 53.431 16.2695 53.457 16.3086C53.4831 16.3477 53.4961 16.3867 53.4961 16.4258C53.4831 16.556 53.4896 16.6276 53.5156 16.6406C53.5547 16.6536 53.5612 16.6797 53.5352 16.7188C53.4961 16.7578 53.4831 16.8164 53.4961 16.8945C53.5091 16.9596 53.4961 17.0182 53.457 17.0703C53.5352 17.2526 53.5742 17.4023 53.5742 17.5195C53.5872 17.6367 53.5938 17.7539 53.5938 17.8711C53.5938 17.9883 53.5872 18.099 53.5742 18.2031C53.5612 18.3073 53.5156 18.3919 53.4375 18.457C53.4635 18.4831 53.4701 18.5286 53.457 18.5938C53.457 18.6458 53.4831 18.6849 53.5352 18.7109C53.4701 18.737 53.4375 18.8216 53.4375 18.9648C53.4505 19.1081 53.4505 19.2122 53.4375 19.2773C53.4245 19.3164 53.4049 19.3555 53.3789 19.3945C53.3529 19.4206 53.3333 19.4531 53.3203 19.4922C53.3073 19.5312 53.3073 19.5833 53.3203 19.6484C53.3333 19.7005 53.3073 19.7266 53.2422 19.7266C53.2943 19.7917 53.2943 19.8568 53.2422 19.9219C53.2031 19.987 53.1901 20.0586 53.2031 20.1367C53.138 20.1888 53.0729 20.2344 53.0078 20.2734C52.9427 20.3125 52.8971 20.3776 52.8711 20.4688C52.806 20.4818 52.7344 20.5013 52.6562 20.5273C52.5911 20.5664 52.526 20.5859 52.4609 20.5859C52.3568 20.5729 52.2721 20.5339 52.207 20.4688C52.1419 20.4167 52.0638 20.3776 51.9727 20.3516C51.9987 20.2734 51.9922 20.1953 51.9531 20.1172C51.9271 20.0391 51.8815 19.9674 51.8164 19.9023C51.7773 19.7331 51.7904 19.6159 51.8555 19.5508C51.9206 19.4857 51.9466 19.3945 51.9336 19.2773C51.9987 19.2513 52.0312 19.2057 52.0312 19.1406C52.0443 19.0755 52.0833 19.0299 52.1484 19.0039C52.1875 18.7695 52.1745 18.5872 52.1094 18.457C52.1745 18.2617 52.2005 18.112 52.1875 18.0078C52.1745 17.8906 52.2005 17.7995 52.2656 17.7344C52.2266 17.6693 52.2135 17.5977 52.2266 17.5195C52.2396 17.4414 52.2135 17.3633 52.1484 17.2852C52.2135 17.1419 52.2331 17.0638 52.207 17.0508C52.194 17.0378 52.1875 17.0182 52.1875 16.9922C52.1745 16.8099 52.168 16.6341 52.168 16.4648C52.168 16.2956 52.1354 16.1198 52.0703 15.9375C51.9922 15.8333 51.9596 15.7812 51.9727 15.7812C51.9857 15.7682 51.9987 15.7487 52.0117 15.7227C51.9596 15.6966 51.9271 15.6576 51.9141 15.6055C51.9141 15.5404 51.8815 15.5013 51.8164 15.4883C51.7904 15.3971 51.7773 15.2995 51.7773 15.1953C51.7904 15.0911 51.7773 15 51.7383 14.9219C51.7122 14.8828 51.6862 14.8503 51.6602 14.8242C51.6341 14.7852 51.6146 14.7461 51.6016 14.707C51.5495 14.5247 51.4974 14.4141 51.4453 14.375C51.4062 14.3359 51.3672 14.2969 51.3281 14.2578C51.1849 14.2969 51.0352 14.3294 50.8789 14.3555C50.7227 14.3685 50.5729 14.3359 50.4297 14.2578C50.3646 14.2448 50.319 14.2643 50.293 14.3164C50.2799 14.3555 50.2409 14.3685 50.1758 14.3555C50.1628 14.2643 50.1172 14.2188 50.0391 14.2188C49.974 14.2057 49.9154 14.1797 49.8633 14.1406C49.8112 13.9583 49.7656 13.8542 49.7266 13.8281C49.7005 13.8021 49.6615 13.7565 49.6094 13.6914C49.6354 13.6393 49.6484 13.5807 49.6484 13.5156C49.6615 13.4375 49.6354 13.3854 49.5703 13.3594C49.6484 13.2161 49.7591 13.1185 49.9023 13.0664C50.0456 13.0013 50.1823 12.9362 50.3125 12.8711C50.4557 12.9232 50.5924 12.9297 50.7227 12.8906C50.8659 12.8516 51.0091 12.819 51.1523 12.793C51.1654 12.7539 51.1589 12.7148 51.1328 12.6758C51.1198 12.6237 51.1133 12.5781 51.1133 12.5391C51.1003 12.4479 51.1003 12.3698 51.1133 12.3047C51.1393 12.2396 51.1393 12.168 51.1133 12.0898C51.0872 12.0378 51.0807 11.9727 51.0938 11.8945C51.1068 11.8034 51.1133 11.7253 51.1133 11.6602C51.1003 11.569 51.0807 11.4909 51.0547 11.4258C51.0286 11.3477 51.0221 11.2565 51.0352 11.1523C51.0482 11.0482 51.0872 10.9505 51.1523 10.8594C51.2174 10.7552 51.224 10.651 51.1719 10.5469C51.25 10.5078 51.2695 10.4492 51.2305 10.3711C51.1914 10.2799 51.1914 10.2018 51.2305 10.1367C51.2565 10.0977 51.2891 10.0716 51.3281 10.0586C51.3802 10.0456 51.4258 10.0195 51.4648 9.98047C51.4388 9.8763 51.4453 9.8112 51.4844 9.78516C51.5234 9.75911 51.5625 9.71354 51.6016 9.64844C51.5885 9.58333 51.5951 9.53125 51.6211 9.49219C51.6471 9.4401 51.6536 9.38151 51.6406 9.31641C51.7057 9.2513 51.7643 9.19271 51.8164 9.14062C51.8815 9.07552 51.9206 8.99089 51.9336 8.88672C51.9857 8.89974 52.0117 8.88021 52.0117 8.82812C52.0247 8.77604 52.0443 8.73698 52.0703 8.71094C52.0964 8.6849 52.1224 8.65885 52.1484 8.63281C52.1875 8.59375 52.2135 8.55469 52.2266 8.51562C52.2917 8.5026 52.3438 8.48958 52.3828 8.47656C52.4219 8.45052 52.474 8.43099 52.5391 8.41797C52.5911 8.33984 52.6562 8.28125 52.7344 8.24219C52.8255 8.1901 52.9102 8.15104 52.9883 8.125C53.0664 8.08594 53.138 8.04688 53.2031 8.00781C53.2812 7.95573 53.3398 7.8776 53.3789 7.77344C53.5612 7.77344 53.75 7.75391 53.9453 7.71484C54.1406 7.67578 54.3294 7.66927 54.5117 7.69531C54.5378 7.68229 54.5768 7.67578 54.6289 7.67578C54.681 7.67578 54.7201 7.65625 54.7461 7.61719C54.7982 7.68229 54.8698 7.73438 54.9609 7.77344C55.0521 7.79948 55.1042 7.86458 55.1172 7.96875C55.1562 7.96875 55.1953 7.97526 55.2344 7.98828C55.2734 8.0013 55.306 8.01432 55.332 8.02734C55.3451 8.17057 55.3971 8.28125 55.4883 8.35938C55.5794 8.42448 55.6576 8.50911 55.7227 8.61328C55.7487 8.65234 55.7617 8.69141 55.7617 8.73047C55.7747 8.75651 55.7943 8.78906 55.8203 8.82812C55.9115 8.85417 55.9831 8.89323 56.0352 8.94531C56.0872 8.9974 56.1198 9.02995 56.1328 9.04297C56.0807 9.13411 56.0742 9.21224 56.1133 9.27734C56.1523 9.32943 56.1784 9.36198 56.1914 9.375C56.1784 9.4401 56.1719 9.51172 56.1719 9.58984C56.1719 9.65495 56.2044 9.70052 56.2695 9.72656C56.2565 9.90885 56.2565 10.0391 56.2695 10.1172C56.2826 10.1823 56.2565 10.2474 56.1914 10.3125C56.1914 10.3646 56.2109 10.3971 56.25 10.4102C56.2891 10.4232 56.3216 10.4427 56.3477 10.4688ZM63.2617 22.7734C63.1966 22.8385 63.1576 22.9036 63.1445 22.9688C63.1315 23.0469 63.1445 23.0924 63.1836 23.1055C63.1706 23.1576 63.138 23.1901 63.0859 23.2031C63.0469 23.2161 63.0143 23.2422 62.9883 23.2812C62.9622 23.3073 62.9557 23.3398 62.9688 23.3789C62.9818 23.431 62.9753 23.4766 62.9492 23.5156C62.806 23.6849 62.6758 23.8216 62.5586 23.9258C62.4544 24.043 62.3958 24.1797 62.3828 24.3359C62.3307 24.349 62.2917 24.3685 62.2656 24.3945C62.2396 24.4336 62.2005 24.4531 62.1484 24.4531C62.1224 24.4792 62.0768 24.5117 62.0117 24.5508C61.9596 24.6029 61.8945 24.6549 61.8164 24.707C61.7513 24.7721 61.6862 24.8242 61.6211 24.8633C61.556 24.9154 61.5104 24.9479 61.4844 24.9609C61.4583 25.026 61.4193 25.0716 61.3672 25.0977C61.3281 25.1237 61.3021 25.1693 61.2891 25.2344C61.0417 25.2734 60.8138 25.3971 60.6055 25.6055C60.4492 25.6185 60.2799 25.6185 60.0977 25.6055C60.0326 25.5924 59.987 25.6055 59.9609 25.6445C59.9349 25.6966 59.8958 25.7357 59.8438 25.7617C59.8047 25.7747 59.7591 25.7747 59.707 25.7617C59.668 25.7487 59.6354 25.7552 59.6094 25.7812C59.401 25.8984 59.2057 25.944 59.0234 25.918C58.8542 25.9049 58.6784 25.8984 58.4961 25.8984C58.3919 25.8984 58.2812 25.8984 58.1641 25.8984C58.0469 25.9115 57.9297 25.9115 57.8125 25.8984C57.6953 25.8984 57.5846 25.8789 57.4805 25.8398C57.3763 25.8008 57.2917 25.7357 57.2266 25.6445C57.1745 25.6706 57.1224 25.6771 57.0703 25.6641C57.0312 25.651 56.9857 25.6315 56.9336 25.6055C56.8945 25.5924 56.849 25.5794 56.7969 25.5664C56.7448 25.5534 56.6927 25.5664 56.6406 25.6055C56.6276 25.5404 56.5885 25.4948 56.5234 25.4688C56.4714 25.4557 56.4323 25.4232 56.4062 25.3711C56.2891 25.293 56.2044 25.2409 56.1523 25.2148C56.1133 25.2018 56.0807 25.1758 56.0547 25.1367C56.0286 25.1107 56.0026 25.0781 55.9766 25.0391C55.9635 25.013 55.931 25 55.8789 25C55.8789 24.9349 55.8464 24.8177 55.7812 24.6484C55.7161 24.4792 55.6706 24.362 55.6445 24.2969C55.5794 24.1797 55.5534 24.1146 55.5664 24.1016C55.5924 24.0885 55.6055 24.069 55.6055 24.043L55.6445 23.7305C55.6706 23.5352 55.7292 23.4115 55.8203 23.3594C55.9115 23.3073 55.944 23.2096 55.918 23.0664C56.0352 23.0273 56.0807 22.9362 56.0547 22.793L56.3281 22.6562C56.3802 22.5 56.4974 22.4023 56.6797 22.3633C56.7057 22.2721 56.7448 22.207 56.7969 22.168C56.862 22.1289 56.888 22.0573 56.875 21.9531C56.9531 21.9271 57.0312 21.9076 57.1094 21.8945C57.1875 21.8815 57.2591 21.862 57.3242 21.8359C57.3633 21.7839 57.4089 21.7448 57.4609 21.7188C57.513 21.7057 57.5326 21.6536 57.5195 21.5625C57.6628 21.5755 57.793 21.569 57.9102 21.543C58.0404 21.5169 58.1706 21.5104 58.3008 21.5234C58.3659 21.5365 58.4245 21.556 58.4766 21.582C58.5417 21.6211 58.6068 21.6276 58.6719 21.6016C58.7109 21.6927 58.7826 21.7448 58.8867 21.7578C58.9909 21.7839 59.0755 21.8099 59.1406 21.8359C59.1276 21.888 59.1276 21.9336 59.1406 21.9727C59.1667 22.0247 59.1797 22.0768 59.1797 22.1289C59.1797 22.194 59.1992 22.2331 59.2383 22.2461C59.2773 22.2721 59.3099 22.3112 59.3359 22.3633C59.362 22.4023 59.3685 22.4479 59.3555 22.5C59.3424 22.5651 59.362 22.6172 59.4141 22.6562C59.4141 22.7214 59.375 22.7734 59.2969 22.8125C59.2318 22.8516 59.1797 22.8841 59.1406 22.9102C59.1146 22.9362 59.0755 22.9818 59.0234 23.0469C58.9844 23.112 58.9453 23.1576 58.9062 23.1836C58.5938 23.2487 58.3919 23.1966 58.3008 23.0273C58.1315 22.9753 58.0339 22.9688 58.0078 23.0078C57.9818 23.0469 57.9492 23.0924 57.9102 23.1445C57.8841 23.1055 57.8516 23.0924 57.8125 23.1055C57.7734 23.1315 57.7279 23.1445 57.6758 23.1445L57.1484 23.4766C57.1484 23.6198 57.1354 23.7109 57.1094 23.75C57.0964 23.7891 57.0768 23.8086 57.0508 23.8086C57.0247 23.8216 56.9987 23.8411 56.9727 23.8672C56.9596 23.8932 56.9531 23.9583 56.9531 24.0625C56.9271 24.1276 56.9401 24.1602 56.9922 24.1602C57.0443 24.1732 57.0833 24.1927 57.1094 24.2188C57.1745 24.362 57.2201 24.4336 57.2461 24.4336C57.2721 24.4466 57.2982 24.4661 57.3242 24.4922C57.4544 24.5573 57.5391 24.5833 57.5781 24.5703C57.6302 24.5573 57.7148 24.5638 57.832 24.5898C58.1185 24.681 58.3659 24.7201 58.5742 24.707C58.7826 24.707 58.9714 24.694 59.1406 24.668C59.2708 24.5898 59.3685 24.5443 59.4336 24.5312C59.4987 24.5312 59.5573 24.5182 59.6094 24.4922C59.6745 24.4792 59.7266 24.4596 59.7656 24.4336C59.8177 24.4076 59.8438 24.375 59.8438 24.3359C59.9219 24.375 60 24.3815 60.0781 24.3555C60.1562 24.3294 60.2279 24.2839 60.293 24.2188C60.3711 24.1667 60.4427 24.1081 60.5078 24.043C60.5729 23.9779 60.6315 23.9258 60.6836 23.8867C60.7227 23.8607 60.7747 23.8411 60.8398 23.8281C60.9049 23.8151 60.931 23.7695 60.918 23.6914C60.9701 23.7044 61.0026 23.6914 61.0156 23.6523C61.0417 23.6263 61.0807 23.6198 61.1328 23.6328C61.1328 23.5547 61.1523 23.4961 61.1914 23.457C61.2435 23.418 61.263 23.3594 61.25 23.2812C61.3542 23.2682 61.4388 23.2227 61.5039 23.1445C61.569 23.0794 61.6146 22.9948 61.6406 22.8906C61.6797 22.7995 61.7057 22.7018 61.7188 22.5977C61.7448 22.4935 61.7708 22.4023 61.7969 22.3242C61.7708 22.2461 61.7448 22.1484 61.7188 22.0312C61.6927 21.9141 61.7188 21.8229 61.7969 21.7578C61.7448 21.6406 61.7122 21.5169 61.6992 21.3867C61.6862 21.2565 61.6536 21.1328 61.6016 21.0156C61.5104 20.7943 61.4583 20.612 61.4453 20.4688C61.4323 20.3385 61.3672 20.2344 61.25 20.1562C61.3021 20 61.2826 19.8568 61.1914 19.7266C61.1133 19.5833 61.0742 19.4401 61.0742 19.2969C61.0612 19.2318 61.0352 19.1992 60.9961 19.1992C60.9701 19.1862 60.957 19.1536 60.957 19.1016C60.931 19.0625 60.9245 19.0234 60.9375 18.9844C60.9635 18.9323 60.944 18.8867 60.8789 18.8477C60.8008 18.8086 60.7357 18.8216 60.6836 18.8867C60.6315 18.9388 60.5664 18.9779 60.4883 19.0039C60.306 19.1341 60.1693 19.2318 60.0781 19.2969C60 19.362 59.9219 19.4271 59.8438 19.4922C59.7396 19.4661 59.6484 19.4727 59.5703 19.5117C59.4922 19.5378 59.401 19.5573 59.2969 19.5703C59.0625 19.5312 58.8932 19.5312 58.7891 19.5703C58.6979 19.5964 58.6003 19.5964 58.4961 19.5703C58.3138 19.4922 58.1445 19.4401 57.9883 19.4141C57.832 19.388 57.7148 19.375 57.6367 19.375C57.5716 19.375 57.5326 19.3555 57.5195 19.3164C57.5195 19.2773 57.5 19.2448 57.4609 19.2188C57.3698 19.2578 57.2917 19.2578 57.2266 19.2188C57.1615 19.1927 57.0833 19.1406 56.9922 19.0625C56.9141 18.9844 56.8294 18.8997 56.7383 18.8086C56.6602 18.7174 56.582 18.6263 56.5039 18.5352C56.4388 18.444 56.3867 18.3659 56.3477 18.3008C56.3346 18.1966 56.3216 18.138 56.3086 18.125C56.2956 18.112 56.2826 18.0924 56.2695 18.0664C56.2174 17.9753 56.1784 17.8776 56.1523 17.7734C56.1263 17.6693 56.1003 17.5716 56.0742 17.4805C56.1393 17.4154 56.1589 17.3177 56.1328 17.1875C56.1198 17.0573 56.1133 16.9531 56.1133 16.875C56.1133 16.7578 56.1328 16.6406 56.1719 16.5234C56.2109 16.4062 56.2305 16.2891 56.2305 16.1719C56.2305 16.0677 56.224 15.9635 56.2109 15.8594C56.1979 15.7422 56.2435 15.6445 56.3477 15.5664C56.3477 15.4232 56.3411 15.2734 56.3281 15.1172C56.3151 14.9609 56.3216 14.8112 56.3477 14.668C56.3607 14.5638 56.3867 14.4401 56.4258 14.2969C56.4648 14.1536 56.4388 14.043 56.3477 13.9648C56.3737 13.9388 56.3867 13.9062 56.3867 13.8672C56.3867 13.8151 56.3932 13.7695 56.4062 13.7305C56.4714 13.6654 56.4974 13.6198 56.4844 13.5938C56.4714 13.5677 56.4714 13.5417 56.4844 13.5156C56.6016 13.4245 56.6862 13.3594 56.7383 13.3203C56.7904 13.2812 56.862 13.2487 56.9531 13.2227C57.0052 13.2227 57.0508 13.2422 57.0898 13.2812C57.1419 13.3073 57.1875 13.3203 57.2266 13.3203C57.2917 13.3333 57.3568 13.3398 57.4219 13.3398C57.5 13.3398 57.5716 13.3464 57.6367 13.3594L57.793 13.5547C57.8581 13.6458 57.8906 13.7565 57.8906 13.8867C57.8906 14.0169 57.8581 14.1276 57.793 14.2188C57.793 14.2969 57.7995 14.3945 57.8125 14.5117C57.8255 14.6159 57.793 14.694 57.7148 14.7461C57.7279 14.8763 57.7409 14.9805 57.7539 15.0586C57.7669 15.1237 57.7669 15.1823 57.7539 15.2344C57.7539 15.2734 57.7409 15.332 57.7148 15.4102C57.6888 15.4883 57.6888 15.5404 57.7148 15.5664C57.6367 15.7747 57.5846 15.931 57.5586 16.0352C57.5326 16.1393 57.5521 16.2435 57.6172 16.3477C57.526 16.4388 57.487 16.543 57.5 16.6602C57.513 16.7643 57.487 16.862 57.4219 16.9531C57.474 17.0052 57.5065 17.0768 57.5195 17.168C57.5326 17.2591 57.5456 17.3503 57.5586 17.4414C57.5716 17.5195 57.5911 17.5977 57.6172 17.6758C57.6562 17.7409 57.7279 17.7734 57.832 17.7734C57.8581 17.8385 57.9102 17.9232 57.9883 18.0273C58.1055 18.0143 58.2096 18.0273 58.3008 18.0664C58.4049 18.1055 58.5026 18.1445 58.5938 18.1836C58.6979 18.2227 58.7956 18.2552 58.8867 18.2812C58.9909 18.2943 59.1146 18.2878 59.2578 18.2617C59.3229 18.2357 59.388 18.2096 59.4531 18.1836C59.5312 18.1576 59.5964 18.1185 59.6484 18.0664C59.6875 17.9883 59.7331 17.9492 59.7852 17.9492C59.8503 17.9362 59.8958 17.9036 59.9219 17.8516C59.9349 17.7734 59.9609 17.7148 60 17.6758C60.0391 17.6237 60.0781 17.5716 60.1172 17.5195C60.1562 17.4674 60.1888 17.4154 60.2148 17.3633C60.2539 17.2982 60.2669 17.2201 60.2539 17.1289C60.3841 16.9206 60.4753 16.7383 60.5273 16.582C60.5794 16.4258 60.6055 16.263 60.6055 16.0938C60.5794 15.9375 60.5729 15.8594 60.5859 15.8594C60.599 15.8464 60.6055 15.8268 60.6055 15.8008C60.5534 15.6445 60.5339 15.5534 60.5469 15.5273C60.5729 15.5013 60.5794 15.4753 60.5664 15.4492C60.5143 15.332 60.4883 15.2539 60.4883 15.2148C60.5013 15.1758 60.5013 15.1432 60.4883 15.1172C60.4622 15.026 60.4297 14.9349 60.3906 14.8438C60.3516 14.7526 60.332 14.6549 60.332 14.5508C60.3971 14.4596 60.4102 14.3945 60.3711 14.3555C60.332 14.3034 60.319 14.2448 60.332 14.1797C60.2409 14.1146 60.1758 14.056 60.1367 14.0039C60.1107 13.9518 60.0977 13.8997 60.0977 13.8477C60.1107 13.7956 60.1237 13.7435 60.1367 13.6914C60.1628 13.6263 60.1888 13.5417 60.2148 13.4375C60.2409 13.2943 60.2539 13.1901 60.2539 13.125C60.2669 13.0469 60.2539 12.9753 60.2148 12.9102C60.2799 12.9362 60.319 12.9297 60.332 12.8906C60.3451 12.8385 60.3711 12.7995 60.4102 12.7734C60.4362 12.7474 60.4753 12.7409 60.5273 12.7539C60.5794 12.7669 60.6185 12.7734 60.6445 12.7734C60.6966 12.7604 60.7292 12.7474 60.7422 12.7344C60.7682 12.7083 60.8138 12.6953 60.8789 12.6953C60.9961 12.6953 61.1133 12.7214 61.2305 12.7734C61.3477 12.8125 61.4583 12.8451 61.5625 12.8711C61.6016 12.9753 61.6471 13.0599 61.6992 13.125C61.7904 13.2812 61.8294 13.3919 61.8164 13.457C61.8034 13.5091 61.7839 13.5547 61.7578 13.5938C61.7969 13.6328 61.8099 13.6914 61.7969 13.7695C61.7969 13.8477 61.8294 13.8867 61.8945 13.8867C61.8685 14.0299 61.862 14.1341 61.875 14.1992C61.901 14.2643 61.9271 14.3294 61.9531 14.3945V15.0195C62.0052 15.2279 62.0182 15.3971 61.9922 15.5273C61.9661 15.6445 61.9531 15.7682 61.9531 15.8984C61.9531 15.9375 61.9596 15.9766 61.9727 16.0156C61.9857 16.0417 61.9922 16.0742 61.9922 16.1133C61.9792 16.1654 61.9727 16.224 61.9727 16.2891C61.9857 16.3411 61.9792 16.3932 61.9531 16.4453C61.9792 16.5625 61.9922 16.6667 61.9922 16.7578C62.0052 16.8359 61.9922 16.9271 61.9531 17.0312C61.9792 17.0964 62.0052 17.1484 62.0312 17.1875C62.0703 17.2266 62.0964 17.2786 62.1094 17.3438C62.0573 17.5391 62.0508 17.6562 62.0898 17.6953C62.1419 17.7344 62.1615 17.7995 62.1484 17.8906C62.1745 17.9297 62.1745 17.9818 62.1484 18.0469C62.1354 18.112 62.1615 18.151 62.2266 18.1641C62.2135 18.2031 62.2266 18.3008 62.2656 18.457C62.3177 18.6003 62.3568 18.6914 62.3828 18.7305C62.3958 18.7826 62.4414 18.8477 62.5195 18.9258C62.4674 19.043 62.4544 19.1341 62.4805 19.1992C62.5195 19.2513 62.5586 19.3164 62.5977 19.3945C62.6367 19.4596 62.6628 19.5312 62.6758 19.6094C62.6888 19.6745 62.6758 19.7461 62.6367 19.8242C62.6628 19.9023 62.7018 19.9935 62.7539 20.0977C62.819 20.2018 62.832 20.293 62.793 20.3711C62.832 20.4362 62.8776 20.4883 62.9297 20.5273C62.9818 20.5664 63.0273 20.6185 63.0664 20.6836C63.0664 20.7096 63.0664 20.7487 63.0664 20.8008C63.0664 20.8659 63.0534 20.9115 63.0273 20.9375C63.1055 21.1068 63.151 21.276 63.1641 21.4453C63.1771 21.6276 63.2096 21.8034 63.2617 21.9727C63.1966 22.1159 63.1706 22.2461 63.1836 22.3633C63.2096 22.4935 63.2357 22.6302 63.2617 22.7734Z" fill="#E0E9F5"/>
<path d="M45.5847 26.1506C45.5927 26.523 45.9481 26.7257 46.1486 26.4721L48.5333 23.4562C48.694 23.253 48.6312 22.8927 48.4135 22.7686L45.9345 21.3549C45.7168 21.2308 45.4841 21.4227 45.4905 21.7211L45.5847 26.1506Z" fill="#E0E9F5"/>
<path d="M46.2881 23.7589C46.2377 24.196 46.6904 24.4541 46.8838 24.0986L47.1633 23.5846C47.2795 23.371 47.204 23.0619 47.0084 22.9503L46.8017 22.8325C46.6061 22.721 46.3913 22.8645 46.361 23.1271L46.2881 23.7589Z" fill="#A5121C"/>
<rect x="10" y="25" width="33" height="1" rx="0.5" fill="#D9D9D9"/>
</svg>
