<svg width="57" height="31" viewBox="0 0 57 31" fill="none" xmlns="http://www.w3.org/2000/svg">
<rect width="57" height="31" rx="5" fill="#7E77D0"/>
<path d="M7.44922 24.6523C6.94141 24.6654 6.52474 24.5742 6.19922 24.3789C5.86068 24.1836 5.60026 23.8971 5.41797 23.5195C5.22266 23.1549 5.09896 22.7057 5.04688 22.1719C4.99479 21.651 4.99479 21.0781 5.04688 20.4531C5.11198 19.9714 5.22917 19.4701 5.39844 18.9492C5.54167 18.5065 5.76302 18.0182 6.0625 17.4844C6.34896 16.9505 6.73958 16.4297 7.23438 15.9219C7.33854 15.9479 7.42318 15.9805 7.48828 16.0195C7.55339 16.0456 7.60547 16.0781 7.64453 16.1172C7.68359 16.1693 7.70964 16.2148 7.72266 16.2539C7.7487 16.3971 7.70964 16.5599 7.60547 16.7422C7.5013 16.9245 7.39714 17.1198 7.29297 17.3281C7.00651 17.9271 6.79167 18.4935 6.64844 19.0273C6.50521 19.5612 6.41406 20.056 6.375 20.5117C6.34896 20.9023 6.35547 21.2539 6.39453 21.5664C6.42057 21.8919 6.46615 22.1654 6.53125 22.3867C6.59635 22.6211 6.66797 22.7969 6.74609 22.9141C6.82422 23.0443 6.89583 23.1094 6.96094 23.1094C7.02604 23.1094 7.09115 23.0638 7.15625 22.9727C7.23438 22.8815 7.30599 22.7708 7.37109 22.6406C7.44922 22.5104 7.54036 22.3086 7.64453 22.0352C7.7487 21.7747 7.85938 21.4688 7.97656 21.1172C8.09375 20.7656 8.20443 20.388 8.30859 19.9844C8.42578 19.5677 8.52995 19.151 8.62109 18.7344C8.80339 17.901 8.9987 16.9635 9.20703 15.9219C9.41536 14.8672 9.72135 13.7669 10.125 12.6211C10.2552 12.1393 10.418 11.612 10.6133 11.0391C10.7695 10.5443 10.9648 9.97135 11.1992 9.32031C11.4466 8.65625 11.7266 7.9401 12.0391 7.17188C12.0391 7.10677 12.0911 7.04818 12.1953 6.99609C12.3125 6.93099 12.4427 6.86589 12.5859 6.80078C12.7422 6.73568 12.918 6.67057 13.1133 6.60547C13.3737 6.51432 13.5755 6.46224 13.7188 6.44922C13.875 6.4362 13.9922 6.45573 14.0703 6.50781C14.1484 6.5599 14.2005 6.63151 14.2266 6.72266C14.2526 6.80078 14.2656 6.89193 14.2656 6.99609C14.2917 7.42578 14.3047 7.82943 14.3047 8.20703C14.3177 8.58464 14.3307 8.91667 14.3438 9.20312C14.3568 9.54167 14.3633 9.84766 14.3633 10.1211C14.3763 10.4857 14.3568 10.974 14.3047 11.5859C14.2526 12.1849 14.194 12.8164 14.1289 13.4805C14.0768 14.1445 14.0247 14.7956 13.9727 15.4336C13.9336 16.0586 13.9271 16.5794 13.9531 16.9961C13.9531 17.2174 13.9596 17.4258 13.9727 17.6211C13.9987 17.8034 14.0247 17.9857 14.0508 18.168C14.2201 17.6992 14.4089 17.2109 14.6172 16.7031C14.8255 16.1823 15.0339 15.6875 15.2422 15.2188C15.4505 14.737 15.6458 14.2943 15.8281 13.8906C16.0104 13.474 16.1536 13.1289 16.2578 12.8555C16.4141 12.4909 16.6224 12.0286 16.8828 11.4688C17.1432 10.9089 17.4036 10.349 17.6641 9.78906C17.9375 9.22917 18.1849 8.71484 18.4062 8.24609C18.6406 7.77734 18.8099 7.45182 18.9141 7.26953C18.9922 7.13932 19.1224 7.02214 19.3047 6.91797C19.5 6.8138 19.7018 6.72266 19.9102 6.64453C20.1315 6.56641 20.3333 6.51432 20.5156 6.48828C20.7109 6.44922 20.8411 6.44271 20.9062 6.46875C21.0755 6.50781 21.1927 6.5599 21.2578 6.625C21.3359 6.6901 21.3815 6.73568 21.3945 6.76172C21.4206 6.8138 21.4401 6.90495 21.4531 7.03516C21.4661 7.15234 21.4596 7.34115 21.4336 7.60156C21.4076 7.91406 21.3294 8.38932 21.1992 9.02734C21.082 9.66536 20.9323 10.3945 20.75 11.2148C20.5807 12.0221 20.3919 12.888 20.1836 13.8125C19.9883 14.737 19.7995 15.6484 19.6172 16.5469C19.4349 17.4323 19.2721 18.2656 19.1289 19.0469C18.9987 19.8281 18.9141 20.4857 18.875 21.0195C18.849 21.6185 18.888 22.1458 18.9922 22.6016C19.0312 22.7969 19.0898 22.9857 19.168 23.168C19.2461 23.3503 19.3503 23.5065 19.4805 23.6367C19.6107 23.7799 19.7669 23.8841 19.9492 23.9492C20.1315 24.0143 20.3464 24.0339 20.5938 24.0078C20.2682 24.2292 19.9492 24.3919 19.6367 24.4961C19.3242 24.6003 19.0182 24.6523 18.7188 24.6523C18.3932 24.6654 18.1068 24.6133 17.8594 24.4961C17.612 24.3919 17.4036 24.2357 17.2344 24.0273C17.0651 23.832 16.9414 23.5911 16.8633 23.3047C16.7852 23.0312 16.7591 22.7253 16.7852 22.3867C16.8112 22.0742 16.8958 21.5599 17.0391 20.8438C17.1823 20.1276 17.3516 19.3203 17.5469 18.4219C17.7552 17.5104 17.9766 16.5664 18.2109 15.5898C18.4583 14.6003 18.6862 13.6758 18.8945 12.8164C19.1159 11.944 19.3047 11.1953 19.4609 10.5703C19.6172 9.94531 19.7148 9.53516 19.7539 9.33984C19.7799 9.18359 19.7995 9.04036 19.8125 8.91016C19.8385 8.76693 19.8646 8.64323 19.8906 8.53906C19.7604 8.79948 19.5977 9.11198 19.4023 9.47656C19.2201 9.84115 19.0247 10.2318 18.8164 10.6484C18.6081 11.0651 18.3932 11.5013 18.1719 11.957C17.9635 12.3997 17.7617 12.8294 17.5664 13.2461C17.2409 13.9232 16.9219 14.6198 16.6094 15.3359C16.2969 16.0391 16.0169 16.7096 15.7695 17.3477C15.5221 17.9857 15.3138 18.5586 15.1445 19.0664C14.9883 19.5742 14.8971 19.9648 14.8711 20.2383V20.5117C14.8711 20.5898 14.8711 20.681 14.8711 20.7852C14.8841 20.8893 14.9036 20.987 14.9297 21.0781L14.1484 21.6836C14.0312 21.7227 13.9271 21.7552 13.8359 21.7812C13.7578 21.8073 13.6797 21.8203 13.6016 21.8203C13.3021 21.8203 13.0742 21.6641 12.918 21.3516C12.7617 21.0651 12.6185 20.5052 12.4883 19.6719C12.3581 18.8385 12.319 17.8164 12.3711 16.6055C12.3971 16.0065 12.4362 15.401 12.4883 14.7891C12.5534 14.1771 12.612 13.5911 12.6641 13.0312C12.7292 12.4714 12.7878 11.9505 12.8398 11.4688C12.8919 10.974 12.918 10.5508 12.918 10.1992C12.931 9.9388 12.9245 9.70443 12.8984 9.49609C12.8724 9.27474 12.8464 9.07292 12.8203 8.89062C12.7031 9.1901 12.5729 9.60026 12.4297 10.1211C12.2865 10.6289 12.1367 11.1953 11.9805 11.8203C11.8242 12.4453 11.6615 13.1029 11.4922 13.793C11.3359 14.4831 11.1797 15.1471 11.0234 15.7852C10.8802 16.4232 10.7435 17.0156 10.6133 17.5625C10.4831 18.0964 10.3789 18.526 10.3008 18.8516C10.1706 19.3724 10.0404 19.9648 9.91016 20.6289C9.77995 21.293 9.61719 21.918 9.42188 22.5039C9.22656 23.1029 8.97266 23.6042 8.66016 24.0078C8.34766 24.4245 7.94401 24.6393 7.44922 24.6523ZM24.0898 21.3125C23.5951 21.3125 23.1914 21.2344 22.8789 21.0781C22.5664 20.9219 22.319 20.7331 22.1367 20.5117C21.9674 20.2773 21.8438 20.0299 21.7656 19.7695C21.7005 19.4961 21.668 19.2487 21.668 19.0273C21.668 18.6367 21.7005 18.2266 21.7656 17.7969C21.8307 17.3542 21.9089 16.9505 22 16.5859C22.0911 16.2083 22.1693 15.8893 22.2344 15.6289C22.3125 15.3685 22.3646 15.2057 22.3906 15.1406C22.5078 14.763 22.6576 14.4375 22.8398 14.1641C23.0352 13.8776 23.3021 13.6823 23.6406 13.5781C23.7708 13.5521 23.9076 13.526 24.0508 13.5C24.168 13.487 24.2852 13.4805 24.4023 13.4805C24.5326 13.4805 24.6497 13.5 24.7539 13.5391C24.4023 14.4375 24.1224 15.1862 23.9141 15.7852C23.7188 16.3841 23.569 16.8724 23.4648 17.25C23.3477 17.6797 23.276 18.0247 23.25 18.2852C23.1849 18.8711 23.237 19.3138 23.4062 19.6133C23.5755 19.9128 23.9206 20.0625 24.4414 20.0625C24.7799 20.0625 25.1055 19.9388 25.418 19.6914C25.7305 19.431 26.0169 19.099 26.2773 18.6953C26.2383 18.487 26.2188 18.2721 26.2188 18.0508C26.2188 17.6341 26.2513 17.2305 26.3164 16.8398C26.3945 16.4362 26.4792 16.0651 26.5703 15.7266C26.6745 15.375 26.7786 15.0625 26.8828 14.7891C27 14.5156 27.0977 14.3008 27.1758 14.1445C27.319 13.832 27.4492 13.6432 27.5664 13.5781C27.6836 13.5 27.8724 13.4544 28.1328 13.4414C28.237 13.4284 28.3216 13.4284 28.3867 13.4414C28.4648 13.4414 28.5299 13.4479 28.582 13.4609C28.7383 13.5 28.8164 13.5781 28.8164 13.6953C28.8164 13.9036 28.8034 14.2161 28.7773 14.6328C28.7513 15.0495 28.6732 15.4792 28.543 15.9219C28.4518 16.2865 28.3607 16.599 28.2695 16.8594C28.1914 17.1068 28.1133 17.3216 28.0352 17.5039C27.957 17.6732 27.8789 17.8164 27.8008 17.9336C27.7227 18.0378 27.651 18.1354 27.5859 18.2266C27.612 18.6172 27.6445 18.9297 27.6836 19.1641C27.7227 19.3984 27.7682 19.5807 27.8203 19.7109C27.8854 19.8281 27.957 19.9128 28.0352 19.9648C28.1263 20.0039 28.224 20.0234 28.3281 20.0234C28.5104 20.0234 28.7253 19.9388 28.9727 19.7695C29.2201 19.5872 29.474 19.3659 29.7344 19.1055C30.0078 18.832 30.2747 18.5391 30.5352 18.2266C30.8086 17.901 31.056 17.5951 31.2773 17.3086C31.4987 17.0221 31.6875 16.7747 31.8438 16.5664C32 16.3451 32.0977 16.2083 32.1367 16.1562C32.2279 16.0391 32.3125 15.9674 32.3906 15.9414C32.4818 15.9154 32.5534 15.9284 32.6055 15.9805C32.6576 16.0195 32.6836 16.0911 32.6836 16.1953C32.6966 16.2865 32.6706 16.3906 32.6055 16.5078C32.3451 17.0026 32.0195 17.5299 31.6289 18.0898C31.2513 18.6367 30.8411 19.1445 30.3984 19.6133C29.9688 20.082 29.5326 20.4727 29.0898 20.7852C28.6471 21.0977 28.2305 21.2539 27.8398 21.2539C27.4883 21.2539 27.2083 21.1367 27 20.9023C26.8047 20.6549 26.6354 20.3034 26.4922 19.8477C26.1927 20.3164 25.8411 20.681 25.4375 20.9414C25.0339 21.1888 24.5846 21.3125 24.0898 21.3125ZM30.3008 20.9023C30.2096 21.0456 30.112 21.1367 30.0078 21.1758C29.8906 21.2279 29.793 21.2344 29.7148 21.1953C29.6237 21.1693 29.5651 21.1042 29.5391 21C29.513 20.8958 29.5391 20.7656 29.6172 20.6094C29.6562 20.5312 29.7474 20.3555 29.8906 20.082C30.0208 19.8086 30.1836 19.4831 30.3789 19.1055C30.5612 18.7148 30.763 18.2982 30.9844 17.8555C31.2057 17.3997 31.4141 16.9701 31.6094 16.5664C31.8177 16.1628 32.0065 15.8047 32.1758 15.4922C32.3451 15.1667 32.4688 14.9323 32.5469 14.7891C32.4036 14.6589 32.306 14.5677 32.2539 14.5156C32.2018 14.4505 32.1628 14.3203 32.1367 14.125C32.1107 13.9557 32.1497 13.7344 32.2539 13.4609C32.3581 13.1875 32.4948 12.9271 32.6641 12.6797C32.8333 12.4193 33.0221 12.1979 33.2305 12.0156C33.4388 11.8333 33.6406 11.7422 33.8359 11.7422C34.2005 11.7422 34.4544 11.8594 34.5977 12.0938C34.7539 12.3281 34.8451 12.569 34.8711 12.8164C34.8971 12.9857 34.8841 13.2005 34.832 13.4609C34.7799 13.7214 34.6823 13.9557 34.5391 14.1641C34.5781 14.1901 34.6302 14.2227 34.6953 14.2617C34.7604 14.2878 34.8646 14.3008 35.0078 14.3008C35.2161 14.3008 35.3594 14.2878 35.4375 14.2617C35.5286 14.2357 35.6654 14.2227 35.8477 14.2227C36.069 14.2227 36.2513 14.2812 36.3945 14.3984C36.5378 14.5026 36.6549 14.6393 36.7461 14.8086C36.8372 14.9648 36.9023 15.1406 36.9414 15.3359C36.9935 15.5182 37.026 15.6875 37.0391 15.8438C37.0781 16.1693 36.9935 16.5078 36.7852 16.8594C36.5768 17.2109 36.3229 17.5951 36.0234 18.0117C35.8411 18.2721 35.6589 18.5651 35.4766 18.8906C35.2943 19.2161 35.2161 19.5091 35.2422 19.7695C35.2682 19.9388 35.3138 20.0755 35.3789 20.1797C35.444 20.2839 35.6263 20.3359 35.9258 20.3359C36.1471 20.3359 36.388 20.2578 36.6484 20.1016C36.9219 19.9323 37.1953 19.724 37.4688 19.4766C37.7552 19.2161 38.0352 18.9362 38.3086 18.6367C38.582 18.3242 38.8359 18.0247 39.0703 17.7383C39.3047 17.4388 39.5 17.1719 39.6562 16.9375C39.8255 16.7031 39.9492 16.5339 40.0273 16.4297C40.0924 16.3255 40.1771 16.2539 40.2812 16.2148C40.3854 16.1758 40.4766 16.1758 40.5547 16.2148C40.6328 16.2539 40.6784 16.332 40.6914 16.4492C40.7174 16.5664 40.6719 16.7227 40.5547 16.918C40.4766 17.0482 40.3398 17.2565 40.1445 17.543C39.9622 17.8294 39.7344 18.1484 39.4609 18.5C39.2005 18.8516 38.9076 19.2161 38.582 19.5938C38.2565 19.9583 37.9115 20.2969 37.5469 20.6094C37.1953 20.9089 36.8372 21.1562 36.4727 21.3516C36.1211 21.5469 35.7826 21.6445 35.457 21.6445C35.1185 21.6445 34.8385 21.5794 34.6172 21.4492C34.3958 21.319 34.2135 21.1628 34.0703 20.9805C33.9401 20.7852 33.8424 20.5768 33.7773 20.3555C33.7253 20.1211 33.7057 19.9062 33.7188 19.7109C33.7318 19.5547 33.7708 19.3919 33.8359 19.2227C33.9141 19.0404 33.9987 18.8581 34.0898 18.6758C34.194 18.4805 34.2982 18.2917 34.4023 18.1094C34.5195 17.9141 34.6237 17.7253 34.7148 17.543C34.9362 17.1654 35.112 16.8464 35.2422 16.5859C35.3854 16.3125 35.457 16.0846 35.457 15.9023C35.457 15.7852 35.431 15.681 35.3789 15.5898C35.3268 15.4987 35.2422 15.4531 35.125 15.4531C35.0469 15.4531 34.9883 15.4596 34.9492 15.4727C34.9232 15.4727 34.8906 15.4727 34.8516 15.4727C34.8255 15.4727 34.7799 15.4792 34.7148 15.4922C34.6628 15.4922 34.5781 15.4922 34.4609 15.4922C34.2917 15.4922 34.1484 15.4661 34.0312 15.4141C33.9141 15.362 33.8034 15.3229 33.6992 15.2969C33.6471 15.388 33.5299 15.5833 33.3477 15.8828C33.1654 16.1823 32.9505 16.5339 32.7031 16.9375C32.4688 17.3411 32.2148 17.7643 31.9414 18.207C31.681 18.6497 31.4336 19.0664 31.1992 19.457C30.9648 19.8346 30.7695 20.1602 30.6133 20.4336C30.444 20.694 30.3398 20.8503 30.3008 20.9023ZM49.1875 17.1133C49.0052 17.3737 48.7708 17.6992 48.4844 18.0898C48.1979 18.4674 47.8984 18.8516 47.5859 19.2422C47.2865 19.6198 46.987 19.9714 46.6875 20.2969C46.401 20.6094 46.1602 20.8307 45.9648 20.9609C45.8346 21.0391 45.6849 21.1042 45.5156 21.1562C45.3464 21.2083 45.1706 21.2409 44.9883 21.2539C44.819 21.2669 44.6562 21.2539 44.5 21.2148C44.3438 21.1888 44.207 21.1367 44.0898 21.0586C43.9727 20.9674 43.875 20.8372 43.7969 20.668C43.7318 20.5247 43.6667 20.3359 43.6016 20.1016C43.5495 19.8672 43.5299 19.5742 43.543 19.2227C43.2305 19.7435 42.8854 20.1471 42.5078 20.4336C42.1302 20.707 41.7721 20.9089 41.4336 21.0391C41.043 21.1823 40.6523 21.2669 40.2617 21.293C40.0794 21.293 39.8841 21.2279 39.6758 21.0977C39.4674 20.9805 39.2917 20.7917 39.1484 20.5312C39.0052 20.2578 38.9141 19.9128 38.875 19.4961C38.8359 19.0664 38.888 18.5586 39.0312 17.9727C39.2135 17.1784 39.5 16.4557 39.8906 15.8047C40.2943 15.1536 40.7305 14.6003 41.1992 14.1445C41.668 13.6758 42.1302 13.3242 42.5859 13.0898C43.0417 12.8555 43.4193 12.7513 43.7188 12.7773C44.0703 12.8424 44.3568 12.9466 44.5781 13.0898C44.7604 13.2201 44.8776 13.4154 44.9297 13.6758C44.9948 13.9232 44.8906 14.2552 44.6172 14.6719C44.7995 14.6328 44.9492 14.6068 45.0664 14.5938C45.1966 14.5807 45.2943 14.5742 45.3594 14.5742C45.4375 14.5742 45.4896 14.5807 45.5156 14.5938C45.5286 14.6198 45.5352 14.6784 45.5352 14.7695C45.5352 14.8477 45.5156 14.9974 45.4766 15.2188C45.4375 15.4401 45.3789 15.7396 45.3008 16.1172C45.2227 16.4948 45.1185 16.9831 44.9883 17.582C44.9622 17.6992 44.9362 17.8099 44.9102 17.9141C44.8971 18.0052 44.8776 18.1029 44.8516 18.207C44.8385 18.2982 44.819 18.4089 44.793 18.5391C44.7669 18.6693 44.7344 18.832 44.6953 19.0273C44.6823 19.1445 44.6758 19.2747 44.6758 19.418C44.6888 19.5482 44.7148 19.6719 44.7539 19.7891C44.793 19.9062 44.8516 20.0039 44.9297 20.082C45.0208 20.1471 45.1445 20.1797 45.3008 20.1797C45.431 20.1797 45.6003 20.1016 45.8086 19.9453C46.0169 19.776 46.2383 19.5677 46.4727 19.3203C46.707 19.0599 46.9479 18.7799 47.1953 18.4805C47.4557 18.168 47.6966 17.8685 47.918 17.582C48.1393 17.2956 48.3346 17.0417 48.5039 16.8203C48.6862 16.599 48.8164 16.4362 48.8945 16.332C48.9987 16.2148 49.1029 16.1497 49.207 16.1367C49.3112 16.1107 49.3893 16.1367 49.4414 16.2148C49.4935 16.293 49.5 16.4102 49.4609 16.5664C49.4349 16.7227 49.3438 16.9049 49.1875 17.1133ZM43.4648 17.9727C43.5299 17.7122 43.6081 17.4062 43.6992 17.0547C43.7904 16.7031 43.8685 16.3646 43.9336 16.0391C43.9987 15.7135 44.0443 15.4466 44.0703 15.2383C44.1094 15.0169 44.1029 14.9128 44.0508 14.9258C43.9857 14.9388 43.9141 14.9583 43.8359 14.9844C43.7708 15.0104 43.6862 15.0299 43.582 15.043C43.4779 15.056 43.3737 15.0755 43.2695 15.1016C43.3737 14.8932 43.4323 14.724 43.4453 14.5938C43.4714 14.4505 43.4779 14.3398 43.4648 14.2617C43.4518 14.1706 43.4258 14.099 43.3867 14.0469C43.2435 13.9297 42.9896 14.0273 42.625 14.3398C42.2734 14.6393 41.8633 15.1992 41.3945 16.0195C41.1992 16.3581 41.043 16.7227 40.9258 17.1133C40.8086 17.4909 40.724 17.849 40.6719 18.1875C40.6328 18.526 40.6263 18.8255 40.6523 19.0859C40.6784 19.3333 40.7305 19.4961 40.8086 19.5742C40.9518 19.7174 41.1146 19.7891 41.2969 19.7891C41.4792 19.776 41.6615 19.724 41.8438 19.6328C42.0391 19.5286 42.2279 19.3984 42.4102 19.2422C42.6055 19.0859 42.7747 18.9232 42.918 18.7539C43.0742 18.5846 43.1979 18.4284 43.2891 18.2852C43.3932 18.1419 43.4518 18.0378 43.4648 17.9727ZM47.5859 20.6875C48.1589 18.2786 48.6146 16.3451 48.9531 14.8867C49.3047 13.4284 49.5716 12.3151 49.7539 11.5469C49.9622 10.6354 50.1055 10.0039 50.1836 9.65234C50.2227 9.40495 50.2552 9.16406 50.2812 8.92969C50.3073 8.72135 50.3203 8.50651 50.3203 8.28516C50.3203 8.0638 50.3008 7.86198 50.2617 7.67969C50.3659 7.61458 50.4766 7.5625 50.5938 7.52344C50.724 7.48438 50.8477 7.45182 50.9648 7.42578C51.1081 7.38672 51.2513 7.35417 51.3945 7.32812C51.5378 7.30208 51.668 7.28906 51.7852 7.28906C51.8893 7.28906 51.987 7.30208 52.0781 7.32812C52.1693 7.34115 52.2279 7.38021 52.2539 7.44531C52.332 7.51042 52.3646 7.64062 52.3516 7.83594C52.3516 8.03125 52.3385 8.23307 52.3125 8.44141C52.2604 8.6888 52.2018 8.95573 52.1367 9.24219C51.9805 9.80208 51.7656 10.6094 51.4922 11.6641C51.2578 12.5625 50.9388 13.7865 50.5352 15.3359C50.1445 16.8854 49.6497 18.8385 49.0508 21.1953C48.9857 21.2604 48.9076 21.306 48.8164 21.332C48.7253 21.3581 48.6406 21.3711 48.5625 21.3711C48.4714 21.3711 48.3737 21.3646 48.2695 21.3516C48.1784 21.3255 48.0872 21.2865 47.9961 21.2344C47.918 21.1823 47.8398 21.1107 47.7617 21.0195C47.6836 20.9414 47.625 20.8307 47.5859 20.6875Z" fill="#E0E9F5"/>
<path d="M47.3226 24.8174C47.3292 25.0226 47.5053 25.137 47.6018 24.9987L48.7502 23.3547C48.8276 23.244 48.7941 23.0449 48.6863 22.9749L47.4584 22.1774C47.3506 22.1074 47.2378 22.2114 47.2431 22.3759L47.3226 24.8174Z" fill="#E0E9F5"/>
<path d="M47.65 23.5047C47.6285 23.7452 47.8528 23.8908 47.9451 23.6963L48.0785 23.4152C48.1339 23.2984 48.0946 23.1275 47.9977 23.0646L47.8953 22.9981C47.7984 22.9352 47.694 23.0127 47.6811 23.1571L47.65 23.5047Z" fill="#7E77D0"/>
<line x1="34" y1="24.9" x2="47" y2="24.9" stroke="#E0E9F5" stroke-width="0.2"/>
<line x1="34" y1="23.9" x2="47" y2="23.9" stroke="#E0E9F5" stroke-width="0.2"/>
<line x1="34" y1="25.9" x2="50" y2="25.9" stroke="#E0E9F5" stroke-width="0.2"/>
<line x1="34" y1="26.9" x2="50" y2="26.9" stroke="#E0E9F5" stroke-width="0.2"/>
<line x1="34" y1="27.9" x2="50" y2="27.9" stroke="#E0E9F5" stroke-width="0.2"/>
<rect x="47" y="29" width="3" height="1" rx="0.5" fill="#D9D9D9"/>
</svg>
