<svg width="57" height="31" viewBox="0 0 57 31" fill="none" xmlns="http://www.w3.org/2000/svg">
<rect width="57" height="31" rx="5" fill="#A5121C"/>
<path d="M22.0781 22.0781C21.9479 22.1302 21.8633 22.2018 21.8242 22.293C21.7982 22.3841 21.7852 22.4362 21.7852 22.4492C21.5768 22.5664 21.3815 22.638 21.1992 22.6641C21.0169 22.6901 20.8151 22.6966 20.5938 22.6836C20.5286 22.6836 20.4896 22.6641 20.4766 22.625C20.4635 22.5859 20.4375 22.5664 20.3984 22.5664C20.3594 22.5664 20.3203 22.5664 20.2812 22.5664C20.2552 22.5794 20.2227 22.5859 20.1836 22.5859C20.0924 22.5599 20.0143 22.5273 19.9492 22.4883C19.8971 22.4622 19.819 22.4492 19.7148 22.4492C19.7148 22.3841 19.6823 22.3385 19.6172 22.3125C19.5651 22.2995 19.526 22.2604 19.5 22.1953C19.3438 22.0911 19.2331 22.013 19.168 21.9609C19.1159 21.8958 19.0768 21.8242 19.0508 21.7461C18.9727 21.7201 18.9336 21.6875 18.9336 21.6484C18.9336 21.6094 18.9206 21.5768 18.8945 21.5508C18.8555 21.4857 18.8034 21.4141 18.7383 21.3359C18.6732 21.2578 18.6276 21.1797 18.6016 21.1016C18.5885 21.0755 18.582 21.043 18.582 21.0039C18.582 20.9648 18.5755 20.9258 18.5625 20.8867C18.5365 20.8346 18.5104 20.7891 18.4844 20.75C18.4583 20.7109 18.4323 20.6654 18.4062 20.6133C18.3672 20.5352 18.3477 20.4505 18.3477 20.3594C18.3477 20.2552 18.3477 20.1576 18.3477 20.0664C18.3346 20.0013 18.3021 19.9622 18.25 19.9492C18.2109 19.9362 18.1784 19.9102 18.1523 19.8711C18.1133 19.806 18.1133 19.7604 18.1523 19.7344C18.1914 19.6953 18.2174 19.6432 18.2305 19.5781C18.2305 19.487 18.1914 19.4219 18.1133 19.3828C18.1523 19.2656 18.1523 19.1354 18.1133 18.9922C18.0872 18.8359 18.0482 18.7057 17.9961 18.6016C18.0612 18.4974 18.0807 18.3997 18.0547 18.3086C18.0286 18.2044 18.0091 18.1003 17.9961 17.9961C17.9831 17.8398 17.9635 17.7487 17.9375 17.7227C17.9245 17.6966 17.918 17.6641 17.918 17.625C17.9701 17.5469 17.9961 17.4427 17.9961 17.3125C17.9961 17.1693 17.9505 17.0716 17.8594 17.0195C17.8854 16.9154 17.918 16.8438 17.957 16.8047C17.931 16.5964 17.9115 16.3945 17.8984 16.1992C17.8984 15.9909 17.8919 15.776 17.8789 15.5547C17.8529 15.3724 17.8398 15.2552 17.8398 15.2031C17.8529 15.138 17.8594 15.0729 17.8594 15.0078C17.8464 14.9557 17.8464 14.9102 17.8594 14.8711C17.8854 14.832 17.8919 14.7865 17.8789 14.7344C17.8138 14.5 17.7878 14.3307 17.8008 14.2266C17.8138 14.1094 17.8073 13.9922 17.7812 13.875C17.7682 13.7578 17.7422 13.6732 17.7031 13.6211C17.6771 13.556 17.6641 13.4909 17.6641 13.4258C17.6641 13.3216 17.6771 13.2109 17.7031 13.0938C17.7292 12.9766 17.7422 12.8659 17.7422 12.7617C17.7422 12.6576 17.7292 12.5469 17.7031 12.4297C17.6901 12.3125 17.7161 12.2083 17.7812 12.1172C17.7682 11.974 17.7682 11.8763 17.7812 11.8242C17.8073 11.7721 17.8333 11.7201 17.8594 11.668C17.8333 11.5768 17.8203 11.5117 17.8203 11.4727C17.8203 11.4206 17.8203 11.388 17.8203 11.375C17.8333 11.349 17.8464 11.3294 17.8594 11.3164C17.8724 11.2904 17.8789 11.2448 17.8789 11.1797C17.9049 11.0104 17.8984 10.8477 17.8594 10.6914C17.8203 10.5221 17.8203 10.3464 17.8594 10.1641C17.7682 10.151 17.6901 10.2031 17.625 10.3203C17.5599 10.4245 17.5208 10.5091 17.5078 10.5742C17.4427 10.5872 17.3906 10.6263 17.3516 10.6914C17.3255 10.7435 17.2799 10.7826 17.2148 10.8086C17.2148 10.8477 17.2018 10.8802 17.1758 10.9062C17.1628 10.9323 17.1628 10.9714 17.1758 11.0234C17.1107 11.0885 17.0651 11.1536 17.0391 11.2188C17.026 11.2839 16.987 11.349 16.9219 11.4141C16.8958 11.4661 16.8828 11.5312 16.8828 11.6094C16.8828 11.6745 16.8438 11.7201 16.7656 11.7461C16.7786 11.8763 16.7591 11.9935 16.707 12.0977C16.668 12.2018 16.6159 12.319 16.5508 12.4492C16.4987 12.5664 16.4466 12.6836 16.3945 12.8008C16.3555 12.9049 16.3294 12.9766 16.3164 13.0156C16.2904 13.0807 16.2708 13.1458 16.2578 13.2109C16.2448 13.263 16.2122 13.3216 16.1602 13.3867C16.1341 13.582 16.0885 13.7122 16.0234 13.7773C15.9714 13.8424 15.9583 13.9271 15.9844 14.0312C15.9062 14.0052 15.8607 14.0117 15.8477 14.0508C15.8346 14.0898 15.8021 14.1224 15.75 14.1484C15.6979 14.3307 15.6784 14.4674 15.6914 14.5586C15.7044 14.6497 15.6849 14.7344 15.6328 14.8125C15.5286 14.9948 15.4375 15.1836 15.3594 15.3789C15.2943 15.5612 15.2617 15.724 15.2617 15.8672C15.2357 16.0625 15.1966 16.2188 15.1445 16.3359C15.0924 16.4401 15.0924 16.5573 15.1445 16.6875C15.1055 16.7656 15.0599 16.8568 15.0078 16.9609C14.9557 17.0521 14.9557 17.1497 15.0078 17.2539L14.8516 17.5469C14.8646 17.651 14.8646 17.7227 14.8516 17.7617C14.8516 17.7878 14.8255 17.8398 14.7734 17.918C14.7995 17.9701 14.819 18.0221 14.832 18.0742C14.8451 18.1263 14.8776 18.1654 14.9297 18.1914C14.9167 18.1914 14.8906 18.2435 14.8516 18.3477C14.8125 18.4518 14.7865 18.5104 14.7734 18.5234C14.7995 18.6797 14.7995 18.7773 14.7734 18.8164C14.7604 18.8424 14.7474 18.8685 14.7344 18.8945C14.7344 18.9466 14.7409 18.9922 14.7539 19.0312C14.7799 19.0703 14.7865 19.1159 14.7734 19.168C14.7734 19.2591 14.7539 19.3438 14.7148 19.4219C14.6758 19.5 14.6693 19.5846 14.6953 19.6758C14.6172 19.7018 14.5716 19.7539 14.5586 19.832C14.5586 19.9102 14.5326 19.9753 14.4805 20.0273C14.5065 20.0924 14.5391 20.1576 14.5781 20.2227C14.6302 20.2747 14.6107 20.3333 14.5195 20.3984C14.6107 20.5156 14.6237 20.5872 14.5586 20.6133C14.5065 20.6393 14.4674 20.6784 14.4414 20.7305C14.3372 20.9128 14.2721 21.0169 14.2461 21.043C14.2201 21.069 14.194 21.0885 14.168 21.1016C14.1549 21.1016 14.1354 21.1016 14.1094 21.1016C14.0833 21.1016 14.0312 21.1146 13.9531 21.1406C13.7839 21.2057 13.6667 21.2188 13.6016 21.1797C13.5365 21.1276 13.4518 21.1016 13.3477 21.1016C13.2826 20.9323 13.1589 20.8086 12.9766 20.7305C13.0156 20.5612 13.0156 20.4635 12.9766 20.4375C12.9505 20.4115 12.9245 20.3854 12.8984 20.3594C12.8854 20.3203 12.8854 20.2812 12.8984 20.2422C12.9115 20.1901 12.8919 20.151 12.8398 20.125C12.8919 20.0339 12.8984 19.9036 12.8594 19.7344C12.8203 19.5651 12.7487 19.4609 12.6445 19.4219C12.7096 19.3958 12.7292 19.3633 12.7031 19.3242C12.6771 19.2721 12.6836 19.2331 12.7227 19.207C12.7227 19.1419 12.7096 19.1029 12.6836 19.0898C12.6576 19.0768 12.6315 19.0508 12.6055 19.0117C12.6055 18.8945 12.599 18.8099 12.5859 18.7578C12.5859 18.6927 12.5664 18.6276 12.5273 18.5625C12.5013 18.4974 12.4688 18.4388 12.4297 18.3867C12.3906 18.3346 12.3646 18.2956 12.3516 18.2695C12.3516 18.1523 12.3385 18.0612 12.3125 17.9961C12.2995 17.931 12.2799 17.8789 12.2539 17.8398C12.2279 17.8008 12.2018 17.7682 12.1758 17.7422C12.1628 17.7031 12.1562 17.651 12.1562 17.5859C12.1432 17.5469 12.1172 17.5208 12.0781 17.5078C12.0391 17.4818 12 17.4557 11.9609 17.4297C11.987 17.2995 11.9674 17.1693 11.9023 17.0391C11.8503 16.9089 11.8242 16.7917 11.8242 16.6875C11.8242 16.5573 11.8112 16.4596 11.7852 16.3945C11.7331 16.2643 11.7135 16.1927 11.7266 16.1797C11.7396 16.1667 11.7461 16.1471 11.7461 16.1211C11.668 15.9388 11.6289 15.8216 11.6289 15.7695C11.6289 15.7174 11.6159 15.6589 11.5898 15.5938L11.5117 15.1055C11.4857 15.0404 11.4531 14.9883 11.4141 14.9492C11.375 14.8971 11.3359 14.8385 11.2969 14.7734C11.3229 14.6432 11.3229 14.5065 11.2969 14.3633C11.2839 14.2201 11.2578 14.0833 11.2188 13.9531C11.1146 13.8099 11.0755 13.7253 11.1016 13.6992C11.1276 13.6602 11.1081 13.6211 11.043 13.582C11.0169 13.3867 10.9779 13.2565 10.9258 13.1914C10.8737 13.1263 10.8346 13.0547 10.8086 12.9766C10.7826 12.9115 10.7695 12.8398 10.7695 12.7617C10.7695 12.6836 10.7565 12.6185 10.7305 12.5664C10.6523 12.4883 10.6003 12.4232 10.5742 12.3711C10.5612 12.319 10.5417 12.2734 10.5156 12.2344C10.4766 12.1693 10.431 12.1172 10.3789 12.0781C10.3268 12.0391 10.2812 11.987 10.2422 11.9219C10.2422 12.013 10.2096 12.0911 10.1445 12.1562C10.1836 12.2604 10.1966 12.3841 10.1836 12.5273C10.1836 12.6706 10.1771 12.7943 10.1641 12.8984C10.138 13.0156 10.125 13.1263 10.125 13.2305C10.125 13.3216 10.1185 13.3997 10.1055 13.4648C10.0794 13.556 10.0664 13.6406 10.0664 13.7188C10.0664 13.7839 10.0664 13.862 10.0664 13.9531C10.1445 14.1615 10.1641 14.2721 10.125 14.2852C10.0859 14.2982 10.0664 14.3372 10.0664 14.4023C10.0534 14.5195 10.0469 14.6367 10.0469 14.7539C10.0469 14.8711 10.0404 14.9883 10.0273 15.1055C10.0404 15.2617 10.0339 15.3659 10.0078 15.418C9.98177 15.457 9.98828 15.5156 10.0273 15.5938C9.96224 15.6068 9.92969 15.6458 9.92969 15.7109C9.92969 15.763 9.91016 15.8021 9.87109 15.8281C9.89714 15.9193 9.91667 16.0104 9.92969 16.1016C9.95573 16.1797 9.98828 16.2643 10.0273 16.3555C9.92318 16.4857 9.88411 16.5964 9.91016 16.6875C9.94922 16.7786 9.96224 16.8633 9.94922 16.9414C9.88411 17.0846 9.85807 17.1823 9.87109 17.2344C9.88411 17.2865 9.85807 17.319 9.79297 17.332C9.85807 17.4622 9.88411 17.6055 9.87109 17.7617C9.85807 17.9049 9.85807 18.0482 9.87109 18.1914C9.91016 18.3607 9.89714 18.5169 9.83203 18.6602C9.77995 18.7904 9.81901 18.9076 9.94922 19.0117C9.79297 19.2201 9.75391 19.4544 9.83203 19.7148C9.85807 19.7799 9.86458 19.832 9.85156 19.8711C9.85156 19.9102 9.88411 19.9622 9.94922 20.0273C9.92318 20.1706 9.91667 20.2552 9.92969 20.2812C9.94271 20.3073 9.9362 20.3333 9.91016 20.3594C9.97526 20.5417 9.98828 20.6458 9.94922 20.6719C9.92318 20.6849 9.89714 20.7174 9.87109 20.7695C9.87109 20.8216 9.86458 20.8932 9.85156 20.9844C9.85156 21.0625 9.87109 21.1146 9.91016 21.1406C9.83203 21.2839 9.79948 21.3815 9.8125 21.4336C9.82552 21.4857 9.80599 21.5378 9.75391 21.5898C9.72786 21.6549 9.7474 21.6875 9.8125 21.6875C9.89062 21.6875 9.92318 21.7201 9.91016 21.7852C9.83203 21.8633 9.74089 21.9219 9.63672 21.9609C9.53255 21.987 9.46094 22.0521 9.42188 22.1562C9.31771 22.1302 9.20703 22.1237 9.08984 22.1367C8.98568 22.1628 8.88151 22.1562 8.77734 22.1172C8.71224 22.0911 8.66016 22.0521 8.62109 22C8.59505 21.9479 8.54948 21.9349 8.48438 21.9609C8.44531 21.8177 8.41276 21.7396 8.38672 21.7266C8.3737 21.7135 8.36719 21.694 8.36719 21.668C8.39323 21.4987 8.39974 21.3945 8.38672 21.3555C8.3737 21.3164 8.36068 21.2839 8.34766 21.2578C8.33464 21.2188 8.32812 21.1732 8.32812 21.1211C8.32812 21.069 8.34766 20.9909 8.38672 20.8867C8.3737 20.8346 8.3737 20.7891 8.38672 20.75C8.41276 20.6979 8.43229 20.6589 8.44531 20.6328C8.45833 20.5938 8.45833 20.5677 8.44531 20.5547C8.44531 20.5286 8.41927 20.5156 8.36719 20.5156C8.40625 20.3854 8.42578 20.2943 8.42578 20.2422C8.4388 20.1901 8.4388 20.151 8.42578 20.125C8.41276 20.0859 8.39974 20.0469 8.38672 20.0078C8.3737 19.9688 8.36719 19.8971 8.36719 19.793C8.36719 19.7409 8.3737 19.6953 8.38672 19.6562C8.39974 19.6042 8.40625 19.5521 8.40625 19.5C8.40625 19.4479 8.41927 19.4089 8.44531 19.3828C8.48438 19.3568 8.4974 19.3177 8.48438 19.2656C8.47135 19.1745 8.46484 19.0833 8.46484 18.9922C8.46484 18.901 8.45833 18.8099 8.44531 18.7188C8.43229 18.5755 8.4388 18.4388 8.46484 18.3086C8.49089 18.1654 8.4974 18.0221 8.48438 17.8789C8.47135 17.7357 8.47135 17.5924 8.48438 17.4492C8.4974 17.306 8.4974 17.1628 8.48438 17.0195C8.48438 16.9935 8.47786 16.9609 8.46484 16.9219C8.45182 16.8698 8.44531 16.8307 8.44531 16.8047C8.51042 16.5964 8.53646 16.4531 8.52344 16.375C8.52344 16.2839 8.51042 16.1992 8.48438 16.1211C8.53646 15.9909 8.5625 15.8802 8.5625 15.7891C8.57552 15.6849 8.58203 15.5807 8.58203 15.4766C8.59505 15.3724 8.60156 15.2682 8.60156 15.1641C8.60156 15.0599 8.57552 14.9688 8.52344 14.8906C8.60156 14.7214 8.64062 14.6042 8.64062 14.5391C8.65365 14.4609 8.64062 14.3893 8.60156 14.3242C8.60156 14.2591 8.64062 14.1745 8.71875 14.0703C8.69271 13.9661 8.69271 13.8685 8.71875 13.7773C8.74479 13.6732 8.75781 13.569 8.75781 13.4648C8.73177 13.3086 8.73828 13.1979 8.77734 13.1328C8.81641 13.0547 8.8099 12.9896 8.75781 12.9375C8.75781 12.8984 8.76432 12.8659 8.77734 12.8398C8.80339 12.8008 8.81641 12.7617 8.81641 12.7227C8.82943 12.6706 8.82292 12.625 8.79688 12.5859C8.78385 12.5469 8.77734 12.5013 8.77734 12.4492C8.79036 12.4102 8.80339 12.3776 8.81641 12.3516C8.84245 12.3125 8.85547 12.2734 8.85547 12.2344C8.86849 12.1562 8.86849 12.0781 8.85547 12C8.84245 11.9219 8.86849 11.8503 8.93359 11.7852C8.90755 11.7591 8.88802 11.7201 8.875 11.668C8.86198 11.6029 8.84245 11.5508 8.81641 11.5117C8.86849 11.3815 8.88151 11.3099 8.85547 11.2969C8.84245 11.2708 8.82943 11.2448 8.81641 11.2188C8.84245 11.0104 8.84896 10.8737 8.83594 10.8086C8.82292 10.7435 8.82943 10.6654 8.85547 10.5742C8.85547 10.5221 8.83594 10.4896 8.79688 10.4766C8.77083 10.4505 8.74479 10.4245 8.71875 10.3984C8.74479 10.2943 8.73177 10.2292 8.67969 10.2031C8.64062 10.1771 8.61458 10.1315 8.60156 10.0664C8.54948 9.88411 8.53646 9.78646 8.5625 9.77344C8.60156 9.7474 8.61458 9.71484 8.60156 9.67578C8.57552 9.61068 8.53646 9.55208 8.48438 9.5C8.43229 9.44792 8.39323 9.36979 8.36719 9.26562C8.21094 9.13542 8.08724 8.95312 7.99609 8.71875C8.02214 8.65365 8.04818 8.58203 8.07422 8.50391C8.10026 8.42578 8.10026 8.35417 8.07422 8.28906C8.17839 8.25 8.21745 8.17839 8.19141 8.07422C8.39974 8.02214 8.58854 7.91146 8.75781 7.74219C8.82292 7.78125 8.875 7.78776 8.91406 7.76172C8.96615 7.73568 9.02474 7.71615 9.08984 7.70312C9.18099 7.82031 9.23958 7.89193 9.26562 7.91797C9.29167 7.93099 9.30469 7.95703 9.30469 7.99609C9.35677 7.99609 9.40885 8.02214 9.46094 8.07422C9.52604 8.1263 9.57812 8.1263 9.61719 8.07422C9.60417 8.16536 9.61068 8.24349 9.63672 8.30859C9.67578 8.3737 9.68229 8.45833 9.65625 8.5625L9.98828 8.81641C10.0143 8.80339 10.0404 8.82292 10.0664 8.875C10.0924 8.92708 10.1185 8.98568 10.1445 9.05078C10.1706 9.11589 10.1901 9.17448 10.2031 9.22656C10.2292 9.27865 10.2552 9.30469 10.2812 9.30469C10.4115 9.31771 10.4896 9.39583 10.5156 9.53906C10.5547 9.66927 10.6263 9.75391 10.7305 9.79297C10.6784 9.85807 10.6849 9.96224 10.75 10.1055C10.8281 10.2487 10.8867 10.3464 10.9258 10.3984C10.9518 10.4245 10.9714 10.4766 10.9844 10.5547C10.9974 10.6328 11.0169 10.6914 11.043 10.7305C11.1081 10.8737 11.2057 10.9714 11.3359 11.0234C11.3359 11.1016 11.349 11.1602 11.375 11.1992C11.4141 11.2383 11.4531 11.2839 11.4922 11.3359C11.4792 11.375 11.4792 11.4206 11.4922 11.4727C11.5182 11.5247 11.5182 11.5638 11.4922 11.5898C11.5443 11.668 11.5964 11.7396 11.6484 11.8047C11.7135 11.8568 11.7721 11.9219 11.8242 12C11.8503 12.0521 11.8633 12.1042 11.8633 12.1562C11.8633 12.2083 11.8763 12.2474 11.9023 12.2734C11.9805 12.3906 12.0391 12.4688 12.0781 12.5078C12.1172 12.5469 12.1562 12.5924 12.1953 12.6445C12.2083 12.7878 12.2409 12.9245 12.293 13.0547C12.3451 13.1849 12.4102 13.3086 12.4883 13.4258C12.4753 13.5299 12.4818 13.6341 12.5078 13.7383C12.5469 13.8294 12.5794 13.9271 12.6055 14.0312C12.6445 14.1224 12.6771 14.2201 12.7031 14.3242C12.7292 14.4154 12.7357 14.5065 12.7227 14.5977C12.7747 14.819 12.8138 15.0143 12.8398 15.1836C12.8659 15.3529 12.9245 15.4701 13.0156 15.5352C12.9635 15.5742 12.957 15.6133 12.9961 15.6523C13.0352 15.6784 13.0547 15.7109 13.0547 15.75C13.0417 15.9323 13.0547 16.0495 13.0938 16.1016C13.1328 16.1406 13.1589 16.1862 13.1719 16.2383C13.263 16.3815 13.3021 16.5052 13.2891 16.6094C13.276 16.7135 13.3216 16.7656 13.4258 16.7656C13.3867 16.8307 13.3867 16.8828 13.4258 16.9219C13.4648 16.9609 13.5039 17.0065 13.543 17.0586C13.5951 17.0326 13.6016 16.974 13.5625 16.8828C13.5365 16.7917 13.582 16.7135 13.6992 16.6484C13.6992 16.5833 13.6862 16.4857 13.6602 16.3555C13.7383 16.1992 13.7839 16.1146 13.7969 16.1016C13.8229 16.0755 13.8359 16.056 13.8359 16.043C13.849 16.0169 13.849 15.9909 13.8359 15.9648C13.8359 15.9258 13.8229 15.8672 13.7969 15.7891C13.9141 15.6849 13.9596 15.5677 13.9336 15.4375C13.9206 15.3073 13.9661 15.2096 14.0703 15.1445C14.0573 15.0404 14.0703 14.9557 14.1094 14.8906C14.1615 14.8125 14.2005 14.7279 14.2266 14.6367C14.2917 14.4674 14.3242 14.3503 14.3242 14.2852C14.3242 14.207 14.3372 14.1354 14.3633 14.0703C14.4935 13.875 14.5716 13.7188 14.5977 13.6016C14.6237 13.4714 14.6497 13.3542 14.6758 13.25C14.7409 13.224 14.793 13.1719 14.832 13.0938C14.8711 13.0026 14.8776 12.9245 14.8516 12.8594C14.9036 12.8333 14.9362 12.7943 14.9492 12.7422C14.9753 12.6771 15.0078 12.6185 15.0469 12.5664C15.0208 12.3711 15.0273 12.2734 15.0664 12.2734C15.1185 12.2604 15.1576 12.2344 15.1836 12.1953C15.1576 12.0521 15.1836 11.9544 15.2617 11.9023C15.3398 11.8503 15.3919 11.7721 15.418 11.668C15.431 11.6029 15.4245 11.5573 15.3984 11.5312C15.3854 11.4922 15.3789 11.4401 15.3789 11.375C15.444 11.349 15.4831 11.3164 15.4961 11.2773C15.5221 11.2253 15.5612 11.1797 15.6133 11.1406V10.8867C15.6784 10.8346 15.724 10.7695 15.75 10.6914C15.7891 10.6133 15.8411 10.5417 15.9062 10.4766L15.9844 10.2422C16.0625 10.0859 16.1602 9.97526 16.2773 9.91016C16.2773 9.84505 16.2904 9.79948 16.3164 9.77344C16.3555 9.7474 16.3685 9.70182 16.3555 9.63672C16.4336 9.6237 16.4857 9.59115 16.5117 9.53906C16.5508 9.47396 16.5833 9.40885 16.6094 9.34375C16.7135 9.31771 16.7852 9.27214 16.8242 9.20703C16.8763 9.12891 16.9284 9.05078 16.9805 8.97266C16.9935 8.90755 16.987 8.86198 16.9609 8.83594C16.9349 8.79688 16.9349 8.74479 16.9609 8.67969C17.1042 8.61458 17.2409 8.52995 17.3711 8.42578C17.5013 8.32161 17.599 8.19141 17.6641 8.03516C17.7292 7.99609 17.8008 7.96354 17.8789 7.9375C17.957 7.91146 18.0091 7.85938 18.0352 7.78125C18.2044 7.74219 18.2826 7.69661 18.2695 7.64453C18.2565 7.59245 18.2695 7.5599 18.3086 7.54688C18.3477 7.53385 18.3867 7.52734 18.4258 7.52734C18.4779 7.52734 18.5234 7.52734 18.5625 7.52734C18.6667 7.5013 18.7643 7.48177 18.8555 7.46875C18.9596 7.44271 19.0638 7.41667 19.168 7.39062C19.207 7.49479 19.2461 7.59896 19.2852 7.70312C19.3372 7.80729 19.4089 7.89193 19.5 7.95703C19.474 8.03516 19.4609 8.11979 19.4609 8.21094C19.4609 8.28906 19.4479 8.36719 19.4219 8.44531C19.4349 8.51042 19.4219 8.54948 19.3828 8.5625C19.3438 8.5625 19.3177 8.58854 19.3047 8.64062C19.2786 8.90104 19.2656 9.16146 19.2656 9.42188C19.2656 9.68229 19.2591 9.94271 19.2461 10.2031C19.2331 10.2682 19.2331 10.3398 19.2461 10.418C19.2591 10.4961 19.2461 10.5612 19.207 10.6133C19.2721 10.7435 19.3047 10.8737 19.3047 11.0039C19.3047 11.0299 19.2917 11.0625 19.2656 11.1016C19.2526 11.1406 19.2461 11.1797 19.2461 11.2188C19.2201 11.3229 19.2135 11.4271 19.2266 11.5312C19.2396 11.6224 19.2461 11.7201 19.2461 11.8242C19.2461 11.8633 19.2331 11.9023 19.207 11.9414C19.181 11.9805 19.168 12.026 19.168 12.0781C19.168 12.1172 19.1745 12.1562 19.1875 12.1953C19.2005 12.2344 19.207 12.2734 19.207 12.3125C19.1549 12.4688 19.1289 12.5599 19.1289 12.5859C19.1419 12.599 19.1549 12.6185 19.168 12.6445C19.168 12.6966 19.1549 12.7487 19.1289 12.8008C19.1159 12.8398 19.1549 12.8724 19.2461 12.8984C19.2201 12.9635 19.181 13.0482 19.1289 13.1523C19.0768 13.2565 19.1029 13.3346 19.207 13.3867C19.181 13.569 19.181 13.7643 19.207 13.9727C19.2461 14.168 19.2591 14.3633 19.2461 14.5586C19.2331 14.6497 19.2266 14.7083 19.2266 14.7344C19.2266 14.7604 19.2266 14.7799 19.2266 14.793C19.2266 14.806 19.2266 14.8255 19.2266 14.8516C19.2396 14.8776 19.2526 14.9297 19.2656 15.0078C19.3047 15.1771 19.3112 15.3464 19.2852 15.5156C19.2721 15.6849 19.2786 15.8542 19.3047 16.0234C19.3828 16.2318 19.4284 16.4271 19.4414 16.6094C19.4544 16.7786 19.4609 16.9284 19.4609 17.0586C19.4609 17.1758 19.4609 17.2669 19.4609 17.332C19.474 17.3841 19.5 17.4688 19.5391 17.5859C19.5 17.7943 19.4935 17.944 19.5195 18.0352C19.5456 18.1263 19.526 18.224 19.4609 18.3281C19.487 18.3542 19.5 18.4128 19.5 18.5039C19.513 18.5951 19.5391 18.6797 19.5781 18.7578C19.6172 18.8229 19.6302 18.9206 19.6172 19.0508C19.6172 19.181 19.6628 19.3307 19.7539 19.5C19.7279 19.5911 19.7279 19.7018 19.7539 19.832C19.7799 19.9492 19.832 20.0404 19.9102 20.1055C19.8711 20.2487 19.9036 20.3854 20.0078 20.5156C20.112 20.6328 20.1641 20.7695 20.1641 20.9258C20.2031 20.9648 20.2357 21.0039 20.2617 21.043C20.3008 21.082 20.3464 21.1146 20.3984 21.1406C20.4375 21.2969 20.5091 21.4076 20.6133 21.4727C20.7174 21.5247 20.8281 21.5703 20.9453 21.6094C21.0625 21.6484 21.1732 21.668 21.2773 21.668C21.3945 21.668 21.4857 21.6419 21.5508 21.5898C21.6289 21.6159 21.6875 21.6419 21.7266 21.668C21.7786 21.694 21.8503 21.694 21.9414 21.668C21.9805 21.7331 22.0065 21.8047 22.0195 21.8828C22.0326 21.9479 22.0521 22.013 22.0781 22.0781ZM29.3047 22.2344C29.2396 22.2474 29.207 22.2799 29.207 22.332C29.2201 22.3971 29.2201 22.4492 29.207 22.4883C29.1419 22.5013 29.0768 22.5143 29.0117 22.5273C28.9466 22.5404 28.8945 22.5794 28.8555 22.6445C28.7904 22.6185 28.7188 22.6055 28.6406 22.6055C28.5625 22.6185 28.4974 22.599 28.4453 22.5469L28.1523 22.4883C28.0872 22.4753 28.0482 22.4492 28.0352 22.4102C28.0352 22.3711 28.0091 22.3385 27.957 22.3125C27.8008 22.2734 27.7161 22.2409 27.7031 22.2148C27.7031 22.2018 27.6901 22.1823 27.6641 22.1562C27.5078 22.0651 27.4167 21.987 27.3906 21.9219C27.3646 21.8438 27.3125 21.7917 27.2344 21.7656C27.2474 21.6094 27.2083 21.4857 27.1172 21.3945C27.0391 21.3034 26.987 21.1862 26.9609 21.043C26.9219 21.0039 26.8763 20.9714 26.8242 20.9453C26.7852 20.9062 26.7656 20.8542 26.7656 20.7891C26.7005 20.763 26.6549 20.7826 26.6289 20.8477C26.6029 20.9128 26.5768 20.9583 26.5508 20.9844C26.4727 21.0234 26.401 21.0885 26.3359 21.1797C26.2839 21.2708 26.2643 21.3294 26.2773 21.3555C26.1732 21.3945 26.082 21.4531 26.0039 21.5312C25.9258 21.6094 25.8346 21.6615 25.7305 21.6875C25.5352 21.8047 25.3919 21.8893 25.3008 21.9414C25.2096 21.9805 25.1185 22.026 25.0273 22.0781C24.9362 22.0391 24.8516 22.0326 24.7734 22.0586C24.6953 22.0846 24.6042 22.0911 24.5 22.0781C24.2786 22.013 24.1159 21.9935 24.0117 22.0195C23.9206 22.0456 23.8229 22.0326 23.7188 21.9805C23.5625 21.8763 23.4128 21.8047 23.2695 21.7656C23.1263 21.7135 23.0156 21.681 22.9375 21.668C22.8724 21.6549 22.8398 21.6289 22.8398 21.5898C22.8398 21.5508 22.8203 21.5182 22.7812 21.4922C22.6901 21.5052 22.612 21.4922 22.5469 21.4531C22.4818 21.4141 22.4102 21.349 22.332 21.2578C22.2669 21.1667 22.2018 21.069 22.1367 20.9648C22.0716 20.8607 22.013 20.763 21.9609 20.6719C21.9089 20.5677 21.8633 20.4831 21.8242 20.418C21.8372 20.3138 21.8372 20.2552 21.8242 20.2422C21.8112 20.2292 21.7982 20.2096 21.7852 20.1836C21.7591 20.0794 21.7396 19.9753 21.7266 19.8711C21.7266 19.7669 21.7135 19.6628 21.6875 19.5586C21.7656 19.5065 21.7982 19.4154 21.7852 19.2852C21.7852 19.1549 21.7917 19.0508 21.8047 18.9727C21.8307 18.8555 21.8633 18.7448 21.9023 18.6406C21.9544 18.5234 21.9935 18.4062 22.0195 18.2891C22.0456 18.1849 22.0586 18.0807 22.0586 17.9766C22.0586 17.8594 22.1107 17.7682 22.2148 17.7031C22.2409 17.5599 22.2604 17.4167 22.2734 17.2734C22.2865 17.1172 22.3125 16.9674 22.3516 16.8242C22.3776 16.7201 22.4167 16.6029 22.4688 16.4727C22.5339 16.3294 22.5273 16.2057 22.4492 16.1016C22.4883 16.0755 22.5078 16.043 22.5078 16.0039C22.5208 15.9648 22.5404 15.9323 22.5664 15.9062C22.6315 15.8281 22.6576 15.7826 22.6445 15.7695C22.6315 15.7435 22.638 15.7174 22.6641 15.6914C22.7812 15.6133 22.8659 15.5612 22.918 15.5352C22.9831 15.4961 23.0612 15.4701 23.1523 15.457C23.1914 15.4701 23.2305 15.4961 23.2695 15.5352C23.3216 15.5742 23.3607 15.6003 23.3867 15.6133C23.543 15.6393 23.6797 15.6654 23.7969 15.6914L23.9141 15.9062C23.9531 16.0104 23.9596 16.1276 23.9336 16.2578C23.9206 16.375 23.8815 16.4792 23.8164 16.5703C23.7904 16.6484 23.7773 16.7461 23.7773 16.8633C23.7904 16.9805 23.7578 17.0521 23.6797 17.0781C23.6667 17.2083 23.6602 17.3125 23.6602 17.3906C23.6732 17.4557 23.6667 17.5143 23.6406 17.5664C23.6276 17.6055 23.6016 17.6641 23.5625 17.7422C23.5365 17.8073 23.5365 17.8594 23.5625 17.8984C23.4453 18.0938 23.3607 18.2435 23.3086 18.3477C23.2695 18.4518 23.276 18.556 23.3281 18.6602C23.224 18.7253 23.1654 18.8164 23.1523 18.9336C23.1523 19.0508 23.1198 19.1484 23.0547 19.2266C23.1068 19.2786 23.1328 19.3503 23.1328 19.4414C23.1328 19.5326 23.1328 19.6237 23.1328 19.7148C23.1328 19.806 23.1393 19.8906 23.1523 19.9688C23.1784 20.0469 23.2435 20.0924 23.3477 20.1055C23.3737 20.2096 23.4128 20.3008 23.4648 20.3789C23.582 20.3919 23.6797 20.4245 23.7578 20.4766C23.849 20.5156 23.9401 20.5612 24.0312 20.6133C24.1224 20.6654 24.2135 20.7109 24.3047 20.75C24.3958 20.7891 24.513 20.8021 24.6562 20.7891C24.7214 20.776 24.7865 20.763 24.8516 20.75C24.9297 20.724 24.9948 20.6914 25.0469 20.6523C25.0859 20.5742 25.138 20.5352 25.2031 20.5352C25.2682 20.5352 25.3138 20.5091 25.3398 20.457C25.431 20.3138 25.5221 20.2096 25.6133 20.1445C25.7044 20.0664 25.7565 19.9557 25.7695 19.8125C25.9258 19.6172 26.0365 19.4479 26.1016 19.3047C26.1797 19.1484 26.2318 18.9857 26.2578 18.8164C26.2578 18.6602 26.2643 18.582 26.2773 18.582C26.2904 18.569 26.2969 18.5495 26.2969 18.5234C26.2708 18.3672 26.2643 18.2826 26.2773 18.2695C26.3034 18.2435 26.3164 18.2174 26.3164 18.1914C26.2773 18.0482 26.2643 17.9635 26.2773 17.9375C26.2904 17.8984 26.2969 17.8659 26.2969 17.8398C26.2839 17.7357 26.2643 17.638 26.2383 17.5469C26.2122 17.4557 26.2057 17.3581 26.2188 17.2539C26.2969 17.1628 26.3164 17.0977 26.2773 17.0586C26.2513 17.0065 26.2513 16.9479 26.2773 16.8828C26.1992 16.8047 26.1471 16.7396 26.1211 16.6875C26.0951 16.6354 26.082 16.5833 26.082 16.5312C26.0951 16.4792 26.1211 16.4271 26.1602 16.375C26.1992 16.3099 26.2383 16.2318 26.2773 16.1406C26.3164 15.9844 26.3424 15.8737 26.3555 15.8086C26.3685 15.7435 26.362 15.6784 26.3359 15.6133C26.401 15.6393 26.4401 15.6328 26.4531 15.5938C26.4792 15.5417 26.5117 15.5091 26.5508 15.4961C26.5768 15.4831 26.6094 15.4831 26.6484 15.4961C26.7005 15.5091 26.7396 15.5156 26.7656 15.5156C26.8177 15.5156 26.8568 15.5091 26.8828 15.4961C26.9089 15.4831 26.9479 15.4766 27 15.4766C27.1172 15.5026 27.2279 15.5417 27.332 15.5938C27.4362 15.6458 27.5404 15.7044 27.6445 15.7695C27.6576 15.8607 27.6836 15.9388 27.7227 16.0039C27.7747 16.056 27.8138 16.1211 27.8398 16.1992C27.8398 16.2383 27.8333 16.2904 27.8203 16.3555C27.8203 16.4206 27.8008 16.4661 27.7617 16.4922C27.8008 16.5312 27.8138 16.5898 27.8008 16.668C27.7878 16.7461 27.8138 16.7982 27.8789 16.8242C27.8138 16.9023 27.8008 17 27.8398 17.1172C27.8789 17.2344 27.9049 17.3125 27.918 17.3516C27.8789 17.4818 27.8659 17.5729 27.8789 17.625C27.9049 17.6771 27.918 17.7357 27.918 17.8008C27.931 17.8789 27.9245 17.957 27.8984 18.0352C27.8854 18.1133 27.8854 18.1849 27.8984 18.25C27.8984 18.3021 27.9115 18.3477 27.9375 18.3867C27.9635 18.4128 27.9766 18.4518 27.9766 18.5039C27.9766 18.543 27.9635 18.5885 27.9375 18.6406C27.9245 18.6927 27.9505 18.7318 28.0156 18.7578C27.9635 18.849 27.957 18.9206 27.9961 18.9727C28.0352 19.0247 28.0612 19.0833 28.0742 19.1484C28.0872 19.2266 28.0807 19.3047 28.0547 19.3828C28.0417 19.4609 28.0352 19.5326 28.0352 19.5977C28.0482 19.7539 28.0742 19.9036 28.1133 20.0469C28.1654 20.1771 28.2044 20.3138 28.2305 20.457C28.3216 20.5612 28.3607 20.6719 28.3477 20.7891C28.3346 20.8932 28.3932 21.0039 28.5234 21.1211C28.5755 21.1602 28.6276 21.2188 28.6797 21.2969C28.7448 21.375 28.8099 21.4271 28.875 21.4531C28.9792 21.5182 29.0378 21.5768 29.0508 21.6289C29.0638 21.681 29.1224 21.7331 29.2266 21.7852L29.3047 22.2344ZM37.0195 17.5664C37.0326 17.6706 37.026 17.8073 37 17.9766C36.987 18.1458 36.9544 18.2695 36.9023 18.3477C36.7591 18.569 36.6354 18.7188 36.5312 18.7969C36.401 18.875 36.3099 18.9271 36.2578 18.9531C36.2057 18.9792 36.1536 19.0117 36.1016 19.0508C36.0495 19.0898 35.9974 19.1289 35.9453 19.168C35.8932 19.194 35.8411 19.2005 35.7891 19.1875C35.6458 19.2786 35.5612 19.3112 35.5352 19.2852C35.5221 19.2591 35.4896 19.2461 35.4375 19.2461C35.3724 19.2852 35.3073 19.3112 35.2422 19.3242C35.1901 19.3372 35.1315 19.3503 35.0664 19.3633C34.8711 19.4414 34.7083 19.4805 34.5781 19.4805C34.4609 19.4674 34.3633 19.5065 34.2852 19.5977C34.181 19.5456 34.0703 19.5065 33.9531 19.4805C33.849 19.4414 33.7448 19.3893 33.6406 19.3242C33.6536 19.2331 33.6341 19.1549 33.582 19.0898C33.543 19.0117 33.5169 18.9271 33.5039 18.8359C33.4909 18.7839 33.4909 18.7318 33.5039 18.6797C33.5299 18.6276 33.5299 18.569 33.5039 18.5039C33.569 18.5039 33.6146 18.4844 33.6406 18.4453C33.6667 18.3932 33.6927 18.3411 33.7188 18.2891C33.7839 18.276 33.8555 18.263 33.9336 18.25C34.0117 18.237 34.0638 18.1979 34.0898 18.1328C34.1419 18.1328 34.2005 18.1393 34.2656 18.1523C34.3307 18.1523 34.3763 18.1849 34.4023 18.25C34.5586 18.1589 34.6497 18.1263 34.6758 18.1523C34.7018 18.1784 34.7344 18.1849 34.7734 18.1719C34.8776 18.1458 34.9688 18.1068 35.0469 18.0547C35.125 18.0026 35.2227 17.9766 35.3398 17.9766C35.3789 17.9115 35.4245 17.8529 35.4766 17.8008C35.5417 17.7357 35.5547 17.6576 35.5156 17.5664C35.4896 17.4232 35.4635 17.3516 35.4375 17.3516C35.4245 17.3385 35.4115 17.3255 35.3984 17.3125C35.3724 17.1432 35.3398 17.0326 35.3008 16.9805C35.2617 16.9284 35.2227 16.8763 35.1836 16.8242C35.0794 16.8503 34.9883 16.8438 34.9102 16.8047C34.832 16.7656 34.7474 16.7461 34.6562 16.7461C34.5911 16.7461 34.5391 16.7591 34.5 16.7852C34.4609 16.7982 34.4154 16.7721 34.3633 16.707C34.207 16.7461 34.1159 16.7786 34.0898 16.8047C34.0638 16.8177 34.0378 16.8242 34.0117 16.8242C33.9857 16.8242 33.9466 16.8112 33.8945 16.7852C33.8555 16.7591 33.8229 16.7721 33.7969 16.8242C33.7318 16.8372 33.6797 16.8698 33.6406 16.9219C33.6146 16.9609 33.582 17 33.543 17.0391C33.4648 17.026 33.3932 17.0326 33.3281 17.0586C33.263 17.0846 33.1914 17.0911 33.1133 17.0781C33.0091 17.1432 32.9375 17.2344 32.8984 17.3516C32.8333 17.3255 32.7812 17.3255 32.7422 17.3516C32.7031 17.3776 32.6706 17.4102 32.6445 17.4492C32.6185 17.4883 32.5859 17.5339 32.5469 17.5859C32.5078 17.625 32.4622 17.6445 32.4102 17.6445C32.3971 17.6966 32.3841 17.7422 32.3711 17.7812C32.3581 17.8073 32.3581 17.8464 32.3711 17.8984C32.306 17.9245 32.2474 17.9701 32.1953 18.0352C32.1562 18.0872 32.1042 18.1328 32.0391 18.1719C32.013 18.237 32 18.3086 32 18.3867C32 18.4648 31.987 18.543 31.9609 18.6211C31.9089 18.6992 31.8828 18.7513 31.8828 18.7773C31.8958 18.7904 31.8958 18.8099 31.8828 18.8359C31.8438 18.9531 31.8177 19.0182 31.8047 19.0312C31.7917 19.0443 31.7852 19.0573 31.7852 19.0703C31.7591 19.2526 31.7526 19.4154 31.7656 19.5586C31.7917 19.6888 31.8047 19.8255 31.8047 19.9688C31.8047 20.0469 31.8307 20.099 31.8828 20.125C31.9349 20.151 31.9609 20.1966 31.9609 20.2617C31.8828 20.2747 31.8698 20.3138 31.9219 20.3789C31.974 20.431 31.974 20.4831 31.9219 20.5352C31.9479 20.6003 31.9805 20.6914 32.0195 20.8086C32.0586 20.9128 32.1107 20.9779 32.1758 21.0039C32.2018 21.069 32.1953 21.1276 32.1562 21.1797C32.1172 21.2318 32.1107 21.3099 32.1367 21.4141C32.0195 21.5443 31.9609 21.6159 31.9609 21.6289C31.9609 21.6289 31.974 21.6745 32 21.7656C31.8307 21.7005 31.7135 21.707 31.6484 21.7852C31.5964 21.8633 31.5117 21.9284 31.3945 21.9805C31.3294 21.9414 31.2578 21.9219 31.1797 21.9219C31.1146 21.9089 31.0495 21.8828 30.9844 21.8438C30.9193 21.8047 30.8672 21.7461 30.8281 21.668C30.8021 21.5898 30.7695 21.5247 30.7305 21.4727C30.6133 21.3555 30.5547 21.2904 30.5547 21.2773C30.5547 21.2513 30.5091 21.1992 30.418 21.1211C30.4961 20.9909 30.5156 20.9193 30.4766 20.9062C30.4505 20.8802 30.431 20.8151 30.418 20.7109C30.418 20.6719 30.4245 20.6393 30.4375 20.6133C30.4505 20.5742 30.457 20.5352 30.457 20.4961C30.444 20.3659 30.444 20.2878 30.457 20.2617C30.4831 20.2227 30.4961 20.1901 30.4961 20.1641C30.5091 20.0469 30.4961 19.9297 30.457 19.8125C30.418 19.6953 30.431 19.5846 30.4961 19.4805C30.4701 19.4154 30.431 19.3633 30.3789 19.3242C30.3398 19.2852 30.3073 19.2396 30.2812 19.1875C30.3203 19.0703 30.3138 18.9531 30.2617 18.8359C30.2096 18.7057 30.1771 18.582 30.1641 18.4648C30.151 18.4258 30.151 18.3867 30.1641 18.3477C30.1771 18.2956 30.1771 18.25 30.1641 18.2109C30.099 18.0807 30.0729 18.0091 30.0859 17.9961C30.099 17.9831 30.099 17.9635 30.0859 17.9375C30.0599 17.8203 30.0273 17.7422 29.9883 17.7031C29.9492 17.651 29.9427 17.5794 29.9688 17.4883C29.9297 17.4622 29.9036 17.4362 29.8906 17.4102C29.8776 17.3711 29.8581 17.3385 29.832 17.3125C29.8451 17.1953 29.832 17.0977 29.793 17.0195C29.7669 16.9284 29.7344 16.8438 29.6953 16.7656C29.6562 16.6745 29.6237 16.5768 29.5977 16.4727C29.5716 16.3685 29.5716 16.2448 29.5977 16.1016L29.4219 15.9258C29.4479 15.7305 29.5195 15.5807 29.6367 15.4766C29.7669 15.3594 29.8646 15.2943 29.9297 15.2812C29.9948 15.2812 30.0469 15.2943 30.0859 15.3203C30.138 15.3464 30.1901 15.3724 30.2422 15.3984C30.3203 15.4245 30.4049 15.4375 30.4961 15.4375C30.6003 15.4375 30.6914 15.4635 30.7695 15.5156C30.7956 15.5547 30.8086 15.6003 30.8086 15.6523C30.8216 15.6914 30.8542 15.7174 30.9062 15.7305C30.9323 15.8867 30.9453 15.9779 30.9453 16.0039C30.9583 16.1471 30.9909 16.2969 31.043 16.4531C31.0951 16.5964 31.1341 16.694 31.1602 16.7461C31.1341 16.8763 31.1602 16.9805 31.2383 17.0586C31.2773 17.0456 31.3229 17.013 31.375 16.9609C31.4271 16.8958 31.4727 16.8307 31.5117 16.7656C31.5638 16.6875 31.6159 16.6224 31.668 16.5703C31.7201 16.5052 31.7656 16.4727 31.8047 16.4727C31.8698 16.3685 31.9544 16.2839 32.0586 16.2188C32.1628 16.1536 32.2474 16.0625 32.3125 15.9453C32.3906 15.9193 32.4688 15.8932 32.5469 15.8672C32.638 15.8411 32.6966 15.7826 32.7227 15.6914C32.7617 15.7044 32.8268 15.7044 32.918 15.6914C33.0091 15.6784 33.1068 15.6589 33.2109 15.6328C33.3151 15.5938 33.4062 15.5612 33.4844 15.5352C33.5755 15.4961 33.6341 15.457 33.6602 15.418C33.7773 15.444 33.888 15.4375 33.9922 15.3984C34.1094 15.3594 34.2331 15.3464 34.3633 15.3594C34.4284 15.3724 34.4935 15.3919 34.5586 15.418C34.6367 15.444 34.7083 15.4635 34.7734 15.4766C34.8125 15.4766 34.8516 15.4766 34.8906 15.4766C34.9427 15.4635 34.9883 15.4635 35.0273 15.4766C35.1185 15.4896 35.1836 15.5221 35.2227 15.5742C35.2747 15.6263 35.3464 15.6589 35.4375 15.6719C35.5026 15.6849 35.5742 15.6849 35.6523 15.6719C35.7435 15.6458 35.8216 15.6458 35.8867 15.6719C35.9388 15.6979 35.9779 15.7305 36.0039 15.7695C36.0299 15.8086 36.0755 15.8411 36.1406 15.8672C36.2318 15.9714 36.2969 16.043 36.3359 16.082C36.375 16.1211 36.4076 16.1602 36.4336 16.1992C36.4076 16.3424 36.4336 16.4596 36.5117 16.5508C36.5898 16.6419 36.668 16.7331 36.7461 16.8242C36.7461 16.9154 36.7591 17.013 36.7852 17.1172C36.8242 17.2083 36.8503 17.2995 36.8633 17.3906C36.8763 17.4297 36.9023 17.4622 36.9414 17.4883C36.9805 17.5013 37.0065 17.5273 37.0195 17.5664ZM43.7773 21.5703C43.7122 21.7005 43.6471 21.8307 43.582 21.9609C43.5169 22.0911 43.4062 22.1758 43.25 22.2148C43.1589 22.3581 43.0872 22.4427 43.0352 22.4688C42.9831 22.5078 42.931 22.5208 42.8789 22.5078C42.8268 22.4948 42.7682 22.4622 42.7031 22.4102C42.651 22.3711 42.5729 22.3385 42.4688 22.3125C42.4297 22.1823 42.3646 22.0781 42.2734 22C42.1953 21.9219 42.1237 21.8307 42.0586 21.7266C42.0846 21.6224 42.1042 21.5247 42.1172 21.4336C42.1432 21.3424 42.1758 21.2513 42.2148 21.1602C42.2018 21.0951 42.1628 21.069 42.0977 21.082C42.0456 21.082 42.0065 21.069 41.9805 21.043C41.9414 21.043 41.8958 21.069 41.8438 21.1211C41.7917 21.1732 41.7526 21.2122 41.7266 21.2383C41.6094 21.2643 41.5247 21.3034 41.4727 21.3555C41.4336 21.4076 41.401 21.4531 41.375 21.4922C41.2318 21.5052 41.1211 21.5443 41.043 21.6094C40.9648 21.6615 40.8542 21.6745 40.7109 21.6484C40.6589 21.6745 40.6198 21.7135 40.5938 21.7656C40.5807 21.8047 40.5612 21.8372 40.5352 21.8633C40.4049 21.9154 40.3138 21.9414 40.2617 21.9414C40.2227 21.9284 40.1901 21.9284 40.1641 21.9414C40.0599 21.9805 39.9622 22.0195 39.8711 22.0586C39.793 22.1107 39.7018 22.0977 39.5977 22.0195C39.5456 22.0846 39.4935 22.0977 39.4414 22.0586C39.3893 22.0326 39.3438 22.0456 39.3047 22.0977C39.2266 22.0846 39.168 22.0651 39.1289 22.0391C39.1029 22.013 39.0378 22.0065 38.9336 22.0195C38.8685 22.0326 38.8294 22.013 38.8164 21.9609C38.8164 21.9089 38.7904 21.8763 38.7383 21.8633C38.6862 21.8372 38.6341 21.8242 38.582 21.8242C38.543 21.8242 38.5039 21.8177 38.4648 21.8047C38.4388 21.7266 38.3932 21.6875 38.3281 21.6875C38.263 21.6875 38.2044 21.6745 38.1523 21.6484C38.1263 21.5703 38.1003 21.5378 38.0742 21.5508C38.0482 21.5508 38.0091 21.5312 37.957 21.4922C37.8789 21.4401 37.8203 21.375 37.7812 21.2969C37.7422 21.2057 37.6706 21.1471 37.5664 21.1211C37.4883 20.9909 37.4427 20.8477 37.4297 20.6914C37.4297 20.5352 37.3971 20.3919 37.332 20.2617C37.3841 20.2227 37.4167 20.1641 37.4297 20.0859C37.4427 20.0078 37.4492 19.9297 37.4492 19.8516C37.4622 19.7734 37.4753 19.7018 37.4883 19.6367C37.5143 19.5716 37.5534 19.5195 37.6055 19.4805C37.5794 19.3893 37.5859 19.3242 37.625 19.2852C37.6641 19.2331 37.6771 19.1745 37.6641 19.1094C37.7682 19.0573 37.8333 18.9727 37.8594 18.8555C37.8984 18.7253 37.9766 18.6471 38.0938 18.6211C38.0807 18.5299 38.1133 18.4258 38.1914 18.3086C38.2826 18.1784 38.3737 18.1198 38.4648 18.1328C38.5299 18.0547 38.6081 17.9896 38.6992 17.9375C38.7904 17.8724 38.8555 17.7878 38.8945 17.6836C38.9596 17.6836 39.0052 17.6576 39.0312 17.6055C39.0703 17.5534 39.1094 17.5143 39.1484 17.4883C39.1745 17.4622 39.2135 17.4557 39.2656 17.4688C39.3177 17.4688 39.3633 17.4622 39.4023 17.4492C39.4935 17.3971 39.6172 17.3581 39.7734 17.332C39.9297 17.306 40.0143 17.293 40.0273 17.293C40.1706 17.319 40.2617 17.3255 40.3008 17.3125C40.3398 17.2995 40.3724 17.2865 40.3984 17.2734C40.4896 17.3385 40.5807 17.3581 40.6719 17.332C40.776 17.293 40.8737 17.2734 40.9648 17.2734C41.1602 17.2995 41.2839 17.306 41.3359 17.293C41.401 17.2669 41.4661 17.2604 41.5312 17.2734C41.5703 17.2734 41.6094 17.2865 41.6484 17.3125C41.6875 17.3255 41.7266 17.332 41.7656 17.332C41.8568 17.3581 41.9414 17.3581 42.0195 17.332C42.1107 17.306 42.2018 17.306 42.293 17.332C42.2799 17.2148 42.2734 17.0716 42.2734 16.9023C42.2734 16.7201 42.1953 16.6094 42.0391 16.5703C42.026 16.5182 42.013 16.4792 42 16.4531C41.987 16.4141 41.9805 16.3685 41.9805 16.3164C41.9544 16.3034 41.9154 16.2773 41.8633 16.2383C41.8112 16.1992 41.7526 16.1602 41.6875 16.1211C41.6354 16.082 41.5898 16.043 41.5508 16.0039C41.5117 15.9648 41.4922 15.9323 41.4922 15.9062C41.349 15.8802 41.2122 15.8867 41.082 15.9258C40.9648 15.9518 40.8346 15.9583 40.6914 15.9453C40.6003 16.0365 40.4766 16.0951 40.3203 16.1211C40.1771 16.1471 40.0534 16.1927 39.9492 16.2578C39.8451 16.375 39.7279 16.4792 39.5977 16.5703C39.4805 16.6615 39.3633 16.7201 39.2461 16.7461C39.1289 16.7721 39.0182 16.7526 38.9141 16.6875C38.8099 16.6224 38.7122 16.4987 38.6211 16.3164C38.5951 16.2513 38.5625 16.1862 38.5234 16.1211C38.4974 16.043 38.4844 15.9714 38.4844 15.9062C38.5495 15.8021 38.5755 15.737 38.5625 15.7109C38.5625 15.6849 38.569 15.6589 38.582 15.6328C38.7122 15.5286 38.7904 15.457 38.8164 15.418C38.8424 15.3789 38.875 15.3398 38.9141 15.3008C38.9531 15.2617 38.9922 15.2292 39.0312 15.2031C39.0833 15.1771 39.1224 15.138 39.1484 15.0859C39.2266 15.0859 39.3568 15.0469 39.5391 14.9688C39.7344 14.8906 39.8841 14.8385 39.9883 14.8125C40.0534 14.7995 40.1445 14.7865 40.2617 14.7734C40.3919 14.7604 40.4831 14.7279 40.5352 14.6758C40.6133 14.7018 40.6654 14.7279 40.6914 14.7539C40.7174 14.7799 40.7826 14.7734 40.8867 14.7344C40.9258 14.7083 40.9648 14.6888 41.0039 14.6758C41.043 14.6497 41.0885 14.6302 41.1406 14.6172C41.2188 14.6042 41.2773 14.6107 41.3164 14.6367C41.3685 14.6497 41.4336 14.6172 41.5117 14.5391C41.6029 14.513 41.7005 14.5195 41.8047 14.5586C41.9089 14.5846 42.013 14.5846 42.1172 14.5586C42.1432 14.6237 42.1823 14.6562 42.2344 14.6562C42.2995 14.6562 42.319 14.7018 42.293 14.793C42.3581 14.806 42.4102 14.8385 42.4492 14.8906C42.4883 14.9297 42.5404 14.9622 42.6055 14.9883C42.6055 15.0404 42.6185 15.0794 42.6445 15.1055C42.6706 15.1315 42.7031 15.151 42.7422 15.1641C42.7812 15.1771 42.8073 15.1966 42.8203 15.2227C42.8464 15.2487 42.8464 15.2878 42.8203 15.3398C42.8854 15.418 42.9505 15.4961 43.0156 15.5742C43.0938 15.6523 43.1849 15.724 43.2891 15.7891C43.25 15.8281 43.25 15.8672 43.2891 15.9062C43.3281 15.9453 43.3477 15.9909 43.3477 16.043C43.3737 16.082 43.3867 16.1406 43.3867 16.2188C43.3867 16.2839 43.4062 16.3229 43.4453 16.3359C43.4453 16.375 43.4453 16.4401 43.4453 16.5312C43.4583 16.6094 43.4648 16.694 43.4648 16.7852C43.4779 16.8633 43.4909 16.9414 43.5039 17.0195C43.5169 17.0977 43.5299 17.1562 43.543 17.1953C43.6211 17.4036 43.6602 17.5534 43.6602 17.6445C43.6471 17.6836 43.6276 17.7227 43.6016 17.7617C43.5885 17.7878 43.569 17.8203 43.543 17.8594C43.5299 17.9245 43.5234 18.0156 43.5234 18.1328C43.5234 18.25 43.5234 18.3672 43.5234 18.4844C43.5365 18.6016 43.543 18.7188 43.543 18.8359C43.543 18.9401 43.5299 19.0182 43.5039 19.0703C43.582 19.2917 43.6146 19.526 43.6016 19.7734C43.6016 20.0208 43.6341 20.2552 43.6992 20.4766C43.6602 20.5026 43.6471 20.5482 43.6602 20.6133C43.6732 20.6784 43.6536 20.724 43.6016 20.75C43.6016 20.8021 43.6146 20.8411 43.6406 20.8672C43.6797 20.8802 43.6992 20.9128 43.6992 20.9648C43.6341 20.9648 43.6081 20.9974 43.6211 21.0625C43.6341 21.1276 43.6276 21.1732 43.6016 21.1992C43.6146 21.2643 43.6406 21.3294 43.6797 21.3945C43.7188 21.4466 43.7513 21.5052 43.7773 21.5703ZM42.2734 19.0312C42.1693 18.9271 42.0651 18.8229 41.9609 18.7188C41.8568 18.6146 41.7396 18.5299 41.6094 18.4648C41.5312 18.5039 41.4531 18.5104 41.375 18.4844C41.2969 18.4453 41.2188 18.4258 41.1406 18.4258C41.0755 18.4258 41.0104 18.4453 40.9453 18.4844C40.8802 18.5104 40.8151 18.5299 40.75 18.543C40.5807 18.5169 40.4701 18.5234 40.418 18.5625C40.3789 18.5885 40.3398 18.582 40.3008 18.543C40.2747 18.5951 40.2357 18.6341 40.1836 18.6602C40.1445 18.6862 40.112 18.7188 40.0859 18.7578H39.8125C39.7734 18.7839 39.7539 18.8229 39.7539 18.875C39.7539 18.9271 39.7214 18.9661 39.6562 18.9922C39.5651 19.0182 39.4935 19.0573 39.4414 19.1094C39.3893 19.1615 39.3242 19.194 39.2461 19.207C39.194 19.3372 39.1354 19.4609 39.0703 19.5781C39.0052 19.6953 38.9401 19.8125 38.875 19.9297C38.901 20.0339 38.901 20.112 38.875 20.1641C38.849 20.2161 38.8099 20.2878 38.7578 20.3789C38.875 20.5221 39.0052 20.6263 39.1484 20.6914C39.3047 20.7435 39.4154 20.776 39.4805 20.7891C39.5326 20.7891 39.5781 20.776 39.6172 20.75C39.6562 20.724 39.7018 20.7109 39.7539 20.7109C39.8581 20.737 39.9232 20.7435 39.9492 20.7305C39.9883 20.7044 40.0208 20.6849 40.0469 20.6719C40.151 20.6458 40.2487 20.6328 40.3398 20.6328C40.431 20.6328 40.5286 20.6328 40.6328 20.6328C40.724 20.5807 40.776 20.5352 40.7891 20.4961C40.8151 20.444 40.8477 20.4049 40.8867 20.3789H41.1211C41.0951 20.3138 41.1081 20.2812 41.1602 20.2812C41.2253 20.2682 41.2839 20.2617 41.3359 20.2617C41.401 20.1315 41.4987 20.0404 41.6289 19.9883C41.7721 19.9362 41.9023 19.8776 42.0195 19.8125C42.1107 19.7344 42.1693 19.6888 42.1953 19.6758C42.2214 19.6497 42.2474 19.6302 42.2734 19.6172C42.2734 19.513 42.2734 19.4154 42.2734 19.3242C42.2865 19.2331 42.2865 19.1354 42.2734 19.0312ZM48.6211 21.6484C48.6081 21.7005 48.6081 21.7786 48.6211 21.8828C48.6341 21.974 48.6081 22.0326 48.543 22.0586C48.569 22.1237 48.5755 22.1693 48.5625 22.1953C48.5625 22.2344 48.556 22.2865 48.543 22.3516C48.4388 22.3516 48.3672 22.3841 48.3281 22.4492C48.2891 22.5273 48.224 22.5794 48.1328 22.6055C48.0807 22.5794 48.0221 22.5599 47.957 22.5469C47.8919 22.5469 47.8398 22.5208 47.8008 22.4688C47.7617 22.4948 47.7161 22.5013 47.6641 22.4883C47.625 22.4753 47.5794 22.4688 47.5273 22.4688C47.4883 22.4688 47.4492 22.4688 47.4102 22.4688C47.3841 22.4818 47.3516 22.4818 47.3125 22.4688C47.2474 22.4818 47.1823 22.4688 47.1172 22.4297C47.0651 22.3906 47.0195 22.3646 46.9805 22.3516C46.9284 22.3385 46.8698 22.3385 46.8047 22.3516C46.7526 22.3646 46.707 22.3516 46.668 22.3125C46.6159 22.2474 46.5703 22.2148 46.5312 22.2148C46.5052 22.2279 46.4792 22.2214 46.4531 22.1953C46.388 22.1693 46.3229 22.1237 46.2578 22.0586C46.2057 22.0065 46.1471 21.9674 46.082 21.9414L45.9648 21.707C45.9128 21.7331 45.8737 21.7396 45.8477 21.7266C45.8216 21.7005 45.7826 21.6875 45.7305 21.6875C45.7044 21.5833 45.6914 21.4922 45.6914 21.4141C45.6914 21.3359 45.6589 21.2643 45.5938 21.1992C45.5547 21.1602 45.5286 21.1146 45.5156 21.0625C45.5026 20.9974 45.4766 20.9388 45.4375 20.8867C45.4115 20.8216 45.4049 20.763 45.418 20.7109C45.431 20.6458 45.4245 20.5807 45.3984 20.5156C45.3724 20.4505 45.3398 20.3919 45.3008 20.3398C45.2747 20.2747 45.2617 20.2096 45.2617 20.1445C45.2617 20.0664 45.2682 20.0013 45.2812 19.9492C45.3073 19.8841 45.3268 19.819 45.3398 19.7539C45.3659 19.6888 45.3724 19.6237 45.3594 19.5586C45.3594 19.4935 45.3333 19.4154 45.2812 19.3242C45.3333 19.2201 45.3464 19.1224 45.3203 19.0312C45.2943 18.9271 45.2747 18.8229 45.2617 18.7188C45.2487 18.6927 45.2487 18.6602 45.2617 18.6211C45.2747 18.569 45.2747 18.5299 45.2617 18.5039C45.2487 18.3477 45.2487 18.2305 45.2617 18.1523C45.2747 18.0742 45.2812 18.0026 45.2812 17.9375C45.2812 17.8724 45.2747 17.8138 45.2617 17.7617C45.2487 17.6966 45.2487 17.6315 45.2617 17.5664C45.2617 17.4753 45.2747 17.3971 45.3008 17.332C45.3268 17.2539 45.3203 17.1693 45.2812 17.0781C45.3333 17.0521 45.3594 17.013 45.3594 16.9609C45.3594 16.9089 45.3724 16.8698 45.3984 16.8438C45.3594 16.6354 45.3398 16.4792 45.3398 16.375C45.3529 16.2708 45.3529 16.1667 45.3398 16.0625C45.3398 15.9453 45.3398 15.8281 45.3398 15.7109C45.3529 15.5938 45.3854 15.4831 45.4375 15.3789C45.3594 15.3138 45.3398 15.2161 45.3789 15.0859C45.418 14.9557 45.4375 14.8451 45.4375 14.7539C45.3854 14.5846 45.3659 14.487 45.3789 14.4609C45.4049 14.4349 45.4115 14.4089 45.3984 14.3828C45.3203 14.1224 45.2878 13.9271 45.3008 13.7969C45.3138 13.6667 45.3073 13.5365 45.2812 13.4062C45.2812 13.3542 45.2878 13.3021 45.3008 13.25C45.3138 13.1979 45.2878 13.1589 45.2227 13.1328C45.2227 13.0677 45.2422 13.0286 45.2812 13.0156C45.3333 12.9896 45.3594 12.944 45.3594 12.8789C45.3724 12.8138 45.3529 12.7682 45.3008 12.7422C45.2617 12.7161 45.2487 12.6706 45.2617 12.6055C45.2617 12.5143 45.2943 12.4362 45.3594 12.3711C45.4245 12.293 45.4245 12.2018 45.3594 12.0977C45.4115 12.0326 45.4635 11.9935 45.5156 11.9805C45.5807 11.9544 45.6198 11.9023 45.6328 11.8242C45.724 11.8763 45.7956 11.9023 45.8477 11.9023C45.9128 11.9023 45.9779 11.9154 46.043 11.9414C46.0951 11.9935 46.1471 12.0456 46.1992 12.0977C46.2513 12.1367 46.3099 12.1693 46.375 12.1953C46.401 12.2995 46.4206 12.3646 46.4336 12.3906C46.4466 12.4167 46.4401 12.4818 46.4141 12.5859C46.4922 12.7161 46.5117 12.7878 46.4727 12.8008C46.4466 12.8138 46.4271 12.8398 46.4141 12.8789C46.401 12.944 46.4141 13.0221 46.4531 13.1133C46.4922 13.1914 46.4792 13.263 46.4141 13.3281C46.4922 13.3932 46.5247 13.5039 46.5117 13.6602C46.4987 13.8034 46.5052 13.9271 46.5312 14.0312C46.5443 14.0964 46.5312 14.1354 46.4922 14.1484C46.4531 14.1484 46.4271 14.1745 46.4141 14.2266C46.4401 14.2917 46.4727 14.3893 46.5117 14.5195C46.5638 14.6367 46.5573 14.7279 46.4922 14.793C46.5312 14.8971 46.5508 15.0143 46.5508 15.1445C46.5638 15.2617 46.5638 15.3854 46.5508 15.5156C46.5508 15.6328 46.5508 15.7565 46.5508 15.8867C46.5638 16.0039 46.6029 16.1211 46.668 16.2383C46.6549 16.3034 46.6224 16.3424 46.5703 16.3555C46.5312 16.3685 46.5182 16.4076 46.5312 16.4727C46.5573 16.7721 46.5638 17.0586 46.5508 17.332C46.5378 17.6055 46.5182 17.8919 46.4922 18.1914C46.5573 18.3216 46.5964 18.4844 46.6094 18.6797C46.6224 18.862 46.6224 19.0247 46.6094 19.168C46.5833 19.4414 46.5898 19.6367 46.6289 19.7539C46.681 19.8581 46.694 19.9883 46.668 20.1445C46.7201 20.3789 46.7917 20.5417 46.8828 20.6328C46.974 20.7109 47.0065 20.8086 46.9805 20.9258C47.0195 21.0039 47.0521 21.043 47.0781 21.043C47.1042 21.043 47.1432 21.1146 47.1953 21.2578C47.3385 21.2578 47.4753 21.2839 47.6055 21.3359C47.7357 21.388 47.8724 21.401 48.0156 21.375C48.0807 21.375 48.1133 21.3945 48.1133 21.4336C48.1263 21.4596 48.1589 21.4792 48.2109 21.4922C48.25 21.5052 48.2891 21.5052 48.3281 21.4922C48.3672 21.4661 48.4062 21.4661 48.4453 21.4922C48.4714 21.5052 48.4974 21.5312 48.5234 21.5703C48.5495 21.6094 48.582 21.6354 48.6211 21.6484Z" fill="#E0E9F5"/>
<path d="M45.3226 24.8174C45.3292 25.0226 45.5053 25.137 45.6018 24.9987L46.7502 23.3547C46.8276 23.244 46.7941 23.0449 46.6863 22.9749L45.4584 22.1774C45.3506 22.1074 45.2378 22.2114 45.2431 22.3759L45.3226 24.8174Z" fill="#E0E9F5"/>
<path d="M45.65 23.5047C45.6285 23.7452 45.8528 23.8908 45.9451 23.6963L46.0785 23.4152C46.1339 23.2984 46.0946 23.1275 45.9977 23.0646L45.8953 22.9981C45.7984 22.9352 45.694 23.0127 45.6811 23.1571L45.65 23.5047Z" fill="#A5121C"/>
<line x1="8" y1="26.9" x2="50" y2="26.9" stroke="#E0E9F5" stroke-width="0.2"/>
<line x1="8" y1="25.9" x2="43" y2="25.9" stroke="#E0E9F5" stroke-width="0.2"/>
<line x1="8" y1="27.9" x2="50" y2="27.9" stroke="#E0E9F5" stroke-width="0.2"/>
<rect x="47" y="29" width="3" height="1" rx="0.5" fill="#D9D9D9"/>
</svg>
